<?xml version="1.0" standalone="no"?>
<!DOCTYPE svg PUBLIC "-//W3C//DTD SVG 1.1//EN" "http://www.w3.org/Graphics/SVG/1.1/DTD/svg11.dtd" >
<svg>
<metadata>
Created by FontForge 20090622 at Tue Aug 18 22:07:13 2020
 By deploy user
Copyright (c) 2018 by joorgemoron@gmail.com. All rights reserved.
</metadata>
<defs>
<font id="JMHTypewriterdry-Thin" horiz-adv-x="684" >
  <font-face 
    font-family="JMH Typewriter dry Thin"
    font-weight="100"
    font-stretch="normal"
    units-per-em="1024"
    panose-1="2 0 5 6 0 0 0 2 0 4"
    ascent="819"
    descent="-205"
    x-height="505"
    cap-height="725"
    bbox="-82 -492 1031 997"
    underline-thickness="0"
    underline-position="100"
    unicode-range="U+000D-U+EFF9"
  />
<missing-glyph horiz-adv-x="1024" 
 />
    <glyph glyph-name=".notdef" horiz-adv-x="1024" 
 />
    <glyph glyph-name="uni0000" horiz-adv-x="0" 
 />
    <glyph glyph-name="uni0000" horiz-adv-x="0" 
 />
    <glyph glyph-name="uni000D" unicode="&#xd;" horiz-adv-x="256" 
 />
    <glyph glyph-name="space" unicode=" " horiz-adv-x="440" 
 />
    <glyph glyph-name="exclam" unicode="!" horiz-adv-x="212" 
d="M102 143h14q21 -13 41 -34.5t20 -40.5q0 -35 -24.5 -58.5t-56.5 -23.5q-19 0 -44 10t-25 24v76q0 18 28 32.5t47 14.5zM27 662q0 24 2 42t9 36t21.5 28t36.5 10q40 0 60.5 -23.5t20.5 -65.5q0 -82 -18.5 -232t-21.5 -211q-1 -2 -3 -9.5t-3.5 -11t-4 -10t-5 -10t-6.5 -7.5
t-8.5 -5.5t-10.5 -1.5q-23 0 -46 189.5t-23 281.5z" />
    <glyph glyph-name="quotedbl" unicode="&#x22;" horiz-adv-x="394" 
d="M55 532q-4 14 -14.5 92.5t-13.5 92.5q0 3 -3.5 20t-3.5 21q0 36 13 48.5t49 12.5q68 0 68 -48q0 -3 1 -57t0 -78.5t-9.5 -63.5t-25.5 -60q-7 -14 -27 -14q-18 0 -34 34zM246 771q0 24 8.5 36t32.5 12q61 0 82 -27v-41q0 -1 0.5 -22t0.5 -40t-1 -48t-5 -52t-9.5 -45
t-16 -34t-24.5 -12q-25 0 -41.5 64.5t-21.5 121t-5 87.5z" />
    <glyph glyph-name="numbersign" unicode="#" horiz-adv-x="662" 
d="M116 -130q0 44 30.5 130t30.5 130q0 40 -59 40q-8 0 -25 -1t-24 -1q-49 0 -49 30q0 21 13 27.5t38 6.5q6 0 20.5 -0.5t22.5 -0.5q48 0 76 21.5t28 88.5q0 19 -12 29t-25.5 12t-37.5 2h-10q-22 0 -33 1.5t-21.5 8.5t-10.5 22q0 35 48 35q7 0 55 3t54 3q23 2 36 52
t17.5 108t20 106t42.5 48q13 0 19.5 -6.5t7.5 -13.5t1 -21q0 -24 -7 -52t-19 -63.5t-15 -47.5q-2 -8 -43 -216t-79 -365t-56 -157q-14 0 -24 14.5t-10 26.5zM300 -116q0 77 46.5 246t49.5 184l12.5 73l21.5 121t25.5 124.5t31.5 105t32 40.5q9 0 18 -15t9 -26
q0 -44 -27 -126t-27 -126q0 -23 23.5 -30.5t51.5 -5t51.5 -6t23.5 -33.5t-44 -25q-7 0 -23.5 0.5t-25.5 0.5q-48 0 -76.5 -19.5t-28.5 -79.5q0 -30 23.5 -41t51.5 -9t51.5 -6t23.5 -33q0 -15 -16.5 -19t-41.5 -4.5t-51 -4t-49.5 -23.5t-32.5 -58q0 -7 -10.5 -58.5
t-10.5 -57.5l-7 -41q-7 -41 -20 -68.5t-34 -27.5t-21 48z" />
    <glyph glyph-name="dollar" unicode="$" horiz-adv-x="516" 
d="M205 27q-21 15 -57 24.5t-62 15t-46 28t-20 62.5q0 25 9.5 53.5t31.5 28.5l14 -7q51 -123 102 -123h130q42 0 69 43.5t27 86.5q0 47 -36.5 75.5t-88.5 43.5t-104.5 34t-89 60.5t-36.5 107.5q0 42 9 70.5t22.5 41.5t31.5 22.5t35 15t33.5 17.5t25.5 31q1 4 4.5 26t7.5 36
t15 27t27 13q18 0 26 -14.5t8.5 -32.5t8.5 -36.5t26 -25.5q40 -13 56.5 -20t37.5 -21.5t28 -35.5t7 -53v-41q-9 -20 -34 -20q-26 0 -36.5 14t-13.5 34t-9 40t-32 34t-73 14q-61 0 -98.5 -40.5t-37.5 -102.5q0 -36 27.5 -61t68.5 -36.5t88.5 -27t88.5 -32.5t68.5 -53.5
t27.5 -89.5q0 -44 -20 -80t-48.5 -58t-57 -38.5l-49.5 -28.5t-23 -21l-21 -184q0 -5 -8 -16t-12 -11q-21 0 -31 45t-13 103t-4 63z" />
    <glyph glyph-name="percent" unicode="%" 
d="M150 -20q0 30 151.5 395t176.5 396q10 16 14.5 18.5t19.5 2.5q27 0 27 -21q0 -39 -176 -434t-186 -405h-6q-21 0 -21 48zM396 75q0 25 5.5 49t23.5 45.5t46 21.5h109q41 0 61.5 -45t20.5 -91q0 -51 -42 -87t-94 -36q-130 0 -130 143zM444 61q0 -30 21.5 -49t53.5 -19
q39 0 64 18.5t25 56.5q0 75 -89 75q-40 0 -57.5 -20t-17.5 -62zM20 669q0 55 42.5 96t94.5 41q31 0 118 -24t87 -38q0 -18 -26 -23.5t-29 -17.5q-5 -13 -12.5 -38.5t-12.5 -40t-15.5 -34.5t-23 -31t-33 -19t-46.5 -8q-61 0 -102.5 40t-41.5 97zM82 662q0 -68 75 -68
q36 0 62.5 18.5t26.5 56.5q0 39 -22 53.5t-67 14.5q-32 0 -53.5 -20t-21.5 -55z" />
    <glyph glyph-name="ampersand" unicode="&#x26;" horiz-adv-x="686" 
d="M20 225q0 44 16 77.5t39 52.5t46.5 34t39.5 30t16 32v13q-3 5 -14 26.5t-18.5 37.5t-14.5 37.5t-7 35.5q0 66 60.5 104.5t130.5 38.5q40 0 74.5 -16t34.5 -52q0 -34 -48 -34q-13 0 -45 10t-50 10q-36 0 -52 -16t-16 -52q0 -35 21 -73.5t46.5 -65l60 -61t49.5 -53.5
q6 -19 37 -55t38 -61h14q17 0 22.5 20.5t5 44.5t17.5 44.5t57 20.5q75 0 75 -27q0 -15 -15 -28.5t-33.5 -23t-19.5 -10.5q-15 -15 -35 -73t-20 -84q0 -11 10 -22.5t25 -11.5q10 0 27 10.5t27 10.5q16 0 28.5 -8.5t12.5 -19.5q0 -31 -25.5 -56.5t-56.5 -25.5q-20 0 -54 24
t-55 24h-14q-42 -21 -63 -30t-53 -16.5t-68 -7.5q-104 0 -178.5 70t-74.5 175zM109 218q0 -76 50 -123t128 -47q30 0 59.5 5t56.5 23.5t27 46.5q0 59 -48 125.5t-109 120.5q-20 6 -41 6q-58 0 -90.5 -47.5t-32.5 -109.5z" />
    <glyph glyph-name="quotesingle" unicode="'" horiz-adv-x="200" 
d="M61 512q-3 19 -10.5 62t-11.5 69t-8 62.5t-4 65.5q0 20 22 37.5t40 17.5q29 0 55.5 -15.5t26.5 -39.5q0 -31 -14 -90.5t-14 -86.5q0 -4 3.5 -21t3.5 -20v-7q0 -32 -12 -46.5t-42 -14.5q-6 0 -10 0.5t-7.5 3.5t-5 4.5t-6 8.5z" />
    <glyph glyph-name="parenleft" unicode="(" horiz-adv-x="382" 
d="M150 -20q-14 31 -41 84l-42 84.5t-27.5 82.5t-12.5 104q0 78 34 170q21 54 116.5 177.5t136.5 123.5q16 0 28.5 -10t12.5 -25q0 -21 -24 -45t-57 -48t-42 -36q-49 -59 -79 -156t-30 -179q0 -175 89 -293q8 -10 43.5 -42.5t60.5 -63t25 -51.5q0 -19 -7 -23.5t-27 -4.5
q-4 4 -22 18.5t-19 15.5q-15 11 -60.5 56.5t-55.5 60.5z" />
    <glyph glyph-name="parenright" unicode=")" horiz-adv-x="370" 
d="M27 -137q0 6 34 44l75.5 85.5t75.5 113t34 119.5v185q-1 3 -7 24.5t-7.5 26.5l-7 24.5t-8.5 27l-9 23.5t-10.5 25.5l-11 22.5t-13.5 23.5t-15 20.5q-9 11 -44 41t-60.5 59t-25.5 50q0 14 1 21t7.5 13.5t19.5 6.5l13 -7q137 -114 205 -235.5t68 -282.5v-89
q-14 -51 -63 -137t-114 -159t-109 -73q-28 0 -28 27z" />
    <glyph glyph-name="asterisk" unicode="*" horiz-adv-x="652" 
d="M109 300l144 144q13 27 27 27q10 0 15 -11t5 -23q0 -37 -46 -114t-83 -77q-28 0 -34 13zM348 437v7q23 51 39.5 74.5t27.5 32t47.5 26t69.5 37.5q7 3 10.5 12t10.5 9q32 0 53.5 -19t21.5 -49q0 -25 -34 -35.5t-75 -11t-75 -13.5t-34 -43q0 -20 2.5 -26t17.5 -22
q14 -13 96 -95q6 -14 6 -27q0 -19 -18.5 -33.5t-35.5 -14.5h-21q-25 25 -67 94t-42 97zM20 580q11 55 55 55q22 0 110 -44t88 -59t-6 -21t-21 -6q-17 0 -64.5 5t-106 24t-55.5 46zM280 758v27q5 10 20 15.5t28 5.5q54 0 54 -48q0 -43 -16 -124t-38 -81q-18 0 -33 84t-15 121
z" />
    <glyph glyph-name="plus" unicode="+" horiz-adv-x="740" 
d="M14 348q55 55 116 55q4 0 17 -3.5t17 -3.5l27 7h7q4 0 21 -3.5t20 -3.5h7q28 0 47 18t28 42t13 61t4 63t-1.5 61t-1.5 42q6 20 34 20q12 0 26.5 -10t14.5 -24v-239q0 -9 13 -14.5t21 -5.5q18 0 105 -3.5t100 -3.5q3 0 26.5 -3.5t27.5 -3.5q14 -7 14 -27
q0 -21 -16.5 -34.5t-38.5 -13.5l-7 7h-191q-23 0 -35.5 -13t-15.5 -29t-3 -40v-191q-9 -26 -41 -41q-34 27 -34 41l-14 252q0 15 -153.5 23.5t-153.5 17.5z" />
    <glyph glyph-name="comma" unicode="," horiz-adv-x="212" 
d="M27 -177q0 19 27.5 55t27.5 61v27q-13 7 -19 19t-7 21.5t-1 27.5q0 19 19 34t42 21q68 -26 68 -116q0 -69 -20 -89l-96 -89q-41 0 -41 28z" />
    <glyph glyph-name="hyphen" unicode="-" horiz-adv-x="470" 
d="M27 328v20l7 7q14 14 82 14q24 0 72 -3.5t71 -3.5q25 0 67.5 3.5t62.5 3.5q28 0 41.5 -9.5t13.5 -38.5q0 -61 -127 -61q-28 0 -70 3t-49 3h-116q-5 -1 -14 -1q-24 0 -32.5 16t-8.5 47z" />
    <glyph glyph-name="period" unicode="." horiz-adv-x="236" 
d="M27 -14q0 38 24 70.5t58 32.5q36 0 63.5 -23t32.5 -59l-7 -27l-61 -62q-34 0 -72 19t-38 49z" />
    <glyph glyph-name="slash" unicode="/" horiz-adv-x="438" 
d="M27 -109q0 37 12 73.5t33.5 82.5t29.5 69q34 85 111.5 322.5t134.5 360.5q7 13 27 13q15 0 25 -12.5t10 -28.5q0 -36 -19 -81t-46.5 -96.5t-37.5 -81.5l-150 -416q-5 -15 -13 -61t-15.5 -80t-28.5 -63t-52 -29q-21 0 -21 28z" />
    <glyph glyph-name="zero" unicode="0" horiz-adv-x="550" 
d="M20 382q0 128 41 253q4 5 18 24t18 23.5t16.5 20.5t18 20.5t18.5 16.5t21 16l22 11.5t26 10t28 5t33 2.5q59 0 104 -27.5t71.5 -69t43 -97.5t22 -106t5.5 -103q0 -48 -5.5 -96t-21.5 -102.5t-40.5 -95.5t-67 -68t-97.5 -27q-76 0 -131.5 35t-85.5 94t-43.5 123.5
t-13.5 136.5zM109 375q0 -35 1.5 -62t6 -67t15 -69.5t27 -57.5t44 -43t63.5 -15q51 0 88 27.5t55.5 73t26.5 91.5t8 95q0 8 -3.5 19.5t-3.5 14.5q0 10 3.5 30.5t3.5 31.5q0 42 -9 87.5t-27.5 90.5t-53.5 73.5t-81 28.5q-164 0 -164 -349z" />
    <glyph glyph-name="one" unicode="1" horiz-adv-x="516" 
d="M68 7l-6 3t-5 3t-3.5 3t-3.5 4t-1.5 5.5t-0.5 8.5t1.5 8.5t4 6t9 8t12.5 11.5q11 0 28 -3.5t27 -3.5q68 0 68 21v614h-143q-10 0 -19 12t-9 22t8.5 19t19.5 9q18 2 58.5 9.5t76.5 12.5t63 5q12 0 27 -27q7 -62 7 -157q0 -31 -3.5 -92.5t-3.5 -92.5v-6l7 -28v-7l-7 -27v-7
l7 -27q0 -10 -3.5 -27t-3.5 -28v-6l7 -28q0 -3 -3.5 -20t-3.5 -21v-27q0 -42 11 -66.5t44 -29.5q10 0 61 -3t61 -3q35 0 35 -28q0 -27 -239 -27q-110 0 -185 7z" />
    <glyph glyph-name="two" unicode="2" horiz-adv-x="528" 
d="M20 34q0 28 36.5 73t89 98.5t104.5 113.5t88.5 133.5t36.5 141.5q0 59 -32.5 94.5t-96.5 35.5q-39 0 -65.5 -24.5t-37.5 -54t-24 -54t-27 -24.5h-3q-41 12 -41 41q0 72 72.5 124.5t145.5 52.5q81 0 143 -64.5t62 -147.5q0 -40 -15 -75t-37.5 -61t-46 -49t-44 -49.5
t-28.5 -51.5q-3 -3 -27.5 -30l-46.5 -50.5t-28 -29.5l-12 -16l-14 -19t-10 -18.5t-5 -21.5v-6q72 -21 171 -21q20 0 72 7l51 7l20 7h7q10 0 18.5 -8.5t8.5 -19.5q0 -26 -18 -47t-43 -21l-28 7l-27 -7h-7q-13 0 -40.5 3.5t-41.5 3.5q-20 0 -62.5 -3.5t-66.5 -3.5
q-1 0 -9 -0.5t-20.5 -1t-23.5 -0.5q-98 0 -98 36z" />
    <glyph glyph-name="three" unicode="3" horiz-adv-x="528" 
d="M20 41v7q3 6 13.5 11t18.5 7l9 2q58 -41 164 -41q88 0 136.5 47t48.5 138q0 58 -31 94t-68 46.5t-68 21t-31 22.5q0 13 25.5 23.5t56 20.5t56 43t25.5 84q0 59 -35 101t-94 42q-25 0 -45 -17t-31 -37.5t-27 -37.5t-34 -17q-20 0 -27 6t-7 21q0 63 55.5 103t122.5 40
q86 0 145 -60.5t59 -143.5q0 -33 -27 -84t-27 -73q0 -15 16 -39t35 -46.5t35 -57t16 -69.5q0 -75 -42 -129t-104 -78.5t-134 -24.5q-28 0 -72 6.5t-88.5 25t-44.5 43.5z" />
    <glyph glyph-name="four" unicode="4" horiz-adv-x="618" 
d="M48 164q-28 27 -28 75q0 30 64.5 168t137.5 265t92 127q14 0 20.5 -10.5t6.5 -23.5q0 -41 -37.5 -116.5t-82 -145t-82 -142t-37.5 -108.5q0 -29 101 -29h85q101 0 101 42v171q0 17 11 32.5t30 15.5q15 0 27 -28q0 -75 14 -211q7 -11 29 -16.5t43.5 -7t37 -10.5t13.5 -28
q0 -3 -3.5 -8t-6.5 -8l-4 -4l-95 -14q-11 -2 -13.5 -29.5t-2 -58.5t-10.5 -56.5t-36 -25.5q-18 0 -25.5 9t-9.5 23.5t-3 32.5t-8.5 36.5t-22.5 34.5t-50 27t-86 14q-14 0 -85 3.5t-85 3.5z" />
    <glyph glyph-name="five" unicode="5" horiz-adv-x="528" 
d="M20 27q-4 9 11.5 18.5t23.5 9.5q23 0 64 -7t65 -7q102 0 164 64.5t62 167.5q0 54 -35.5 112.5t-87.5 58.5h-171q-5 0 -12.5 10.5t-7.5 16.5v82q0 2 -2 42t-1.5 67.5t9.5 58t28 37.5q20 0 139.5 6.5t140.5 6.5h6q15 0 25 -12.5t10 -28.5q0 -14 -19 -24t-36 -10
q-13 0 -85 -3.5t-86 -3.5q-18 -2 -30 -9t-18 -15.5t-9 -25t-3.5 -27t-0.5 -32.5q0 -3 -0.5 -14t0 -17t2 -14t6 -12t12.5 -4l144 -14q67 -5 122 -81.5t55 -143.5q0 -139 -90 -219.5t-224 -80.5h-31q-128 0 -140 47z" />
    <glyph glyph-name="six" unicode="6" horiz-adv-x="528" 
d="M20 328q0 81 25 162t70.5 149t119 110.5t161.5 42.5q10 0 18.5 -8.5t8.5 -18.5q0 -9 -31 -23.5l-75 -36.5t-88 -53t-75 -83.5t-31 -117.5q0 -6 4.5 -13.5t9.5 -7.5q31 0 85 27.5t85 27.5q71 0 134.5 -66.5t63.5 -138.5q0 -79 -25 -145t-82.5 -110.5t-138.5 -44.5
q-61 0 -108.5 33.5t-75 87t-41.5 112t-14 115.5zM123 239q0 -79 39 -138.5t111 -59.5q41 0 70 20t42.5 53.5t19 67t5.5 71.5v68q-10 46 -52 67.5t-92 21.5q-71 0 -107 -51t-36 -120z" />
    <glyph glyph-name="seven" unicode="7" horiz-adv-x="504" 
d="M130 7q0 14 5 31.5t10 28.5t16.5 33.5t15.5 29.5l47.5 106.5l71.5 161t58 146t28 105.5q0 21 -68.5 28t-156.5 7.5t-109 4.5q-21 11 -21 41q0 16 34 28q48 0 137 3.5t137 3.5h13q7 0 48 -3.5t48 -3.5q23 -9 28.5 -22.5t5.5 -39.5q0 -24 -132 -362.5t-148 -360.5
q-14 -14 -41 -14t-27 48z" />
    <glyph glyph-name="eight" unicode="8" horiz-adv-x="550" 
d="M27 218q0 38 21.5 74.5t47 58.5l47 40.5t21.5 24.5v7l-9 9q-32 32 -48.5 51t-34 54t-17.5 71l34 102q14 37 77 63t107 26q85 0 148.5 -53.5t63.5 -137.5q0 -36 -14 -67.5t-28.5 -48t-46.5 -48.5v-7q0 -11 20.5 -34.5l44.5 -49.5t44.5 -65t20.5 -76q0 -94 -78 -156.5
t-175 -62.5q-102 0 -174 61t-72 164zM109 218q0 -76 42.5 -119.5t114.5 -43.5q73 0 118.5 44t45.5 119q0 63 -45.5 110t-111.5 47q-73 0 -118.5 -43t-45.5 -114zM143 601q0 -57 38 -93.5t99 -36.5q58 0 94 35t36 95q0 37 -26 83t-63 46h-96q-28 0 -48 -24.5t-27 -52.5
t-7 -52z" />
    <glyph glyph-name="nine" unicode="9" horiz-adv-x="516" 
d="M75 -7v7q0 10 55.5 30.5t119 50.5t78.5 62l54 110v68l-7 7q-15 0 -65 -19t-64 -22q-100 0 -163 72.5t-63 172.5q0 105 67 179t172 74q53 0 95 -21.5t67.5 -55t42 -78.5t22.5 -89t6 -90v-96l-25.5 -76t-29.5 -74t-37 -73t-46 -62t-58 -52t-71 -32t-88 -13q-30 0 -62 20z
M109 519q0 -64 40 -110.5t104 -46.5q44 0 93.5 27t49.5 68v144q0 54 -44.5 88.5t-98.5 34.5q-51 0 -85.5 -34t-46.5 -77.5t-12 -93.5z" />
    <glyph glyph-name="colon" unicode=":" horiz-adv-x="190" 
d="M27 20q0 6 22.5 30.5t32.5 24.5q32 0 53.5 -19t21.5 -49q0 -41 -61 -41h-35q-11 6 -22.5 23t-11.5 31zM27 341q0 24 19.5 39.5t42.5 15.5t45.5 -15.5t22.5 -39.5q0 -19 -8.5 -31t-26 -16.5t-29.5 -5.5t-32 -1q-34 34 -34 54z" />
    <glyph glyph-name="semicolon" unicode=";" horiz-adv-x="231" 
d="M48 -171q0 21 27 52t27 51q0 16 -22.5 49.5t-24.5 38.5q7 9 11.5 27t12.5 26.5t30 8.5q29 0 59 -16t30 -39v-88l-18.5 -29.5t-26 -39.5t-26 -35t-30.5 -30t-29 -10q-20 0 -20 34zM27 341q0 27 23 54.5t52 27.5q35 0 55 -22.5t20 -59.5t-24.5 -62.5t-63.5 -25.5
q-23 0 -42.5 32t-19.5 56z" />
    <glyph glyph-name="less" unicode="&#x3c;" horiz-adv-x="352" 
d="M20 307q0 15 4.5 22.5t16.5 18.5q7 6 94.5 75.5l103.5 81.5q33 0 61 -10.5t28 -37.5q0 -23 -20.5 -39t-44.5 -24t-44.5 -21.5t-20.5 -31.5v-75q0 -20 19 -34t42.5 -20.5t42.5 -20.5t19 -34q0 -33 -13 -44t-42 -11q-24 0 -83.5 38t-111 88.5t-51.5 78.5z" />
    <glyph glyph-name="equal" unicode="=" horiz-adv-x="618" 
d="M27 266q0 18 21 28q75 6 205 6q218 0 327 -13q14 -14 14 -28q0 -13 -7 -13q-300 -14 -362 -14h-43q-155 0 -155 34zM34 430q0 30 15 39t46 9h28h150h157q6 0 52 -3.5t57 -3.5q5 0 14 0.5t12 0.5q15 0 22 -5.5t7 -22.5q0 -12 -5 -20t-11 -12t-18 -6t-19.5 -2.5t-21.5 -0.5
h-458q-27 0 -27 27z" />
    <glyph glyph-name="greater" unicode="&#x3e;" horiz-adv-x="352" 
d="M157 300q0 32 -19 55t-42.5 32.5t-42.5 24t-19 32.5q0 21 1 30t9 16.5t24 7.5q44 0 152 -79.5t108 -118.5q0 -21 -28 -47q-9 -7 -92 -76.5t-99 -80.5q-30 0 -59.5 11.5t-29.5 35.5v14q0 16 21.5 29.5t47 24t47 34t21.5 55.5z" />
    <glyph glyph-name="question" unicode="?" horiz-adv-x="426" 
d="M143 55q0 33 24 60.5t58 27.5q24 0 46.5 -26.5t22.5 -48.5q0 -42 -23 -55t-66 -13h-41q-14 10 -17.5 20.5t-3.5 34.5zM164 273q0 22 7 43t26.5 56t20.5 38q43 19 66 71.5t23 105.5q0 109 -48 109h-102q-22 0 -31 -23.5t-9 -51.5t-13 -51.5t-43 -23.5q-23 0 -28.5 13.5
t-5.5 41.5q0 64 60.5 117t124.5 53q39 0 72 -14.5t51.5 -30t53.5 -50.5q14 -34 14 -68q0 -42 -17 -80.5t-42 -70l-50 -62t-45 -69.5t-24 -80q-7 -14 -27 -14q-19 0 -26.5 10t-7.5 31z" />
    <glyph glyph-name="at" unicode="@" horiz-adv-x="674" 
d="M184 -102q-164 123 -164 430q0 74 18.5 151t54.5 149t101 118t147 46q78 0 147 -28.5t115 -89t46 -142.5q0 -39 -27.5 -126t-27.5 -133q0 -30 9.5 -49.5t21 -26.5t21 -17t9.5 -23t-13.5 -20t-27.5 -7q-18 0 -43.5 13.5t-38.5 13.5q-15 0 -46.5 -15t-41.5 -26h-34
q-78 0 -128 47t-50 124q0 95 53 167t145 72q17 0 54.5 -7t54.5 -7q9 0 14 0.5t9.5 5.5t4.5 14q0 102 -51 150t-154 48q-69 0 -121.5 -28.5t-83 -72t-50 -104.5t-26 -118t-6.5 -120q0 -60 14 -122.5t41.5 -122t77.5 -103t113 -55.5q10 -2 78.5 -5.5t124.5 -10t56 -18.5
q0 -41 -150 -41q-120 0 -212 61q-8 6 -15 15t-19 13zM294 314q0 -54 13 -86t55 -51h48q136 0 136 205q0 40 -36.5 68t-79.5 28q-62 0 -99 -51t-37 -113z" />
    <glyph glyph-name="A" unicode="A" horiz-adv-x="740" 
d="M20 20q0 11 38 47.5t44 48.5q17 34 76 197.5t112.5 297t71.5 133.5q23 0 79 -143l116.5 -312.5t84.5 -206.5q5 -11 43.5 -27t38.5 -35q0 -31 -69 -31q-18 0 -44.5 2t-30.5 2q-2 0 -16.5 -0.5t-25.5 -0.5q-87 0 -87 22q0 16 15 24t32.5 10.5t32.5 12.5t15 28
q0 40 -17.5 77.5t-50.5 51.5q-136 14 -191 14q-58 0 -77 -31t-19 -99v-27q7 -9 22.5 -13t30 -5t25.5 -6t11 -17q0 -41 -156 -41h-42q-62 0 -62 27zM259 294q7 0 41.5 -3.5t40.5 -3.5h14h14q6 0 40.5 3.5t41.5 3.5q13 6 13 27v14q-6 17 -19 59l-20.5 64.5t-21.5 55.5t-28 59
h-13q-27 0 -65 -105t-38 -140v-34z" />
    <glyph glyph-name="B" unicode="B" horiz-adv-x="594" 
d="M27 14q0 20 35.5 37.5t39.5 23.5q21 165 21 225q0 27 -3.5 80t-3.5 84q0 24 3.5 72t3.5 72q0 23 -15 35t-33 14.5t-33 11.5t-15 27q0 14 14 21q10 0 71.5 3.5t71.5 3.5h21q35 0 54.5 -0.5t56.5 -3.5t59.5 -9t51.5 -18t45.5 -29t28 -43.5t11.5 -60.5q0 -76 -89 -150v-7
q0 -13 23.5 -33.5t51.5 -41.5t51.5 -58t23.5 -79q0 -69 -50.5 -125.5t-119.5 -72.5q-14 0 -89 -3.5t-89 -3.5h-27q-2 0 -27 -1t-42 -1q-102 0 -102 30zM205 68q20 -20 41 -20h123q46 0 77.5 54t31.5 103q0 75 -68 116t-151 41l-47 -7l-7 -7q-7 -54 -7 -143t7 -137zM205 430
q10 -15 35 -15q74 0 128.5 34t54.5 104q0 67 -37 91.5t-106 24.5h-48q-6 0 -11 -3.5t-9.5 -9t-6.5 -7.5q-7 -41 -7 -117q0 -61 7 -102z" />
    <glyph glyph-name="C" unicode="C" horiz-adv-x="584" 
d="M20 348q0 52 12.5 105.5t38.5 103t61.5 88t84.5 62t104 23.5q232 0 232 -47l7 -151q0 -13 -14 -20t-27 -7q-11 0 -19 16t-17 39.5t-23 46.5t-44.5 39t-74.5 16q-66 0 -111 -27t-67.5 -76t-31 -100.5t-8.5 -117.5q0 -32 3 -65t13 -75.5t26.5 -75t46 -55t68.5 -22.5h109
q33 0 55 27.5t31.5 61t22 61t28.5 27.5q10 0 22 -12t12 -22v-116q0 -31 -99 -66.5t-133 -35.5q-72 0 -131.5 32.5t-97.5 86t-58.5 120t-20.5 136.5z" />
    <glyph glyph-name="D" unicode="D" horiz-adv-x="652" 
d="M34 14q0 14 37.5 27.5t44.5 26.5q0 34 7 229t7 229v47v41q-2 18 -19 28t-35.5 12.5t-33.5 10.5t-15 24q0 15 15.5 25t32.5 10q60 0 107 -2.5t101 -8.5t95.5 -18.5t83.5 -31.5t72 -48t53.5 -67t35.5 -90.5t12 -116.5q0 -54 -24.5 -130t-72 -142t-101.5 -76q-40 -8 -114 -8
q-18 0 -53.5 0.5t-51.5 0.5h-150q-34 14 -34 28zM212 75q0 -28 53 -28q6 0 13.5 0.5t8.5 0.5q64 0 112.5 25.5t76.5 69.5t42 97.5t14 114.5q0 122 -61.5 208t-176.5 86q-76 0 -76 -14l-6 -41q0 -20 -3.5 -126t-3.5 -127q0 -3 -3.5 -44t-3.5 -44v-7q0 -4 3.5 -28t3.5 -27
q0 -10 3.5 -57.5t3.5 -58.5z" />
    <glyph glyph-name="E" unicode="E" horiz-adv-x="618" 
d="M55 0q-14 14 -14 20l7 14q4 4 27.5 14t26.5 13q3 0 6.5 3.5t5.5 7.5l2 3v498l-7 76q0 9 -13 13t-28 5t-28 8t-13 21q0 21 7 21q116 7 266 7q144 0 260 -7q9 -5 18 -26.5t9 -28.5q0 -33 -14 -78t-41 -45q-10 0 -15.5 16.5t-10.5 36.5t-31 39.5t-72 23.5q-41 7 -89 7
q-55 0 -96 -7q-2 -17 -7.5 -55t-9 -70t-3.5 -59q0 -16 4.5 -27t10 -16.5t18.5 -8t21.5 -3t27.5 -0.5q30 0 49.5 8t27.5 19t13 22t12.5 19t20.5 8q20 0 20 -28q0 -27 -6.5 -91.5t-6.5 -92.5l-7 -14h-7q-12 8 -29.5 41t-18.5 34q-27 14 -75 14h-48q-14 -12 -21 -35t-8 -39.5
t0.5 -47t1.5 -35.5q0 -1 -1.5 -26t-1.5 -43.5t5.5 -39.5t17.5 -28q48 -6 110 -6h39q134 0 145 34l34 102q0 7 21 7q34 0 34 -109q0 -8 -3.5 -37t-3.5 -32q-27 -23 -34 -27h-198q-19 0 -70.5 -1t-80.5 -1q-99 0 -156 9z" />
    <glyph glyph-name="F" unicode="F" horiz-adv-x="640" 
d="M48 20q0 21 19 29t41.5 13.5t28.5 19.5q15 37 18.5 87t-1 120t-4.5 86q0 164 -7 260q0 20 -19 28.5t-42.5 8t-42.5 6.5t-19 25q21 21 76 21q24 0 160 3t160 3h89h82q34 0 34 -81q0 -3 0.5 -17.5t0 -23.5t-1 -24.5t-3 -25t-6 -19.5t-10 -15t-14.5 -5q-16 0 -25 15.5
t-11 34.5t-8 39t-17 27q-55 34 -232 34h-41q-12 -9 -18 -27t-6 -32t1.5 -38.5t1.5 -32.5q0 -10 -0.5 -30.5t-0.5 -29.5t1.5 -24.5t6 -22t12 -15t20 -11.5t29.5 -3q35 0 58.5 15t31.5 32.5t16.5 32.5t16.5 15q9 0 15 -7t6 -13v-219q0 -13 -14 -13q-10 0 -18 16t-15 35
t-35.5 35t-74.5 16q-10 0 -18.5 -2t-14.5 -4t-11 -7.5t-8 -9.5t-5 -13l-3 -13.5t-1.5 -16.5t-0.5 -17.5v-19.5v-20q0 -7 3.5 -15.5t3.5 -11.5q0 -7 -3.5 -17.5t-3.5 -16.5q0 -89 34 -96l96 -20q7 0 7 -21q0 -8 -1 -11.5t-5.5 -8t-14.5 -7.5q-68 -7 -157 -7q-4 0 -29 -2
t-42 -2q-65 0 -65 31z" />
    <glyph glyph-name="G" unicode="G" horiz-adv-x="640" 
d="M20 348q0 139 64 246t189 136h68q5 0 27 0.5t36 0.5q183 0 183 -69v-7q0 -20 -7 -71l-7 -52q0 -15 -9 -24.5t-25 -9.5q-13 0 -24 26.5t-20 59t-31 59t-54 26.5h-123q-44 0 -81.5 -42.5t-56 -90t-26.5 -92.5v-89q0 -130 32.5 -197t138.5 -110h109l68 34q7 14 7 20v48
q0 34 -8.5 54t-21.5 25t-28 7t-28 1.5t-21.5 6t-8.5 22.5q0 32 69 32q17 0 41 -2t26 -2l22 2q21 2 37 2q64 0 64 -32q0 -10 -12 -22t-25.5 -35t-16.5 -59q0 -6 -3.5 -47t-3.5 -48q-5 -9 -67 -32t-70 -23q-11 -6 -41.5 -16.5t-40.5 -10.5q-151 0 -236 109.5t-85 265.5z" />
    <glyph glyph-name="H" unicode="H" horiz-adv-x="674" 
d="M41 7q27 38 50 47q10 3 13 16t12 87l7 34v7q0 4 -3.5 24t-3.5 24v307q0 3 3.5 17t3.5 17v7q0 23 -15 35.5t-33 15.5t-33 10.5t-15 20.5q0 36 55 36q8 0 22.5 -1t18.5 -1q2 0 14.5 0.5t22.5 0.5q99 0 99 -28q0 -16 -18.5 -29t-22.5 -19q-8 -14 -12.5 -30t-6 -36.5
t-2 -33.5t0 -38t0.5 -33v-7l7 -47l20 -14h232q8 0 14 4.5t9 10t4 15t1.5 15t0 14t-0.5 9.5q0 66 -4.5 103.5t-11.5 50t-18.5 16.5t-22.5 2t-26 7.5t-27 32.5q27 34 110 34q10 0 64.5 -7t64.5 -7q2 1 5 1q9 0 9 -21v-14q-5 0 -23.5 -10.5t-24.5 -16.5l-7 -14v-566
q0 -8 22 -13.5t42.5 -14.5t17.5 -27q-5 -28 -82 -28h-57q-86 0 -86 28q0 18 22.5 35t25.5 33q0 14 3.5 92.5t3.5 92.5v27v20l-7 7q-15 15 -139 15h-111q-17 0 -23 -22q-7 -54 -7 -129q0 -62 7 -116q8 -11 29 -16.5t37 -13t16 -25.5q0 -27 -82 -27h-28q-3 0 -20 3.5t-20 3.5
l-35 -7h-6q-21 0 -55 34z" />
    <glyph glyph-name="I" unicode="I" horiz-adv-x="540" 
d="M61 34q0 11 10 19t25 8h81q7 0 28 21q0 30 6.5 204.5t6.5 205.5q0 3 3.5 37t3.5 38v13v7q0 3 -6.5 24t-6.5 24q-11 8 -60 13.5t-90.5 14.5t-41.5 26q0 10 12 19t23 9q102 13 307 13h30q86 0 86 -34q0 -27 -39.5 -36t-80.5 -10t-44 -8l-7 -14q-7 -109 -7 -157
q0 -250 7 -375q4 -24 28 -32t65 -8h42q37 0 57 -7t20 -29q0 -9 -7.5 -14.5t-13.5 -5.5q-7 0 -32.5 -3.5t-28.5 -3.5h-348q-14 0 -21 13.5t-7 27.5z" />
    <glyph glyph-name="J" unicode="J" horiz-adv-x="618" 
d="M287 -27q-5 1 -35.5 4.5t-40.5 5t-38.5 6.5t-40 10t-34 13.5t-33 19t-23 24.5t-17.5 33t-5 41t10.5 42t30.5 20q4 0 7 -1q14 -2 25 -17.5t22.5 -36t30 -41t58 -34.5t96.5 -14q42 0 71.5 27.5t24.5 67.5v198q0 9 1.5 83.5t-0.5 122.5t-8 88q-9 17 -54.5 25.5t-75.5 8.5
q-13 7 -13 20q0 5 0.5 9t1.5 6t3.5 4t3.5 3t5 3l6 3q10 0 68 3.5t69 3.5h20h21q10 0 64.5 -3.5t64.5 -3.5q6 0 13.5 -4.5t7.5 -9.5q0 -23 -16.5 -32t-36.5 -8t-39 -7t-24 -28v-96q0 -44 3.5 -129t3.5 -130v-14q0 -10 -3.5 -71t-3.5 -72q-8 -31 -20.5 -52.5t-31 -34
t-35.5 -20.5t-44 -19.5t-47 -23.5z" />
    <glyph glyph-name="K" unicode="K" horiz-adv-x="718" 
d="M239 321q-27 0 -27 -62l-4 -57q-3 -56 -3 -72v-14q0 -25 16 -39t35 -17.5t35 -14.5t16 -31q0 -9 -19 -15t-29 -6h-184q-11 0 -21.5 12.5t-5.5 21.5q4 16 30 28t31 20q7 130 7 376v143l-7 61q-4 1 -30 5t-42.5 12.5t-16.5 23.5q0 34 82 34q8 0 41 2.5t52 2.5q78 0 78 -32
q0 -11 -11.5 -20.5t-26 -18.5t-26 -32.5t-11.5 -58.5q0 -19 5.5 -63.5t1.5 -79.5q1 -2 4 -8.5l4.5 -10t4.5 -7.5t6.5 -6t7.5 -2q14 0 21 7q15 10 60 55t56 61q68 68 68 109q0 15 -12 26t-24 19t-12 16q0 7 2.5 12.5t5 9t8 7.5t8 5t9.5 4t8 3q24 -2 30 -2q19 0 46 4.5t47 4.5
q24 0 49.5 -9.5t25.5 -31.5q0 -6 -32.5 -35l-71.5 -61.5t-46 -39.5q-15 -15 -62.5 -71t-74.5 -79v-21q0 -16 10 -33t11 -21q34 -32 105 -129t120 -131q9 -7 40 -11.5t53.5 -15t22.5 -34.5q0 -14 -13.5 -21t-27.5 -7q-7 0 -23.5 -0.5t-24.5 -0.5q-51 0 -75 15q-26 18 -67 73
t-76 108.5t-78.5 96.5t-78.5 43z" />
    <glyph glyph-name="L" unicode="L" horiz-adv-x="674" 
d="M75 0q-27 14 -27 27v7q13 10 52.5 20.5t49.5 20.5q0 37 7 245.5t7 246.5v34v34q-9 20 -43.5 24t-64 9t-29.5 28q0 16 9.5 25t24.5 9h267q11 0 22.5 -9.5t11.5 -24.5q0 -17 -27.5 -22.5t-56.5 -14t-32 -31.5v-55v-61l7 -27q0 -3 -3.5 -34t-3.5 -35v-143v-150
q3 -25 8.5 -39t20.5 -20.5t28.5 -7.5t44.5 -1q79 0 129 12.5t68 31.5t26 41t6.5 41t6.5 31.5t30 12.5q14 0 28 -27q0 -16 6.5 -79.5t6.5 -84.5q0 -24 -20 -36t-48 -12q-32 0 -96 -0.5t-96 -0.5q-197 0 -320 15z" />
    <glyph glyph-name="M" unicode="M" horiz-adv-x="776" 
d="M485 34q0 23 38 33t44 22q13 221 13 314q0 2 1.5 32.5t1.5 52.5t-5.5 47t-17.5 32q-27 -47 -74 -139t-63 -121q-6 -3 -16 -22t-18 -19q-14 0 -27.5 12t-20 24.5t-16 34t-11.5 25.5l-89 177h-13q-10 0 -17 -9t-11 -24t-6 -32.5t-2.5 -37t0 -33.5l1 -27t0.5 -14
q0 -17 -2.5 -61t-3 -73t6 -65.5t20.5 -60.5q6 -11 23 -18.5t32.5 -11t28 -15t12.5 -30.5q0 -3 -5 -6.5t-11 -4.5l-5 -2q-26 -9 -59 -9q-9 0 -30 1t-34 1h-82q-20 11 -20 27q0 20 25.5 38.5t28.5 23.5q21 183 21 382v7q0 14 -3.5 88.5t-3.5 88.5q-6 11 -51 25t-45 37
q0 21 61 21q9 0 21 -0.5t14 -0.5q51 0 88.5 -37.5t58.5 -90.5t38 -106t38.5 -90.5t49.5 -37.5q21 0 42.5 34t40.5 85t20 52l20 60.5t20 62.5q3 3 10.5 16.5l14.5 25.5t10 12h170q9 0 15 -7t6 -13q0 -16 -15 -25t-33.5 -11.5t-35.5 -10t-19 -21.5v-110q0 -3 -3 -23t-3 -24
l6 -34v-7q0 -14 -3 -41.5t-3 -40.5q0 -17 3 -48t3 -48q0 -14 -3 -39.5t-3 -35.5q0 -49 11 -77t27.5 -36t32.5 -11.5t27 -11.5t11 -28q0 -28 -70 -28q-203 0 -203 35zM758 696q5 0 5 -6.5t-5 -6.5t-5 6.5t5 6.5z" />
    <glyph glyph-name="N" unicode="N" horiz-adv-x="662" 
d="M191 553q-20 0 -20 -7q-7 -54 -7 -177q0 -151 13 -253q5 -20 24.5 -31t39.5 -13.5t36.5 -13t16.5 -31.5q0 -34 -126 -34h-38h-29q-74 0 -74 34q0 14 14 24l29.5 20.5t18.5 24.5q5 33 7 80.5t1.5 83t-1 87.5t-0.5 69v212q2 18 -9.5 27t-26.5 10t-27.5 8t-12.5 23
q0 22 14 34h34q6 0 23 0.5t27 0.5q50 0 73 -14q20 -11 62.5 -88.5t83.5 -163.5t87 -156t74 -70h7q7 55 7 164q0 14 1.5 54.5t1.5 65.5t-5.5 57.5t-17.5 54.5q-6 11 -51 24.5t-45 36.5q0 21 7 21q48 7 109 7q68 0 123 -7q7 0 7 -21q0 -16 -15.5 -31.5t-31 -39t-15.5 -58.5v-7
q7 -28 7 -34q0 -4 -3.5 -31t-3.5 -31v-82q0 -44 3.5 -132.5t3.5 -133.5q0 -68 -7 -109q-10 -21 -41 -21q-18 0 -67.5 88.5t-101 195t-104 195t-75.5 88.5z" />
    <glyph glyph-name="O" unicode="O" horiz-adv-x="628" 
d="M20 369q0 69 15.5 132t47.5 118t87.5 92t129.5 47q20 2 29 2q53 0 100 -27t79 -70t55 -96t34 -106t11 -99q0 -102 -33.5 -184t-106 -133.5t-174.5 -51.5q-57 0 -104 23t-78 60t-52.5 86.5t-30.5 101.5t-9 105zM116 369q0 -308 191 -308q61 0 103.5 29t63.5 78.5t29.5 99
t8.5 107.5q0 73 -18 130t-57 130q-12 4 -58.5 26t-78.5 22q-184 0 -184 -314z" />
    <glyph glyph-name="P" unicode="P" horiz-adv-x="628" 
d="M48 7q0 18 15 27.5t32.5 11.5t32.5 8.5t15 20.5v574q0 14 -8.5 21.5t-19 9t-27.5 1.5h-16q-45 0 -45 22q0 34 14 34l55 7h122q13 0 41 0.5t42 0.5q54 0 91 -3t81.5 -15t71 -33t45 -60.5t18.5 -94.5q0 -76 -35.5 -123.5t-87.5 -64.5t-104 -24t-93.5 -14.5t-48.5 -25.5
q-5 -10 -7 -26.5t-2 -30.5t1 -31.5t1 -21.5v-75q0 -27 22.5 -38.5t49 -11t49 -7.5t22.5 -31q0 -34 -75 -34h-27q-3 0 -17 3t-17 3q-4 0 -21 -3t-20 -3h-61h-62q-27 12 -27 27zM246 389l7 -7q41 -7 61 -7q28 0 56.5 4t61 14t53 32t20.5 53v109q0 26 -20.5 45.5t-51 30
t-59.5 15.5t-53 5l-68 -7l-7 -7v-280z" />
    <glyph glyph-name="Q" unicode="Q" horiz-adv-x="650" 
d="M20 375q0 113 35 189t122 153q85 27 130 27q77 0 136 -32.5t94.5 -87.5t53 -121.5t17.5 -140.5q0 -49 -1.5 -79.5t-13 -75.5t-33.5 -70q-8 -10 -42 -41t-57.5 -60t-23.5 -50q0 -54 61.5 -102t115.5 -48q14 -7 14 -20q0 -27 -47 -51t-69 -24h-14q-71 157 -150 218
q-22 18 -71.5 23.5t-71.5 17.5q-185 101 -185 375zM109 362q0 -60 9.5 -112t32 -101.5t66 -78.5t104.5 -29q58 0 99.5 31t61.5 82t28.5 102t8.5 106q0 58 -8.5 108.5t-30 101.5t-66 81t-107.5 30q-198 0 -198 -321z" />
    <glyph glyph-name="R" unicode="R" horiz-adv-x="720" 
d="M396 232q-17 17 -51 48t-51 48h-82q-7 -34 -7 -48v-89v-89q0 -32 19 -47t42.5 -16t42.5 -7.5t19 -24.5q0 -14 -7 -14h-266q-7 0 -7 21q0 14 9.5 22.5t21.5 12.5t23.5 14t13.5 26q7 116 7 314q0 170 -7 259q-8 8 -52 15t-44 26q0 9 5.5 17t9.5 11t14.5 8t11.5 5h48
q16 0 55.5 -3.5t60.5 -3.5q15 0 40.5 3.5t34.5 3.5h7q20 0 75 -7l55 -7q8 -1 17 -4.5t18 -9.5t15.5 -11t16 -14t13.5 -12.5t13 -13t9 -10.5q15 -19 24.5 -54t9.5 -62q0 -36 -18 -69t-44 -55t-52.5 -39t-44.5 -27.5t-18 -13.5q0 -9 34.5 -50.5l74.5 -88t48 -59.5
q3 -3 9.5 -16.5l14.5 -31t10 -21.5q6 -3 38 -13t51.5 -21.5t19.5 -26.5q0 -27 -27 -27h-109q-40 0 -109 143zM225 676q-20 -22 -20 -62v-170q0 -26 11 -35t32 -9q8 0 26 1.5t26 1.5q87 0 129 28.5t42 114.5q0 137 -184 137q-3 0 -31 -3.5t-31 -3.5z" />
    <glyph glyph-name="S" unicode="S" horiz-adv-x="558" 
d="M20 89v9v14v16t1.5 17.5t3 17.5t5 16.5t7.5 13t10 9.5t14 3q9 0 17.5 -17l20 -41t30 -48t56 -41t88.5 -17q75 0 123 33.5t48 109.5q0 46 -23 77t-60 47t-81 28l-88.5 25t-81.5 31t-60 53.5t-23 86.5q0 107 81 166.5t192 59.5q6 0 32 1t43 1q137 0 137 -64
q0 -10 -3.5 -23.5t-3.5 -23.5q0 -11 3.5 -28t3.5 -27q0 -21 -14 -42.5t-34 -25.5q-25 20 -37 45.5t-15.5 44.5t-14 36.5t-42 27t-89.5 9.5q-143 0 -143 -122q0 -48 23 -80.5t59.5 -49t81 -28.5t89 -26.5t81 -35.5t59.5 -62t23 -101q0 -77 -59.5 -132.5t-138.5 -71.5h-82h-82
q-3 0 -23 3t-24 3t-21 -3t-20 -3h-14q-19 0 -31.5 10t-17 30t-5.5 33.5t-1 35.5z" />
    <glyph glyph-name="T" unicode="T" horiz-adv-x="662" 
d="M157 14q0 20 32.5 26.5t65 12t32.5 22.5v574q0 14 -46 14q-9 0 -22 -0.5t-14 -0.5q-40 0 -63 -17t-30.5 -41t-11 -48t-12 -41t-27.5 -17q-41 0 -41 137q0 95 55 95h539q9 0 18.5 -22.5t9.5 -31.5v-144q0 -10 -9 -18.5t-19 -8.5q-22 0 -31 17t-11 41t-8.5 48t-33 41
t-73.5 17q-82 0 -82 -41v-539q0 -23 24 -33.5t54 -10.5t58 -9t35 -29q0 -3 -5 -10t-10 -12l-5 -5q-4 0 -28 -7t-27 -7q-17 0 -112.5 7t-112.5 7q-89 0 -89 34z" />
    <glyph glyph-name="U" unicode="U" 
d="M116 143q0 31 -3.5 195t-3.5 194q0 11 -3.5 62t-3.5 61q-5 11 -43.5 25t-38.5 37q0 9 12 18t23 9h184q7 0 34 -27q0 -19 -8 -26t-17.5 -6t-20.5 -2t-15 -14q-7 -17 -11 -44t-4 -45.5t0.5 -51.5t0.5 -36q0 -253 14 -376q28 -48 82 -68h54q108 0 143 46.5t35 158.5
q0 30 -7 194t-7 195q-2 14 -15.5 23.5t-28 14t-26.5 14t-12 23.5l7 7l14 6h204q3 0 5 -5t2 -10v-5q0 -11 -10.5 -23t-23.5 -22t-23.5 -29t-10.5 -42l-14 -471q0 -41 -25 -72t-64 -47t-77 -23.5t-73 -7.5q-99 0 -154.5 40t-70.5 130z" />
    <glyph glyph-name="V" unicode="V" horiz-adv-x="708" 
d="M191 375q-5 25 -31 105t-37 107q-3 12 -29 46.5t-50 62.5l-24 28q0 6 14 20q23 0 72.5 7t77.5 7t65.5 -8.5t37.5 -25.5q0 -16 -14 -23.5t-30.5 -9t-30.5 -12t-14 -30.5q0 -77 23 -160.5t68 -197t59 -154.5q21 -21 34 -21q20 0 85 230.5t65 281.5q0 33 -12.5 46.5
t-28 12.5t-28 3t-12.5 20q0 34 41 34h81q5 0 25 2t33 2q58 0 58 -38q0 -18 -8.5 -27t-23.5 -16.5t-22 -17.5l-123 -369q-5 -18 -18.5 -75t-23 -88t-31 -72t-50.5 -65h-14q-33 0 -70.5 85t-70 189t-43.5 121z" />
    <glyph glyph-name="W" unicode="W" horiz-adv-x="814" 
d="M212 7q-4 10 -18 78.5t-17 78.5q-5 21 -19.5 144t-30.5 230.5t-25 116.5q-6 4 -28.5 13.5t-38 19.5t-15.5 22q0 34 83 34h27q2 0 18 0.5t28 0.5q118 0 118 -28q0 -13 -15 -20.5t-33 -9.5t-33 -13t-15 -32q0 -68 22.5 -273t52.5 -205q23 0 44 70l42 140t44 70
q28 0 49.5 -40.5t33.5 -89.5t29.5 -89.5t37.5 -40.5q19 0 32.5 52.5t19 125t7.5 117t2 60.5q0 52 -10.5 84.5t-25.5 44.5t-30 17t-25.5 9.5t-10.5 15.5q0 8 14 20q75 14 163 14q96 0 110 -27q-10 -14 -42.5 -27.5t-39.5 -27.5q-3 -13 -14 -85t-14 -85q0 -7 -6.5 -62
t-6.5 -61q-1 -5 -6.5 -52.5t-13.5 -100t-20 -108.5t-30 -92t-39 -36q-32 0 -53.5 46t-30.5 100.5t-27.5 100.5t-45.5 46t-45.5 -46t-28 -100.5t-30.5 -100.5t-53 -46q-29 0 -41 27z" />
    <glyph glyph-name="X" unicode="X" horiz-adv-x="720" 
d="M20 27q0 5 28 25.5t62.5 48.5t46.5 49q12 19 37 52.5l44 59t34 59t15 61.5q0 39 -62 145.5t-95 134.5q-16 12 -45 21t-37 13v21q0 19 19 30t42 11h35q143 0 143 -48q0 -13 -27.5 -21.5t-27.5 -26.5q0 -46 42.5 -122t80.5 -76t77 69t39 116q0 13 -8.5 22.5t-19 13t-19 10
t-8.5 15.5q0 46 107 46q18 0 37.5 -1t32.5 -2.5t15 -1.5q54 0 54 -34q0 -6 -33 -38l-73 -72.5t-51 -60.5q-7 -10 -34.5 -45t-44 -63t-16.5 -49q0 -28 81 -160t110 -161q11 -11 34 -14.5t38.5 -9.5t15.5 -24q0 -27 -20 -27h-191q-16 0 -25 9.5t-9 24.5v7q23 10 28.5 20.5
t5.5 34.5q0 32 -17.5 81t-49 89.5t-63.5 40.5q-24 0 -77 -91t-53 -120q0 -14 9.5 -22.5t21.5 -11.5t21.5 -10t9.5 -18q0 -34 -41 -34h-191q-28 27 -28 34z" />
    <glyph glyph-name="Y" unicode="Y" 
d="M205 27q0 18 48 34t54 28q7 48 7 129q0 105 -59 214t-153 230q-8 10 -29.5 16t-37 15.5t-15.5 30.5q0 13 20.5 23.5t34.5 10.5q13 0 34 -3.5t34 -3.5q6 0 21.5 3.5t26.5 3.5q3 0 8.5 -1l20 -3.5t25 -6t19.5 -9.5t9 -14q0 -14 -10.5 -20.5t-23.5 -8t-23.5 -9.5t-10.5 -24
q0 -30 62 -130t88 -116h14q33 0 84.5 94t51.5 139q0 16 -11.5 25t-26 12t-26 12.5t-11.5 25.5q0 29 121 29q17 0 34.5 -0.5t29 -1t13.5 -0.5q34 0 34 -27q0 -21 -39 -52.5t-43 -36.5l-50.5 -76t-63.5 -98.5t-41.5 -89t-21.5 -98.5q0 -10 -2.5 -57t0.5 -76.5t15 -57.5
q6 -17 40.5 -19.5t65.5 -7.5t31 -28q0 -9 -7.5 -15t-23.5 -12.5t-17 -6.5h-102h-109q-89 0 -89 34z" />
    <glyph glyph-name="Z" unicode="Z" horiz-adv-x="604" 
d="M20 27q0 41 42 109.5t102.5 140.5l121 143.5t102.5 135.5t42 99v7q-51 21 -116 21q-70 0 -114 -13.5t-59 -32.5t-22 -38t-15.5 -32.5t-28.5 -13.5q-8 0 -13.5 4.5t-8.5 10t-4.5 15.5t-1.5 16.5t0.5 16.5t0.5 12q0 29 0.5 43t5 34.5t13.5 29.5t26.5 16t43.5 7
q156 0 334 -14q36 0 55.5 -11t19.5 -44q0 -34 -64 -121.5t-140.5 -176.5t-140.5 -179.5t-64 -129.5q0 -19 8.5 -23t31.5 -4h89q10 0 39.5 -1.5t47.5 -1.5q77 0 104 23q17 10 42.5 63t39.5 53q32 0 41 -27v-34q0 -123 -34 -150h-34q-38 0 -116 3t-116 3q-34 0 -102.5 -3
t-102.5 -3q-23 0 -39 11.5t-16 35.5z" />
    <glyph glyph-name="bracketleft" unicode="[" horiz-adv-x="269" 
d="M20 -14q0 32 7 98.5t7 92.5q0 31 -3.5 92.5t-3.5 92.5v13q0 4 3.5 41.5t3.5 40.5q0 7 -3.5 79t-3.5 78v75v48l7 7q7 7 137 7h61l7 -7q7 -27 7 -34v-7q0 -26 -20 -26q-7 0 -27 4.5t-32 4.5q-71 0 -71 -160q0 -20 3 -62.5t3 -67.5q0 -41 -3 -123t-3 -123q0 -57 13.5 -74.5
t53.5 -17.5q10 0 31.5 1.5t30.5 1.5q1 0 4 1q8 0 12 -10.5t5 -21.5v-10q0 -18 -22 -26t-40 -8l-62 -3q-61 -3 -81 -3h-7q-14 0 -14 6z" />
    <glyph glyph-name="backslash" unicode="\" horiz-adv-x="438" 
d="M27 765q0 25 8 36t33 11q16 0 179 -435.5t163 -485.5q0 -21 -28 -21q-20 0 -34 14q-28 32 -43.5 115t-24.5 103q-43 97 -120.5 323t-132.5 340z" />
    <glyph glyph-name="bracketright" unicode="]" horiz-adv-x="269" 
d="M27 7v48l14 6q1 0 20 -1t33 -1q67 0 77 23v232v225q0 6 -3.5 52.5t-3.5 57.5q-6 36 -80 36q-11 0 -26 -1t-17 -1l-14 6v48l14 14h191v-676q0 -5 3.5 -42.5t3.5 -52.5q-13 0 -37 3t-38 3l-123 7z" />
    <glyph glyph-name="asciicircum" unicode="^" horiz-adv-x="244" 
d="M27 847q0 35 31.5 89t64.5 54q14 0 20 -14q9 -9 35.5 -48.5t33.5 -53.5v-14q0 -13 -0.5 -20t-5.5 -14t-15 -7q-14 0 -23 10.5t-13.5 23.5t-12.5 23.5t-19 10.5h-7l-14 -6l-34 -62q-41 0 -41 28z" />
    <glyph glyph-name="underscore" unicode="_" horiz-adv-x="752" 
d="M20 -273q0 10 15.5 22t25.5 12h635q14 0 24 -17.5t10 -30.5q0 -27 -20 -27h-635q-7 5 -22.5 8.5t-24 10.5t-8.5 22z" />
    <glyph glyph-name="grave" unicode="`" horiz-adv-x="276" 
d="M34 949q0 21 7.5 31t26.5 10q24 0 92.5 -43.5t85.5 -65.5v-7q0 -41 -41 -41q-40 0 -105.5 41t-65.5 75z" />
    <glyph glyph-name="a" unicode="a" horiz-adv-x="606" 
d="M20 123q0 54 48 96.5t107.5 61.5t111.5 19q6 0 20 -3t21 -3q21 0 51.5 8t30.5 26v95q0 48 -110 48q-37 0 -63.5 -15t-38 -33t-26 -33t-29.5 -15q-47 0 -47 41q0 103 232 103h68q102 -19 102 -137q0 -27 -3 -85t-3 -85q0 -84 27 -137q3 0 10.5 0.5t12.5 0.5q45 0 45 -28
q0 -21 -7 -21l-23 -7.5l-24.5 -8t-21 -5.5t-24.5 -4.5t-23 -1.5q-17 0 -44 13.5t-45 13.5q-31 0 -88.5 -13.5t-88.5 -13.5q-46 0 -83.5 10t-66 39t-28.5 74zM109 123q0 -19 9.5 -33t22 -20.5t34.5 -10t35 -4t36 -0.5q71 0 114 29.5t43 92.5q0 3 -3.5 27t-3.5 28q-34 7 -96 7
q-191 0 -191 -116z" />
    <glyph glyph-name="b" unicode="b" horiz-adv-x="628" 
d="M14 724q18 27 67 40.5t90 13.5q17 0 35.5 -10t18.5 -24q0 -31 -6.5 -91t-6.5 -86q0 -5 -1 -17t-1 -20.5t1.5 -17.5t6.5 -14h28q21 0 65 7t64 7q108 0 173.5 -82t65.5 -191q0 -38 -14 -71.5t-30 -52.5t-46.5 -50.5t-45.5 -50.5q-73 -28 -143 -28q-17 0 -56.5 3.5
t-60.5 3.5q-10 0 -30.5 -3.5t-30.5 -3.5q-27 0 -27 14v649q0 23 -15.5 33.5t-35 11.5t-39 7.5t-26.5 22.5zM212 130q-2 -27 9 -44.5t33.5 -25t42 -10t44.5 -2.5q87 0 136 65t49 153q0 45 -25.5 87.5t-63.5 69.5q-34 14 -109 14q-21 0 -38 -2t-29 -8.5l-20.5 -11t-14 -18.5
t-9 -20t-4.5 -27.5t-1.5 -29.5t0 -36t0.5 -38v-116z" />
    <glyph glyph-name="c" unicode="c" horiz-adv-x="560" 
d="M20 225q0 132 85.5 213t215.5 81h61q55 -10 89 -55t34 -102q0 -14 -14 -24t-27 -10q-28 0 -40 13.5t-15.5 32t-10 37.5t-32 32.5t-72.5 13.5h-55q-62 -19 -92.5 -77t-30.5 -127q0 -96 53 -144t152 -48q35 0 98 20.5t93 20.5q27 0 27 -27q0 -36 -104.5 -62.5t-161.5 -26.5
q-101 0 -177 67.5t-76 171.5z" />
    <glyph glyph-name="d" unicode="d" horiz-adv-x="607" 
d="M20 239q0 54 21.5 112t69 102.5t107.5 44.5h185q9 0 14.5 14.5t5.5 26.5q0 7 -3.5 24t-3.5 24q0 11 3.5 28t3.5 27q0 21 -15 32t-32.5 13t-32.5 9.5t-15 20.5q0 26 58.5 43.5t84.5 17.5q34 0 34 -34v-607l7 -48q0 -7 11.5 -9.5t26 -3.5t26 -7.5t11.5 -20.5
q0 -18 -17 -26.5t-43 -13t-35 -8.5q-13 1 -37 1q-35 0 -103 -7.5t-106 -7.5h-55q-81 15 -126 91t-45 162zM109 253q0 -97 53.5 -147.5t151.5 -50.5q24 0 42 6t30 14.5t19.5 24.5t11.5 29t5.5 36.5t1.5 38t-0.5 42.5t-0.5 41q0 43 -4 69.5t-17 50t-39.5 34t-68.5 10.5
q-90 0 -137.5 -54t-47.5 -144z" />
    <glyph glyph-name="e" unicode="e" horiz-adv-x="572" 
d="M20 232q0 56 27 132.5t69 99.5l109 55h144q41 0 80.5 -39t61 -88t21.5 -85q0 -35 -14.5 -45t-51.5 -15q-6 -1 -9 -1q-12 0 -46 0.5t-54 0.5q-154 0 -227 -22q-3 0 -6.5 -6.5t-5.5 -13.5l-2 -7q0 -47 35 -80t77.5 -45t85.5 -12q38 0 111.5 20.5t106.5 20.5q21 0 21 -27
q0 -25 -63 -47t-126.5 -32t-90.5 -10q-113 0 -183 67t-70 179zM130 335q0 -23 37 -32t72 -9q58 0 184 13q21 21 21 41q0 31 -39.5 70t-69.5 39h-103q-30 0 -66 -45.5t-36 -76.5z" />
    <glyph glyph-name="f" unicode="f" horiz-adv-x="582" 
d="M34 -7q-7 0 -7 21q0 26 34.5 31.5t68.5 9.5t34 27v334l-7 14q-5 2 -35.5 7t-58 13.5t-36.5 20.5q10 12 26 20t28.5 10.5t34 6l27.5 4.5q15 31 28 77t22.5 76t29 60t57 45t95.5 15q5 0 28 1t39 1q118 0 118 -43q0 -29 -23 -45t-52 -16q-24 0 -72 6.5t-72 6.5
q-61 0 -85 -26.5t-24 -89.5q0 -54 21 -68t74 -14h28q20 0 57.5 3.5t58.5 3.5q11 0 22.5 -8.5t11.5 -18.5q0 -12 -7 -17.5t-18 -8.5t-16 -8h-150l-55 -7l-6 -7q-7 -61 -7 -82v-109v-109q0 -55 13 -69q6 -1 64 -6t103 -14t45 -21q0 -14 -15.5 -32t-29.5 -18q-6 0 -10 3l-13 7
q-82 6 -116 6q-21 0 -126.5 3.5t-126.5 3.5z" />
    <glyph glyph-name="g" unicode="g" horiz-adv-x="606" 
d="M20 -116q0 27 32 67.5t37 55.5q7 22 6 33.5t1 48.5q0 13 23.5 38.5t23.5 43.5q-75 75 -75 164q0 79 59.5 124.5t145.5 45.5q29 0 164.5 -32.5t135.5 -42.5q0 -16 -13 -23.5t-30 -8t-34.5 -4t-24.5 -12.5q11 -45 0 -93.5t-41 -83.5q-17 -13 -64 -25.5t-90 -22.5t-77.5 -33
t-34.5 -56q0 -11 66 -14.5t145.5 -5t145.5 -20t66 -55.5v-103q0 -47 -57.5 -83.5t-119.5 -51.5t-103 -15q-46 0 -89 6t-91.5 22t-77.5 51t-29 85zM143 -198q10 -3 65 -13t65 -14h7q50 0 141 24.5t91 63.5v82q0 41 -170 41h-42q-88 0 -150 -6q-29 -24 -41.5 -43.5
t-12.5 -52.5q0 -74 47 -82zM143 273q14 -41 49.5 -54.5t87.5 -13.5q123 0 123 123q0 24 -7 50.5t-27 49.5t-48 23h-103q-40 0 -57.5 -43t-17.5 -87v-48z" />
    <glyph glyph-name="h" unicode="h" horiz-adv-x="686" 
d="M82 14q0 12 17 32.5t17 21.5q0 38 7 246t7 246v27q0 33 -18 56t-39.5 32t-38 18t-14.5 17q5 22 71.5 41.5t92.5 19.5q14 0 24 -14t10 -27q0 -38 -10 -109t-10 -109q0 -55 27 -55q30 0 90 24t95 24q76 0 126.5 -53.5t50.5 -130.5v-205q0 -36 20.5 -57t41 -29.5t20.5 -15.5
q0 -15 -12 -24.5t-29 -9.5h-130q-11 0 -26 8.5t-15 18.5q0 11 12.5 21t15.5 20q20 105 20 205q0 39 -5 68t-18.5 55.5t-40 40t-66.5 13.5q-127 0 -170 -68q-7 -62 -7 -137q0 -88 7 -150q5 -20 31 -28.5t48.5 -13.5t22.5 -19q0 -18 -60 -26t-104 -8q-19 0 -29 1t-21 9t-11 24
z" />
    <glyph glyph-name="i" unicode="i" horiz-adv-x="550" 
d="M20 20l28 28q105 4 129 18q25 14 28 65q1 17 0 64v51q0 62 -14 184q-5 15 -39 15q-6 0 -13.5 -0.5t-8.5 -0.5h-41l-28 -7q-10 0 -22 9t-12 18q0 26 86.5 40.5t139.5 14.5q19 0 33 -18.5t14 -36.5q0 -34 -3 -102t-3 -103q0 -122 6 -184q14 -14 28 -14l184 -13q20 0 20 -28
q0 -15 -9 -24.5t-25 -9.5h-443q-10 0 -22.5 12t-12.5 22zM184 669q0 35 25 58.5t57 23.5q30 0 49.5 -17.5t19.5 -44.5q0 -35 -26 -58t-63 -23q-22 0 -42 18.5t-20 42.5z" />
    <glyph glyph-name="j" unicode="j" horiz-adv-x="460" 
d="M34 -184q0 13 1 19t9 14t24 14q19 -3 57 -32t59 -29h96q28 0 46 28.5t23.5 58t5.5 56.5q0 3 -3.5 15t-3.5 20q0 6 3.5 21t3.5 26v15q2 330 -75 381q-96 0 -130 34v7q28 28 48 28q14 0 92 6.5t92 6.5h7q14 0 34 -20q7 -53 11 -118.5t4 -105.5t-0.5 -124.5t-0.5 -109.5
v-143q-10 -75 -73 -109t-146 -34q-22 0 -47 2.5t-59 9t-56 23t-22 40.5zM259 676q0 28 30.5 44.5t65.5 16.5h27q28 -26 28 -41q0 -35 -26.5 -61.5t-62.5 -26.5q-25 0 -43.5 21t-18.5 47z" />
    <glyph glyph-name="k" unicode="k" horiz-adv-x="696" 
d="M89 7q0 23 20.5 72.5t20.5 77.5v34l-7 27q0 4 3.5 18t3.5 17v320q0 35 -6.5 55.5t-19 29.5t-26 14t-32 16t-32.5 29q13 23 72 38.5t98 15.5q18 0 26 -25.5t8 -49.5q0 -47 -3 -139.5t-3 -140.5v-129l6 -14h14q34 0 75 41l89 89v20q0 11 -7 23t-7 18q0 28 21 28h184l21 -21
v-7l-7 -7q-30 -11 -58 -23.5t-67 -34t-63 -49.5t-24 -56q0 -33 39.5 -91t89 -103t76.5 -45q7 0 24 3t24 3q34 0 34 -20v-7q-32 -48 -103 -48q-38 0 -72.5 27t-59.5 65l-48 76t-47 65t-46 27h-6l-76 -75l-6 -14v-34q0 -45 7 -59t22 -14q3 0 9 0.5t10 0.5q30 0 47 -37
q-18 -32 -93 -32q-18 0 -47 2t-37 2h-28q-13 7 -13 21z" />
    <glyph glyph-name="l" unicode="l" horiz-adv-x="528" 
d="M48 14q0 25 24.5 31.5t54 4t54 12.5t24.5 54q0 4 -3.5 24t-3.5 24v7v6q0 11 3.5 120t3.5 119v21v20q0 18 -3.5 113.5t-3.5 112.5q-4 8 -20 8q-5 0 -15 -1t-13 -1h-34q-4 0 -24 -3t-24 -3q-9 0 -18.5 2.5t-19.5 10.5t-10 21q0 16 32.5 27.5t79.5 16.5t83 7.5t58 2.5
q12 -7 17.5 -24t6 -31t-1 -37.5t-1.5 -29.5q0 -51 -7 -158.5t-7 -162.5q0 -17 3.5 -51.5t3.5 -51.5q0 -13 -3.5 -44t-3.5 -44q0 -76 34 -76l150 -13l14 -7q3 0 13 -10.5t14 -10.5q0 -14 -17.5 -24t-30.5 -10h-334q-19 0 -47 7t-28 21z" />
    <glyph glyph-name="m" unicode="m" horiz-adv-x="776" 
d="M75 20q0 10 7.5 23t13.5 18q6 28 7.5 62.5t0 87.5t-1.5 62v137q-3 12 -42.5 15.5t-39.5 25.5q0 54 137 54q3 0 20 -6.5t21 -6.5q3 -1 10 -1q15 0 51 14t55 14q16 0 55.5 -20.5t60.5 -20.5q24 0 68.5 13.5t68.5 13.5q41 0 68.5 -16.5t40 -47.5t16.5 -61.5t4 -72.5
q0 -31 -3.5 -89t-3.5 -88v-7q0 -4 3.5 -27.5t3.5 -27.5q5 -7 33.5 -19.5t28.5 -28.5q0 -29 -52 -29q-10 0 -22.5 1t-14.5 1h-61q-24 0 -35 21q19 19 28.5 51.5t10 56t-1.5 65.5t-2 52v123q4 43 -20.5 62.5t-68.5 19.5q-61 0 -68 -41q0 -11 -3.5 -72t-3.5 -72v-20v-27
q0 -10 3.5 -72t3.5 -72q4 -4 17 -12.5t21.5 -17.5t8.5 -18q0 -15 -5.5 -21t-21.5 -6h-109q-6 0 -16.5 8t-10.5 13v6q24 54 32 103.5t8 122.5q0 6 0.5 27.5t0.5 32.5t-2 32t-5 33t-9.5 28t-15.5 24.5t-23.5 14.5t-33.5 6q-31 0 -63.5 -17t-32.5 -45v-307q0 -14 11.5 -21
t26 -9.5t26 -9.5t11.5 -21q0 -5 -7.5 -13t-12.5 -8h-130q-11 0 -26 9t-15 18z" />
    <glyph glyph-name="n" unicode="n" 
d="M437 20q17 4 29.5 16.5t20 32.5t12 38.5t5.5 44.5t1.5 42t0 39t-0.5 26q0 39 -4 67.5t-16 57.5t-38 44.5t-65 15.5q-38 0 -66 -6t-48 -15t-33 -27t-20.5 -35t-11 -46.5t-4.5 -53t-1 -63.5q0 -75 14 -130q0 -3 22.5 -12l48 -19.5t31.5 -16.5q0 -29 -76 -29l-40 2
q-8 0 -25 -1t-26 -1q-29 0 -51 9q-3 0 -10 3.5t-12 6.5l-6 4v6l48 48v348q0 11 -24 14.5t-48 10t-24 23.5q0 22 47 31.5t76 9.5q17 0 41 -17t41 -17q35 0 99.5 24t98.5 24q41 0 72 -20t48 -54t25.5 -69.5t11.5 -75.5q0 -17 3.5 -112.5t3.5 -112.5l7 -14q5 -1 18 -3t20.5 -4
t17 -6t14.5 -11t5 -17q0 -22 -19.5 -31t-41.5 -9q-151 0 -171 34v6z" />
    <glyph glyph-name="o" unicode="o" horiz-adv-x="584" 
d="M20 246q0 119 79.5 199.5t200.5 80.5q114 0 190.5 -78t76.5 -195q0 -112 -86.5 -192.5t-200.5 -80.5q-111 0 -185.5 78t-74.5 188zM109 253q0 -87 47.5 -146t130.5 -59q89 0 146 57t52 148q-5 93 -59.5 148.5t-145.5 55.5q-88 0 -129.5 -55.5t-41.5 -148.5z" />
    <glyph glyph-name="p" unicode="p" horiz-adv-x="606" 
d="M55 -232q0 16 9.5 24.5t21 11t21 14t9.5 32.5v560l-7 13l-7 7l-61 14q-14 0 -14 20q0 25 46.5 36.5t83.5 11.5q3 0 20 -10t21 -10q4 -1 14 -1q21 0 69 14t74 14h48q96 -58 121 -81q50 -46 59 -132q4 -31 4 -74q0 -96 -80 -167.5t-179 -71.5q-14 0 -38 3.5t-37 3.5h-35
q-8 -4 -12.5 -11.5t-6 -18t-2 -18t0 -20t0.5 -14.5q0 -42 10 -69t24 -36.5t28 -13.5l24 -7t10 -10q0 -16 -6 -22t-22 -6h-191q-6 0 -13 4.5t-7 9.5zM191 253v-9q-2 -183 75 -183h116q33 0 68.5 47t41.5 83v68v62l-7 27l-89 96h-150q-14 0 -24.5 -9t-16.5 -24.5t-9.5 -32.5
t-4.5 -38.5t-1 -36.5t0.5 -31.5t0.5 -18.5z" />
    <glyph glyph-name="q" unicode="q" horiz-adv-x="584" 
d="M341 -218q0 9 11 14t23.5 7.5t23.5 10.5t11 22v157l-7 7h-41h-55q-3 0 -17 -3.5t-17 -3.5q-106 11 -179.5 83t-73.5 177q0 119 72.5 192.5t194.5 73.5q20 0 59 -7t64 -7q14 0 33 10.5t28 10.5q27 0 27 -48q0 -7 -3 -48t-3 -48v-498l6 -61q0 -15 31.5 -24t37.5 -17
q0 -9 -17 -18.5t-24 -9.5h-157q-11 0 -19.5 9t-8.5 19zM109 246q0 -90 55 -137.5t150 -47.5h55q12 0 26.5 10.5t14.5 24.5v320q0 5 -15 16.5t-20 11.5l-116 13q-4 1 -13 1q-43 0 -76 -39t-47 -86t-14 -87z" />
    <glyph glyph-name="r" unicode="r" horiz-adv-x="606" 
d="M96 0q-6 0 -17 9t-11 18q0 11 16 19t36 14t37.5 24t19.5 46v102q0 65 -13 191q-10 14 -19.5 17.5t-28.5 3.5q-14 0 -41.5 -7t-40.5 -7h-7q0 4 -3.5 17t-3.5 17v7q0 17 23 27.5t59 14.5t54.5 5t34.5 1q18 0 29 -13t14.5 -28t13 -28t25.5 -13q36 0 55 27q50 31 86 46.5
t78 15.5q34 0 64.5 -15t30.5 -47q0 -24 -20 -36t-48 -12q-13 0 -44 7t-45 7q-53 0 -112 -34.5t-59 -81.5v-232l21 -21q25 -3 83.5 -6t87.5 -7l6 -7l14 -21q0 -27 -82 -27q-10 0 -27 3.5t-27 3.5q-21 0 -62 -3.5t-61 -3.5q-69 0 -116 7z" />
    <glyph glyph-name="s" unicode="s" horiz-adv-x="504" 
d="M123 0h-7l-27 -7q-33 5 -47.5 32.5t-14.5 63.5q0 82 41 82q16 0 28.5 -19t21 -42.5t29.5 -42.5t51 -19h116q34 0 54.5 28.5t20.5 66.5q0 37 -35 55.5t-85.5 25.5t-100.5 17t-85 43t-35 91q0 71 70.5 114t147.5 43h7l27 -6q11 0 65.5 -10.5t64.5 -10.5q14 -9 24 -39
t10 -50q0 -21 -8 -41t-26 -20q-20 0 -30 10.5t-16 25.5t-16 30t-39 25.5t-76 10.5h-62q-24 0 -42.5 -26t-18.5 -49q0 -41 36.5 -60.5t89 -26.5t104.5 -17t88.5 -44.5t36.5 -96.5q0 -41 -23.5 -72.5t-60.5 -47.5t-74 -23.5t-74 -7.5q-20 0 -62.5 7t-67.5 7z" />
    <glyph glyph-name="t" unicode="t" horiz-adv-x="540" 
d="M102 191q0 31 3.5 92.5t3.5 91.5q0 37 -14 55.5t-30.5 19.5t-30.5 7t-14 21q0 14 11.5 20t25.5 5t30 1t22 8q11 11 14.5 33.5t3.5 41t10 33.5t34 15q15 0 24.5 -9.5t9.5 -24.5q0 -3 -3.5 -20t-3.5 -21q0 -34 18.5 -44.5t56.5 -10.5q34 0 102.5 10.5t102.5 10.5
q9 0 14.5 -14t5.5 -27q0 -15 -27 -28q-90 4 -116 4q-60 0 -93 -8.5t-53.5 -37.5t-26 -72.5t-5.5 -124.5v-102q0 -22 11 -42.5t30 -25.5h55q34 0 102.5 13.5t102.5 13.5q13 0 20 -0.5t14 -5.5t7 -14q0 -35 -113 -58.5t-167 -23.5q-37 0 -64 14.5t-40.5 34.5t-21.5 52t-9.5 57
t-1.5 60z" />
    <glyph glyph-name="u" unicode="u" 
d="M109 184l7 14v20q0 7 -3.5 17.5t-3.5 17.5l7 13v137q0 18 -13.5 26.5t-30 9t-34 6.5t-24.5 19q27 41 143 41q3 0 8.5 0.5t7.5 0.5q13 0 18 -14v-48q0 -31 -3.5 -89t-3.5 -89q0 -36 2 -60t10.5 -63t31.5 -60.5t59 -21.5h116l20 8.5l19 8t16 8t14.5 10.5t10 13t7.5 18t2 23
v246q0 20 -13 29.5t-28 9.5t-28 6.5t-13 22.5q0 41 136 41q12 0 20.5 -13t11 -26t2.5 -22q0 -38 -3.5 -108.5t-3.5 -103.5v-95l7 -41q3 -1 13.5 -3t15.5 -3.5t14.5 -5t15 -7t11.5 -8.5t9 -12.5t3 -15.5q0 -14 -52 -27.5t-71 -13.5q-9 0 -31.5 13.5t-36.5 13.5
q-30 0 -88 -20.5t-89 -20.5q-75 0 -130 62t-55 136z" />
    <glyph glyph-name="v" unicode="v" horiz-adv-x="692" 
d="M300 41l-177 403l-82 13q-6 0 -10 10.5t-4 17.5l21 20h177q11 0 29.5 -7t18.5 -20q0 -9 -7.5 -14.5t-16.5 -8t-16.5 -10.5t-7.5 -22q0 -39 62.5 -183t94.5 -144h7q26 0 74.5 140.5t48.5 159.5v34q-5 11 -19 19t-27.5 11.5t-24.5 11.5t-11 20q0 3 10 6t20 5l11 2
q13 0 92 7t92 7h7q5 0 9.5 -10.5t4.5 -16.5q0 -23 -34 -50t-41 -39q-11 -20 -42 -95.5l-59 -142.5t-65.5 -123t-65.5 -56h-14z" />
    <glyph glyph-name="w" unicode="w" horiz-adv-x="772" 
d="M14 498q0 9 21.5 15t32.5 6h171q11 0 26 -9t15 -18q0 -35 -82 -35l-14 -13v-34q0 -43 29.5 -161.5t52.5 -118.5q20 0 35 36t22.5 80t26 80t46.5 36q20 0 41 -55l41.5 -109.5t40.5 -54.5q26 0 54 120.5t28 159.5v21q-7 4 -37.5 9.5t-54.5 14.5t-24 24q0 9 18 18t29 9h192
q27 -21 34 -27l7 -7q-5 -3 -33 -16t-36 -25q-13 -17 -32 -91t-36.5 -150t-47 -140.5t-61.5 -69.5h-6q-23 0 -41.5 36.5t-28.5 79.5t-24.5 79.5t-29.5 36.5q-12 0 -21 -11.5t-13 -24.5t-8.5 -30.5l-5.5 -21.5q-3 -6 -16.5 -50.5t-17.5 -52.5l-34 -34l-14 -7q-36 6 -68 86.5
t-57 186.5t-32 123q-6 19 -47 53t-41 56z" />
    <glyph glyph-name="x" unicode="x" horiz-adv-x="674" 
d="M48 20q0 6 33 32l72.5 57.5t72.5 75.5t33 81q0 28 -13 41l-123 123q-7 7 -25 9.5t-34.5 3.5t-30 7.5t-13.5 20.5q0 17 35 34h75q1 0 7.5 0.5t17 1t20.5 0.5q91 0 91 -36q0 -13 -17 -27t-17 -28q0 -26 38.5 -64t64.5 -38q12 0 28 10.5t26.5 21t25 26.5t15.5 17l7 21v6
q0 10 -6.5 19t-12.5 13.5t-19.5 12.5t-16.5 10v7q0 5 14 9.5t20 4.5h178q14 0 14 -14q0 -8 -31 -31.5l-68 -49.5t-68 -64.5t-31 -73.5t38.5 -78.5t84 -76l84 -61t38.5 -36.5v-7q-47 -7 -116 -7q-75 0 -123 7q-6 0 -6 20q0 9 17 26t17 36q0 40 -42.5 78t-80.5 38
q-28 0 -66 -50t-43 -80q-3 -14 12 -20.5t32 -11.5t17 -16q0 -4 -7.5 -12t-12.5 -8q-41 -7 -116 -7q-5 0 -19.5 -1t-23.5 -1q-46 0 -46 29z" />
    <glyph glyph-name="y" unicode="y" horiz-adv-x="650" 
d="M55 -212q0 19 15 30t32 11q14 0 38 -3t37 -3q55 0 96 77t41 134v14l-48 95q-17 10 -34.5 36.5t-26.5 46t-24.5 59.5t-16.5 43l-24 47t-24 48q-7 9 -22.5 14.5t-29.5 7.5t-25.5 8t-11.5 18q0 34 95 34h28q109 0 116 -34q4 -15 -22 -22t-26 -12v-62l69 -136q1 -2 4.5 -11.5
t5 -13l5 -12t6 -12t6.5 -10t8 -10t9 -7t11 -5t13 -1.5q27 0 68 116t41 143q0 16 -11.5 23t-26 8t-26 8t-11.5 23q0 28 124 28q12 0 28.5 -0.5t18.5 -0.5h54q1 -1 7 -6.5t8.5 -8t6 -9t-0.5 -10.5q-7 -20 -46 -35t-50 -40q-53 -135 -170 -382q-11 -21 -31 -69.5t-35 -78
t-40.5 -64t-60 -51.5t-79.5 -17q-20 0 -44 15.5t-24 38.5z" />
    <glyph glyph-name="z" unicode="z" horiz-adv-x="528" 
d="M20 55q0 20 55.5 73.5t122 108t122 109t55.5 77.5q0 16 -3.5 18.5t-23.5 2.5h-177q-6 0 -21 -4.5t-20 -9.5l-8 -24q-9 -23 -18.5 -37t-21.5 -14q-13 0 -27 5.5t-14 14.5q0 52 19.5 88.5t62.5 41.5h89q26 0 82.5 -3.5t87.5 -3.5q14 0 38 3.5t37 3.5q11 0 26 -12t15 -22
q0 -14 -13 -27q-3 -3 -28.5 -32t-33.5 -37q-15 -20 -75.5 -80.5t-81.5 -76.5q-23 -15 -38 -26t-38 -31.5t-35 -42t-12 -43.5q0 -27 28 -27h82q6 0 24 -0.5t29 -0.5q78 0 110 21q7 5 32.5 43.5t49.5 38.5q14 0 14 -41q0 -71 -32 -96t-94 -25q-19 0 -61.5 2.5t-65.5 2.5h-136
q-31 0 -67 15.5t-36 46.5z" />
    <glyph glyph-name="braceleft" unicode="{" horiz-adv-x="323" 
d="M75 -14q0 30 7 96.5t7 101.5v110q-3 15 -32.5 44t-29.5 51q0 17 27.5 48t27.5 48v245l7 14q7 7 143 7h62q6 -14 6 -41q0 -35 -47 -35q-8 0 -25 1.5t-24 1.5q-33 0 -40 -16q-20 -39 -21.5 -121t-26.5 -125q-7 -6 -7 -20q0 -13 15 -32.5t26 -28.5q0 -178 7 -260l7 -7
q21 -8 60 -8q10 0 29 0.5t27 0.5q20 0 20 -41q0 -16 -11 -24t-21 -9t-29 -1l-61 -3q-62 -3 -82 -3h-7q-14 0 -14 6z" />
    <glyph glyph-name="bar" unicode="|" horiz-adv-x="146" 
d="M61 840q32 0 41 -21v-54q0 -35 -3 -102t-3 -96q0 -69 6 -103q-6 -109 -6 -321q0 -45 6.5 -132t6.5 -127q0 -20 -17 -40.5t-37 -20.5q-21 30 -21 75v914q0 9 10.5 18.5t16.5 9.5z" />
    <glyph glyph-name="braceright" unicode="}" horiz-adv-x="323" 
d="M27 7v48l14 6q5 0 24.5 -1t32.5 -1q58 0 73 23q0 28 -3.5 77.5t-3.5 72.5v89q3 12 25.5 36.5t22.5 38.5q0 18 -20.5 43.5t-20.5 38.5v136q-11 14 -14 26t-3.5 18t-1 11t-13 7t-32.5 3.5t-66 3.5l-14 6v48l14 14h198v-259q0 -6 12 -28l26.5 -46.5t16.5 -28.5v-7
q-3 -12 -18.5 -31t-29.5 -31l-14 -13v-123q0 -38 3.5 -104.5t3.5 -99.5q-13 0 -37 3t-38 3l-123 7z" />
    <glyph glyph-name="asciitilde" unicode="~" horiz-adv-x="523" 
d="M164 355q-21 0 -57 -3.5t-52 -3.5q-15 0 -25 12.5t-10 28.5q0 56 138 56q13 0 31.5 -0.5t22.5 -0.5h68q82 -28 130 -28q6 0 24.5 3.5t29.5 3.5q20 0 27 -9.5t7 -31.5q0 -16 -6 -26.5t-13 -16t-22 -8t-25 -3t-29 -0.5q-42 0 -122 13.5t-117 13.5z" />
    <glyph glyph-name="exclamdown" unicode="&#xa1;" horiz-adv-x="212" 
d="M34 20q0 122 21.5 307t60.5 185q14 0 41 -202t27 -269q0 -46 -15.5 -81t-52.5 -35q-44 0 -63 23.5t-19 71.5zM20 635q0 35 33.5 62t69.5 27q28 0 44.5 -25t16.5 -50q0 -33 -19.5 -61t-48.5 -28q-14 0 -30.5 10.5t-27.5 21.5t-23.5 26t-14.5 17z" />
    <glyph glyph-name="cent" unicode="&#xa2;" horiz-adv-x="540" 
d="M212 -20q-5 15 -21.5 29t-37.5 24.5t-45 29t-43 40.5t-32 61t-13 89q0 79 35 151t102 101q6 2 22.5 6.5t30 9.5t22.5 11q10 8 19 33t20 44t29 19q7 0 14.5 -19.5t28.5 -47t60 -42.5q41 -16 65 -50t24 -80q0 -10 -7 -25.5t-21 -15.5q-25 0 -40 18t-19 40t-14.5 40
t-28.5 18h-137q-34 0 -75 -48.5t-41 -80.5v-130q0 -34 20 -59.5t51 -38.5t61 -19t59 -6q37 0 107 20.5t91 20.5q5 0 13 -11t8 -16q0 -26 -28.5 -42.5t-64.5 -23t-72 -18t-47 -26.5q-7 -10 -11.5 -51t-13 -73.5t-29.5 -32.5q-18 0 -26.5 22t-8.5 40q0 6 -3 44t-3 45z" />
    <glyph glyph-name="sterling" unicode="&#xa3;" horiz-adv-x="599" 
d="M102 -7q-13 0 -31 6t-23 15q30 41 89 41q6 12 7.5 31t0 47t-1.5 31q0 21 -2.5 58t-12.5 83.5t-26 49.5l-61 14q-9 0 -15 14t-6 27q0 20 20.5 28.5t44.5 8t44.5 6.5t20.5 25v75q0 11 -18 15t-40 4.5t-40 8.5t-18 27q0 4 0.5 6.5t3 4.5t4 2.5t6 3t7.5 3.5q54 7 129 7
q4 0 26.5 1t37.5 1q80 0 80 -29q0 -14 -26 -21t-51.5 -15.5t-25.5 -25.5v-89q0 -13 41 -13q14 0 38 3.5t37 3.5q18 0 33 -11t15 -30q0 -17 -15 -28t-32 -15t-40.5 -7.5t-28.5 -4.5q-15 -10 -31.5 -49t-16.5 -60v-164q0 -24 21 -34h68q8 0 27 -0.5t29 -0.5q78 0 115 21
q11 7 15 28t4.5 41.5t8.5 37t26 16.5q5 0 28 -20q6 -48 6 -123q0 -36 -13 -52t-48 -16q-30 0 -204.5 6.5t-205.5 6.5z" />
    <glyph glyph-name="currency" unicode="&#xa4;" horiz-adv-x="691" 
d="M48 -27q0 24 45.5 56.5t49.5 38.5v7q0 21 -25.5 82.5t-28.5 88.5v7q0 24 5.5 47t11 36t18.5 39.5t19 40.5v7q-5 5 -31.5 26.5t-45 41.5t-18.5 35q0 34 27 34q23 0 63 -31.5t60 -57.5q98 55 164 55q24 0 71.5 -14t71.5 -14h7q10 10 53 39.5t56 29.5q11 0 19.5 -10t8.5 -25
v-6l-82 -82q32 -23 50 -81.5t18 -103.5q0 -51 -18.5 -103t-49.5 -88v-7q0 -14 11.5 -23t26 -13.5t26 -12.5t11.5 -19q0 -41 -28 -41q-22 0 -59 24.5t-50 37.5h-7q-22 0 -72 -17t-78 -17q-79 0 -150 40q-79 -75 -116 -75q-11 0 -22.5 9t-11.5 19zM177 246q0 -80 52.5 -139
t132.5 -59q84 0 134 56.5t50 141.5q0 38 -13 81.5t-44.5 80t-72.5 36.5h-143q-40 0 -68 -74t-28 -124z" />
    <glyph glyph-name="yen" unicode="&#xa5;" 
d="M205 27q0 16 17 25t37.5 13t37.5 18.5t17 39.5q0 30 -39.5 41.5t-87 9.5t-87 4.5t-39.5 26.5q0 17 21 27q61 7 191 7q16 5 28.5 19t12.5 29q0 27 -7 41q-113 13 -211 13q-12 0 -23.5 10t-11.5 24q6 43 112 43q14 0 34.5 -1t24.5 -1q7 0 7 21q0 20 -64.5 121.5
t-85.5 117.5q-6 4 -25.5 8.5t-31.5 13t-12 26.5q0 13 20.5 23.5t34.5 10.5q13 0 34 -3.5t34 -3.5q6 0 21.5 3.5t26.5 3.5q3 0 8.5 -1l20 -3.5t25 -6t19.5 -9.5t9 -14q0 -14 -10.5 -20.5t-23.5 -8t-23.5 -9.5t-10.5 -24q0 -30 62 -130t88 -116h14q33 0 84.5 94t51.5 139
q0 16 -11.5 25t-26 12t-26 12.5t-11.5 25.5q0 29 121 29q17 0 34.5 -0.5t29 -1t13.5 -0.5q34 0 34 -27q0 -4 -49.5 -64t-99 -130t-49.5 -100q0 -14 14 -14l143 -13q3 0 5 -3.5t2 -7.5v-3q0 -23 -11.5 -34t-24 -12.5t-39.5 -1.5h-137q-7 -2 -10.5 -9.5t-3.5 -14t0.5 -18
t0.5 -12.5v-28q11 -19 68 -20.5t107 -6.5t50 -34q0 -14 -7 -14q-211 0 -211 -68q0 -30 22.5 -42.5t49 -12t49 -7t22.5 -27.5q0 -9 -7.5 -15t-23.5 -12.5t-17 -6.5h-102h-109q-89 0 -89 34z" />
    <glyph glyph-name="brokenbar" unicode="&#xa6;" horiz-adv-x="156" 
d="M27 20v110v109q0 21 3 45t16.5 51t35.5 27q17 0 29 -55t12 -75v-246q0 -13 -19.5 -20t-35.5 -7q-10 0 -16.5 3.5t-10.5 11t-6 13t-4.5 17.5t-3.5 16zM27 703q0 62 41 62q55 0 55 -62v-171q0 -19 -14 -53.5t-27 -34.5q-19 0 -31.5 37t-17 93t-5.5 83t-1 46z" />
    <glyph glyph-name="section" unicode="&#xa7;" horiz-adv-x="444" 
d="M116 14l-20 -7h-7q-19 0 -33.5 25t-14.5 43q0 62 27 62q11 0 24.5 -14t26.5 -30.5t38 -30.5t55 -14q95 0 95 34v61q0 17 -25.5 22t-61.5 6t-72 7t-61.5 31t-25.5 71q0 35 8 49t40 46v14q0 13 -17 35t-17 40q0 51 54.5 83.5t109.5 32.5q34 0 123 -13q27 -44 27 -75
q0 -12 -10 -26.5t-24 -14.5q-9 0 -15 7.5t-12 18.5t-15 22.5t-30 19t-51 7.5h-48q-19 -5 -30 -21.5t-11 -33.5q0 -30 27 -43.5t65 -18t76 -12t65 -34.5t27 -76v-21l-48 -61v-7q0 -13 13.5 -42t13.5 -47q0 -29 -18.5 -51.5t-47.5 -34t-57.5 -17.5t-53.5 -6h-28q-3 0 -30 7
t-31 7zM123 294q0 -62 118 -62h25q62 0 62 34q0 35 -21 54.5t-44.5 23.5t-57.5 4h-48q-14 -5 -24 -21.5t-10 -32.5z" />
    <glyph glyph-name="dieresis" unicode="&#xa8;" horiz-adv-x="422" 
d="M287 894q0 16 19.5 39t34.5 23q55 0 55 -69q0 -75 -48 -75q-23 0 -42 29.5t-19 52.5zM20 887q0 26 18 44t44 18q55 0 55 -62q0 -68 -62 -68q-19 0 -37 25.5t-18 42.5z" />
    <glyph glyph-name="copyright" unicode="&#xa9;" horiz-adv-x="690" 
d="M20 369q0 124 97.5 225.5t223.5 101.5q16 0 110.5 -21.5t94.5 -25.5v-14q55 -55 89 -124t34 -142q0 -132 -103 -226.5t-238 -94.5q-127 0 -217.5 96t-90.5 225zM102 369q0 -113 64 -186.5t182 -73.5q40 0 64 1.5t59.5 15t54.5 38.5q61 101 61 205q0 31 -9.5 72.5
t-27.5 84.5t-50 72.5t-70 29.5h-198q-33 0 -60 -31.5t-41 -76t-21.5 -84.5t-7.5 -67zM143 382q0 79 65.5 132t146.5 53q63 0 103 -26.5t40 -83.5q0 -34 -47 -34q-10 0 -28 39t-13 50q-4 0 -31 7t-31 7q-29 0 -51.5 -11t-33 -21.5t-38.5 -42.5q0 -28 -7 -35v-88q0 -41 51 -65
t93 -24q24 0 75 17t75 17q5 0 9.5 -8.5t4.5 -18.5q0 -18 -93.5 -40t-125.5 -22q-69 0 -116.5 61.5t-47.5 136.5z" />
    <glyph glyph-name="ordfeminine" unicode="&#xaa;" horiz-adv-x="370" 
d="M20 423q0 34 48 34h246q34 0 34 -41q0 -44 -101 -44q-18 0 -45 1.5t-31 1.5q-11 0 -38.5 -2.5t-42.5 -2.5q-70 0 -70 53zM41 580q0 37 28.5 54.5t63.5 19t63.5 11t28.5 31.5q0 34 -41 34q-15 0 -26 -4t-16 -8.5t-16 -16.5t-17 -18q-20 0 -27 6.5t-7 27.5q0 19 12 31
t35 16.5t38 5.5t38 1q89 0 89 -54v-157q17 0 23.5 -1t12 -7.5t5.5 -19.5v-13q-28 -14 -62 -14q-11 0 -26.5 3.5t-21.5 3.5q-13 0 -37 -3.5t-38 -3.5q-49 0 -75.5 14.5t-26.5 60.5zM96 573q6 -27 68 -27q28 0 41 21.5t13 46.5q-15 2 -34 2q-94 0 -88 -43z" />
    <glyph glyph-name="guillemotleft" unicode="&#xab;" horiz-adv-x="612" 
d="M20 300q0 31 51 82t103.5 87t64.5 36q82 0 82 -54q0 -25 -20.5 -43t-44.5 -27t-44.5 -28t-20.5 -46q0 -37 20.5 -61t44.5 -33t44.5 -25t20.5 -38q0 -48 -62 -48q-24 0 -81.5 34.5t-107.5 83.5t-50 80zM287 300q0 22 15.5 43.5t32 34t42.5 30l33 22.5l102 68h48
q9 0 18 -18t9 -29q0 -25 -20.5 -42t-44.5 -26t-44.5 -30t-20.5 -53q0 -29 20.5 -49.5t44.5 -30t44.5 -27.5t20.5 -43q0 -29 -13 -38.5t-42 -9.5q-42 0 -143.5 79.5t-101.5 118.5z" />
    <glyph glyph-name="logicalnot" unicode="&#xac;" horiz-adv-x="470" 
d="M362 89q-14 28 -17.5 78.5t3.5 78.5q-40 9 -84 12t-100.5 4.5t-88.5 3.5q-29 0 -38.5 14.5t-9.5 47.5v20l7 7q14 14 82 14q24 0 72 -3.5t71 -3.5q25 0 67.5 3.5t62.5 3.5q55 0 55 -14v-246q0 -13 -16.5 -20t-31.5 -7q-27 0 -34 7z" />
    <glyph glyph-name="uni00AD" unicode="&#xad;" horiz-adv-x="470" 
d="M27 328v20l7 7q14 14 82 14q24 0 72 -3.5t71 -3.5q25 0 67.5 3.5t62.5 3.5q28 0 41.5 -9.5t13.5 -38.5q0 -61 -127 -61q-28 0 -70 3t-49 3h-116q-5 -1 -14 -1q-24 0 -32.5 16t-8.5 47z" />
    <glyph glyph-name="registered" unicode="&#xae;" horiz-adv-x="690" 
d="M20 348q0 125 94.5 226.5t220.5 101.5q31 0 64.5 -6.5t79.5 -19t60 -15.5q7 0 7 -21q123 -136 123 -259q0 -83 -61 -191q-8 -3 -47.5 -42.5t-52.5 -39.5h-3q-86 -48 -177 -48q-128 0 -218 92.5t-90 221.5zM102 348q0 -118 68 -188.5t185 -70.5q157 0 157 54
q0 12 -23.5 16t-24.5 5q-26 15 -47 48.5t-32.5 62t-38 51t-66.5 22.5v-150q4 -4 19.5 -9t21.5 -5v-13h-103l-6 6q0 9 5.5 18.5t14.5 9.5v314l-34 13v7q0 14 14 14h6q14 0 82.5 -3.5t81.5 -3.5q34 -12 58 -37t24 -58q0 -24 -20.5 -44t-41 -36t-20.5 -30v-13
q15 -15 40.5 -55.5t51 -64.5t58.5 -24q17 0 29 20t17 50t7 53t2 41q0 123 -67.5 194.5t-184.5 71.5q-127 0 -180 -67.5t-53 -198.5zM280 375h89q23 0 35 24t12 45q0 75 -41 75h-95v-144z" />
    <glyph glyph-name="macron" unicode="&#xaf;" horiz-adv-x="550" 
d="M27 833q0 9 17 14.5t31 5.5h430l27 -20v-7q0 -5 -34 -16t-41 -11h-396q-15 0 -24.5 9t-9.5 25z" />
    <glyph glyph-name="degree" unicode="&#xb0;" horiz-adv-x="230" 
d="M20 894q0 48 22.5 75.5t66.5 27.5h34q55 -28 55 -96q0 -34 -20.5 -64.5t-54.5 -30.5q-43 0 -73 24.5t-30 63.5zM61 901q0 -20 12.5 -34t28.5 -14q25 0 40 16.5t15 38.5q0 9 -6 25t-14 16h-62q-14 0 -14 -48z" />
    <glyph glyph-name="plusminus" unicode="&#xb1;" horiz-adv-x="556" 
d="M20 34q0 18 23 26t46 8q33 0 103 -3.5t108 -3.5q31 0 96 3.5t96 3.5q20 0 33.5 -13.5t13.5 -34.5q0 -20 -34 -20q-109 -7 -307 -7h-157q-21 11 -21 41zM218 300q-11 23 -67 23q-13 0 -39 -1t-38 -1q-54 0 -54 27q0 18 11 26.5t28.5 11l39 5.5t43 13t39.5 28.5t30.5 58
t13.5 96.5q7 14 48 14q9 0 12.5 -1t7.5 -5.5t7 -14.5q0 -10 3.5 -61t3.5 -62v-41q0 -3 3.5 -6t7.5 -5l3 -2h171q4 0 12 -22t8 -33q0 -10 -16.5 -22t-31.5 -12h-143q-14 0 -14 -48q0 -10 -3.5 -68t-3.5 -68q-9 -21 -41 -21q-14 0 -24 16t-10 32q0 10 -3.5 71.5t-3.5 71.5z
" />
    <glyph glyph-name="twosuperior" unicode="&#xb2;" horiz-adv-x="277" 
d="M20 430q0 21 7 27q8 9 38.5 41t50 54.5t37.5 57.5t18 66q0 16 -14 28.5t-34 12.5q-11 0 -19 -9.5t-12.5 -21.5t-13.5 -21.5t-23 -9.5q-10 0 -15 5t-5.5 10.5t-0.5 18.5q0 39 32.5 60.5t76.5 21.5t66.5 -29t22.5 -73q0 -38 -29 -77t-58 -68.5t-29 -45.5v-7q22 -9 69 -9
q15 0 34 1t20 1q14 -14 14 -20q0 -12 -5.5 -23t-15.5 -11h-198q-14 0 -14 20z" />
    <glyph glyph-name="threesuperior" unicode="&#xb3;" horiz-adv-x="277" 
d="M27 437q0 14 4.5 17t16.5 3q14 0 36.5 -3t31.5 -3q36 0 52 16t16 52q0 23 -13 35t-28 14.5t-28 12t-13 27.5v6q7 3 20.5 7t19.5 7t14 9t11.5 15.5t3.5 23.5q0 10 -12.5 25.5t-21.5 15.5h-14q-27 -41 -62 -41q-9 0 -11 5t-2 22q0 34 24 51t58 17q26 0 60.5 -15.5
t34.5 -38.5v-96l-7 -13v-7q0 -13 17.5 -45.5t17.5 -50.5q0 -34 -24.5 -68t-57.5 -34h-103q-15 0 -28 11.5t-13 22.5z" />
    <glyph glyph-name="acute" unicode="&#xb4;" horiz-adv-x="276" 
d="M27 867q0 27 14 34q10 4 58 31.5t58 30.5q5 3 15.5 12t18.5 12t21 3q27 0 27 -41q0 -24 -74 -77t-97 -53q-15 0 -28 16t-13 32z" />
    <glyph glyph-name="mu" unicode="&#xb5;" horiz-adv-x="505" 
d="M34 410q0 61 41 61q28 0 48 -12t20 -36q0 -30 -13 -54v-232q0 -26 41.5 -37t74.5 -11q49 0 86 21t37 67v280q0 15 19 15q40 0 58 -17.5t18 -58.5q0 -4 -6.5 -21t-6.5 -20v-7l6 -27v-14q0 -37 -0.5 -57t-3.5 -57t-8.5 -59.5t-17.5 -51t-29 -44t-43.5 -27t-60.5 -11.5
q-25 0 -67.5 10t-62.5 10q-18 0 -26 -20t-8 -41q0 -7 -3.5 -55t-3.5 -54q-7 -14 -34 -14q-13 0 -22 4.5t-13 11t-6 18.5t-1.5 20.5t1 24.5t0.5 24q0 3 -7 194t-7 256v21z" />
    <glyph glyph-name="paragraph" unicode="&#xb6;" horiz-adv-x="503" 
d="M177 -191q0 9 14 21t14 27q7 75 7 218q0 10 0.5 42.5t1 55t-1.5 52t-7 48.5l-7 7q-92 38 -135 92t-43 147q0 211 233 211h47q46 -31 81 -166t35 -209l14 -451q0 -21 13.5 -53.5t13.5 -48.5q0 -27 -34 -27q-46 0 -54 34v57.5v66.5t-1 60t-4 68.5t-7.5 59.5t-11.5 67
t-17 58l-7 7q-34 -57 -34 -123v-253q0 -3 3.5 -21.5t3.5 -26.5l6 -20q0 -18 -28.5 -26t-53.5 -8q-14 0 -27.5 8t-13.5 26z" />
    <glyph glyph-name="periodcentered" unicode="&#xb7;" horiz-adv-x="214" 
d="M48 416q0 21 17 38t37 17h7l28 -7l34 -48q4 -9 -20 -35t-35 -26q-30 0 -49 17.5t-19 43.5z" />
    <glyph glyph-name="cedilla" unicode="&#xb8;" horiz-adv-x="560" 
d="M177 -164q0 16 2.5 18.5t18.5 2.5q21 0 40 -24t35 -24h14q28 14 34.5 25.5t6.5 35.5q0 21 -13 38.5t-28 28t-28 25.5t-13 31l7 7h75q16 0 29 -14t19.5 -34t9.5 -38t3 -30q0 -60 -32.5 -91.5t-90.5 -31.5h-48q-41 8 -41 75z" />
    <glyph glyph-name="onesuperior" unicode="&#xb9;" horiz-adv-x="271" 
d="M34 430q0 18 31 19.5t31 14.5v239q0 8 -16 8q-3 0 -11 -0.5t-12 -0.5q-37 0 -37 27q0 34 92 34h25q13 0 13 -6q0 -21 3.5 -130t3.5 -130q-7 -48 14 -48h68q7 -13 7 -20v-7q0 -9 -19 -14.5t-29 -5.5h-157q-3 0 -5 5t-2 10v5z" />
    <glyph glyph-name="ordmasculine" unicode="&#xba;" horiz-adv-x="370" 
d="M20 423v21q10 5 50.5 12.5t52.5 7.5h7q7 0 14.5 -5.5t12.5 -7.5h41h34q4 0 34.5 3t33.5 3q4 0 21 -3t20 -3q0 -3 3.5 -17t3.5 -18v-6q0 -9 -21 -18.5t-33 -9.5h-267q-7 7 -7 14v27zM48 649q0 56 36 89t93 33q64 0 104 -35.5t40 -100.5q0 -54 -45 -92t-99 -38
q-59 0 -94 42t-35 102zM96 642q0 -34 24 -51.5t57 -17.5q40 0 61 15t21 54q0 20 -8 47.5t-26 27.5h-95q-18 0 -26 -27.5t-8 -47.5z" />
    <glyph glyph-name="guillemotright" unicode="&#xbb;" horiz-adv-x="612" 
d="M157 300q0 32 -20.5 56t-44.5 34.5t-44.5 24t-20.5 29.5q0 28 8.5 41t32.5 13q27 0 88 -34.5t113 -81t52 -75.5q0 -34 -36.5 -72.5t-102 -85t-73.5 -53.5q-30 0 -59.5 11.5t-29.5 35.5v14q0 13 21.5 27.5t47 26.5t47 35.5t21.5 53.5zM423 300q0 32 -20 55t-44.5 32.5
t-44.5 24t-20 32.5q0 54 41 54q26 0 89 -37.5t116.5 -84t53.5 -69.5q0 -37 -21 -48q-14 -14 -99.5 -82t-98.5 -81q-30 0 -59 11.5t-29 35.5v14q0 16 21.5 29.5t46.5 24t46.5 34t21.5 55.5z" />
    <glyph glyph-name="onequarter" unicode="&#xbc;" horiz-adv-x="674" 
d="M457 -68q-13 0 -40.5 -3.5t-41.5 -3.5q-102 0 -102 61q0 31 54.5 135t82.5 104q8 0 11.5 -0.5t6 -3.5t2.5 -9q0 -31 -34 -89t-34 -89q0 -17 27.5 -25.5t47.5 -8.5q37 0 54 19t17.5 42.5t7 42.5t23.5 19q9 0 14.5 -15t9.5 -34.5t20.5 -43t44.5 -37.5q27 -20 27 -34
q0 -15 -13.5 -22t-31.5 -12.5t-23 -13.5q-4 -6 -10 -23.5t-14.5 -27.5t-23.5 -10q-14 0 -22.5 13t-13 28t-16.5 28t-30 13zM27 177q0 17 74 51l159 70.5t102 56.5l218 109l21 7q11 0 19 -5.5t8 -14.5q0 -4 -0.5 -6.5t-3 -5t-4 -3t-6 -3t-6.5 -3.5q-11 -7 -99.5 -51.5
t-98.5 -50.5q-61 -36 -205 -113.5t-157 -77.5q-21 0 -21 40zM109 416q-6 0 -13 6t-7 15q0 21 27.5 27t54.5 8t27 13v211l-7 14l-7 7h-82q-13 0 -13 34q0 41 98 41q28 0 39.5 -1t25 -7.5t17.5 -20.5t4 -39q0 -20 -3.5 -62.5t-3.5 -67.5q0 -48 9 -78.5t23 -41t29.5 -15
t29.5 -3t23 -3t9 -16.5l-7 -14q-47 -13 -143 -13q-82 0 -130 6z" />
    <glyph glyph-name="onehalf" unicode="&#xbd;" horiz-adv-x="628" 
d="M246 -109q0 34 26 58.5t63 40l74 32t63 43.5t26 65q0 61 -75 61q-30 0 -55.5 -15t-39 -32.5t-27 -32.5t-21.5 -15q-9 0 -15 10t-6 17q0 57 53.5 90t117.5 33q52 0 104.5 -34t52.5 -82q0 -10 -14 -36.5t-20 -32.5q-7 -3 -41.5 -27t-40.5 -27q-2 -1 -37 -14.5t-53.5 -28
t-18.5 -32.5q0 -14 7 -14h150q30 21 54 21q15 0 18 -5.5t3 -22.5q0 -46 -34 -54q-38 0 -105 -3.5t-100 -3.5h-25q-84 0 -84 41zM27 177q0 28 46.5 55t76.5 27q10 7 75 38t75 38q21 11 88.5 53.5t119.5 69.5t79 27q7 0 14 -6t7 -15q0 -39 -69 -54l-204 -103l-7 -7
q-89 -47 -123 -61q-5 -3 -32 -21t-45 -29t-42 -21.5t-38 -10.5q-21 0 -21 20zM89 423q-7 0 -7 14q0 22 48 27t54 21q7 47 7 109q0 11 0.5 32.5t0 28.5l-1.5 21.5t-4 19l-8 12.5t-13 10.5t-19.5 4.5t-27.5 2q-3 0 -10.5 -0.5t-11.5 -0.5l-28 27q-13 13 22 23q43 11 101 11h34
q21 -21 21 -27l13 -246q2 -25 20 -35.5t38 -9.5t36 -5.5t16 -24.5v-14q-41 -7 -137 -7q-95 0 -143 7z" />
    <glyph glyph-name="threequarters" unicode="&#xbe;" horiz-adv-x="674" 
d="M464 -68q-18 0 -47 -3.5t-42 -3.5q-21 0 -33.5 1t-31 6t-28 18.5t-9.5 35.5q0 38 56 138.5t81 100.5q27 0 27 -13q0 -32 -34 -88t-34 -83v-21q27 -13 82 -13h41q0 21 13 72t34 51q5 0 13 -8t8 -13q0 -6 6.5 -37t6.5 -38q5 -16 19 -24.5t27.5 -10.5t24.5 -11.5t11 -28.5
q0 -16 -9 -23.5t-20 -8t-22.5 -4t-16.5 -12.5q-3 -7 -10 -26.5t-15 -29t-23 -12.5q-6 4 -32.5 46.5t-42.5 42.5zM20 171q0 13 145 89t204 102l218 109h7q12 0 23 -5.5t11 -14.5q0 -14 -247 -143t-326 -165q-35 0 -35 28zM89 430q0 15 5 18t22 3t47.5 -3.5t48.5 -3.5h34
q54 26 54 68q0 55 -95 55q-14 12 -14 27q0 11 14 17.5t30.5 9.5t30.5 15t14 33v7q-10 20 -22 27t-33 7t-44.5 -20.5t-43.5 -20.5q-14 0 -21 7v20q0 37 32.5 53t76.5 16q54 0 88.5 -27t34.5 -76q0 -14 -6.5 -36.5t-6.5 -31.5q0 -12 20 -43t20 -53q0 -41 -28 -67t-63.5 -34
t-78.5 -8q-116 0 -116 41z" />
    <glyph glyph-name="questiondown" unicode="&#xbf;" horiz-adv-x="426" 
d="M20 89q0 41 17 78.5t42 67.5l50 60t45 70.5t24 85.5q0 8 13 8l14 -2q28 0 34 -13v-28q0 -44 -26 -87t-61.5 -89t-48.5 -83v-48q0 -71 16 -93.5t79 -22.5q42 0 62.5 16t24 39.5t5 46.5t13 39t39.5 16q18 0 29.5 -18t11.5 -36q0 -69 -61 -120t-130 -51q-76 0 -134 45
t-58 119zM130 621q0 17 16.5 42.5t30.5 25.5h82q14 0 21 -16.5t7 -30.5q0 -41 -27 -65t-69 -24q-19 0 -40 25.5t-21 42.5z" />
    <glyph glyph-name="Agrave" unicode="&#xc0;" horiz-adv-x="740" 
d="M20 27q96 103 110 150q20 67 63 168t76 193t45 172q34 34 55 34q18 0 73.5 -141.5l119 -313t87.5 -214.5q5 -11 40 -21.5t35 -33.5q0 -13 -17 -20t-31 -7h-184q-13 0 -27 6t-14 15q0 16 15 24t32.5 9.5t32.5 10t15 24.5q0 39 -11 66t-28 42t-45 23t-52.5 10t-60.5 2h-55
h-55q-48 -15 -48 -129q0 -18 15 -27t33 -10t33 -8.5t15 -23.5q0 -6 -14 -20q-164 -14 -184 -14h-41q-28 14 -28 34zM259 321v-21l7 -6h178q20 0 20 27v7q-3 12 -27 80.5t-27 83.5q-1 2 -5 15.5t-7.5 22t-9 20t-12 17.5t-14.5 6q-32 0 -67.5 -100.5t-35.5 -151.5zM164 915
q0 21 7.5 31t26.5 10q18 0 97.5 -52t79.5 -71q0 -15 -11.5 -28t-22.5 -13q-39 0 -108 44.5t-69 78.5z" />
    <glyph glyph-name="Aacute" unicode="&#xc1;" horiz-adv-x="740" 
d="M20 27q96 103 110 150q20 67 63 168t76 193t45 172q34 34 55 34q18 0 73.5 -141.5l119 -313t87.5 -214.5q5 -11 40 -21.5t35 -33.5q0 -13 -17 -20t-31 -7h-184q-13 0 -27 6t-14 15q0 16 15 24t32.5 9.5t32.5 10t15 24.5q0 39 -11 66t-28 42t-45 23t-52.5 10t-60.5 2h-55
h-55q-48 -15 -48 -129q0 -18 15 -27t33 -10t33 -8.5t15 -23.5q0 -6 -14 -20q-164 -14 -184 -14h-41q-28 14 -28 34zM259 321v-21l7 -6h178q20 0 20 27v7q-3 12 -27 80.5t-27 83.5q-1 2 -5 15.5t-7.5 22t-9 20t-12 17.5t-14.5 6q-32 0 -67.5 -100.5t-35.5 -151.5zM341 826
q0 34 14 41q96 48 109 55q2 1 26 17.5t36 16.5q13 0 20 -14t7 -27q0 -39 -67 -84.5t-111 -45.5q-10 0 -22 15t-12 26z" />
    <glyph glyph-name="Acircumflex" unicode="&#xc2;" horiz-adv-x="740" 
d="M20 27q96 103 110 150q20 67 63 168t76 193t45 172q34 34 55 34q18 0 73.5 -141.5l119 -313t87.5 -214.5q5 -11 40 -21.5t35 -33.5q0 -13 -17 -20t-31 -7h-184q-13 0 -27 6t-14 15q0 16 15 24t32.5 9.5t32.5 10t15 24.5q0 39 -11 66t-28 42t-45 23t-52.5 10t-60.5 2h-55
h-55q-48 -15 -48 -129q0 -18 15 -27t33 -10t33 -8.5t15 -23.5q0 -6 -14 -20q-164 -14 -184 -14h-41q-28 14 -28 34zM259 321v-21l7 -6h178q20 0 20 27v7q-3 12 -27 80.5t-27 83.5q-1 2 -5 15.5t-7.5 22t-9 20t-12 17.5t-14.5 6q-32 0 -67.5 -100.5t-35.5 -151.5zM369 847
q-14 0 -22.5 -9.5t-11.5 -21.5t-10 -21.5t-18 -9.5q-12 0 -23 5.5t-11 15.5q0 41 30 87.5t66 62.5q88 -73 88 -144q0 -34 -20 -34q-14 0 -23 11t-13.5 23.5t-12.5 23.5t-19 11z" />
    <glyph glyph-name="Atilde" unicode="&#xc3;" horiz-adv-x="740" 
d="M20 20q0 11 38 47.5t44 48.5q17 34 76 197.5t112.5 297t71.5 133.5q23 0 79 -143l116.5 -312.5t84.5 -206.5q5 -11 43.5 -27t38.5 -35q0 -31 -69 -31q-18 0 -44.5 2t-30.5 2q-2 0 -16.5 -0.5t-25.5 -0.5q-87 0 -87 22q0 16 15 24t32.5 10.5t32.5 12.5t15 28
q0 40 -17.5 77.5t-50.5 51.5q-136 14 -191 14q-58 0 -77 -31t-19 -99v-27q7 -9 22.5 -13t30 -5t25.5 -6t11 -17q0 -41 -156 -41h-42q-62 0 -62 27zM259 294q7 0 41.5 -3.5t40.5 -3.5h14h14q6 0 40.5 3.5t41.5 3.5q13 6 13 27v14q-6 17 -19 59l-20.5 64.5t-21.5 55.5t-28 59
h-13q-15 0 -62 -94.5t-47 -116.5v-14q0 -4 3 -27.5t3 -26.5zM205 799q-28 17 -28 48q0 17 8 27t25.5 14t29.5 5t33 1q24 0 72 -3.5t71 -3.5q20 0 65 3.5t65 3.5q55 0 55 -47q0 -61 -117 -61q-25 0 -65.5 3t-49.5 3q-103 0 -164 7z" />
    <glyph glyph-name="Adieresis" unicode="&#xc4;" horiz-adv-x="740" 
d="M20 27q96 103 110 150q20 67 63 168t76 193t45 172q34 34 55 34q18 0 73.5 -141.5l119 -313t87.5 -214.5q5 -11 40 -21.5t35 -33.5q0 -13 -17 -20t-31 -7h-184q-13 0 -27 6t-14 15q0 16 15 24t32.5 9.5t32.5 10t15 24.5q0 39 -11 66t-28 42t-45 23t-52.5 10t-60.5 2h-55
h-55q-48 -15 -48 -129q0 -18 15 -27t33 -10t33 -8.5t15 -23.5q0 -6 -14 -20q-164 -14 -184 -14h-41q-28 14 -28 34zM259 321v-21l7 -6h178q20 0 20 27v7q-3 12 -27 80.5t-27 83.5q-1 2 -5 15.5t-7.5 22t-9 20t-12 17.5t-14.5 6q-32 0 -67.5 -100.5t-35.5 -151.5zM444 867
q0 13 23.5 34.5t37.5 21.5q25 0 40 -24.5t15 -51.5q0 -23 -15.5 -42.5t-39.5 -19.5q-25 0 -43 25t-18 57zM177 860q0 20 20.5 37.5t41.5 17.5q25 0 40 -14.5t15 -40.5q0 -49 -28 -68h-20q-27 0 -48 19t-21 49z" />
    <glyph glyph-name="Aring" unicode="&#xc5;" horiz-adv-x="740" 
d="M20 27q96 103 110 150q20 67 63 168t76 193t45 172q34 34 55 34q18 0 73.5 -141.5l119 -313t87.5 -214.5q5 -11 40 -21.5t35 -33.5q0 -13 -17 -20t-31 -7h-184q-13 0 -27 6t-14 15q0 16 15 24t32.5 9.5t32.5 10t15 24.5q0 39 -11 66t-28 42t-45 23t-52.5 10t-60.5 2h-55
h-55q-48 -15 -48 -129q0 -18 15 -27t33 -10t33 -8.5t15 -23.5q0 -6 -14 -20q-164 -14 -184 -14h-41q-28 14 -28 34zM259 321v-21l7 -6h178q20 0 20 27v7q-3 12 -27 80.5t-27 83.5q-1 2 -5 15.5t-7.5 22t-9 20t-12 17.5t-14.5 6q-32 0 -67.5 -100.5t-35.5 -151.5zM266 908
l62 61h34q48 0 71.5 -19.5t23.5 -68.5q0 -35 -22 -65.5t-60 -30.5q-46 0 -77.5 36t-31.5 87zM321 881q0 -21 13.5 -34.5t34.5 -13.5q47 0 47 54q0 41 -47 41q-31 0 -39.5 -8t-8.5 -39z" />
    <glyph glyph-name="AE" unicode="&#xc6;" horiz-adv-x="919" 
d="M492 -7q-13 0 -27 6t-14 15q0 16 13.5 24t30.5 10.5t30.5 12.5t13.5 28q0 45 -12.5 73.5t-38.5 41.5t-52 17.5t-66 4.5q-12 0 -37.5 -0.5t-38.5 -0.5h-62q-41 -33 -41 -123v-27q5 -11 20 -15t30 -3.5t27 -6.5t12 -23q0 -21 -9 -21q-3 0 -5 1q-28 -2 -65 -6t-61 -6t-51 -2
h-41q-28 14 -28 34q0 3 21 24.5t45 49t30 42.5q15 40 70 169t85.5 220.5t42.5 177.5q27 27 41 34q96 7 266 7q164 0 253 -7q20 -7 20 -61q0 -33 -12.5 -78t-34.5 -45q-24 0 -33.5 20.5t-14 47t-14.5 34.5q-75 21 -225 21h-75l-55 -7l-7 -7l69 -205q10 -28 66 -28
q6 0 15.5 0.5t13.5 0.5q15 0 24.5 1t18 1t14 4.5t9.5 6t9 11l7 13.5t9 20l11 25h7q14 0 21 -14v-68q0 -3 1 -24.5t1.5 -43t0 -44.5t-4.5 -37.5t-12 -14.5q-11 0 -21.5 15t-20 33t-32.5 33t-56 15q-1 0 -7.5 0.5t-11.5 0.5q-17 0 -22 -8q9 -20 27 -79.5t33 -103.5t43 -81
t61 -37q41 0 66 6.5t40.5 24.5t23 37t18.5 58q2 7 3 11q6 14 20 14q10 0 17.5 -4.5t11.5 -14t7 -18t4 -23l1.5 -21.5t0 -20.5t-0.5 -14.5q0 -25 -1.5 -38.5t-7 -33t-20.5 -29t-39 -9.5h-14q-24 0 -167.5 3.5t-166.5 3.5zM259 321v-21l7 -6h178q20 0 20 27q-1 3 -22.5 75
t-43 124.5t-36.5 52.5q-31 0 -67 -108.5t-36 -143.5z" />
    <glyph glyph-name="Ccedilla" unicode="&#xc7;" horiz-adv-x="584" 
d="M20 348q0 52 12.5 105.5t38.5 103t61.5 88t84.5 62t104 23.5q232 0 232 -47l7 -151q0 -13 -14 -20t-27 -7q-11 0 -19 16t-17 39.5t-23 46.5t-44.5 39t-74.5 16q-66 0 -111 -27t-67.5 -76t-31 -100.5t-8.5 -117.5q0 -32 3 -65t13 -75.5t26.5 -75t46 -55t68.5 -22.5h109
q33 0 55 27.5t31.5 61t22 61t28.5 27.5q10 0 22 -12t12 -22v-116q0 -26 -57 -52t-100 -37v-13q0 -28 10 -79t10 -78q0 -14 -41 -14q-27 0 -44.5 34.5t-31 79t-26.5 57.5l-14 7q-121 40 -183.5 136.5t-62.5 231.5z" />
    <glyph glyph-name="Egrave" unicode="&#xc8;" horiz-adv-x="618" 
d="M61 -7q-9 0 -14.5 8t-5.5 19q0 12 17 24t34 18l17 6l7 28v170v266q0 7 -3.5 55t-3.5 55q-5 11 -47 21t-42 33v7q0 3 2 6.5t4 5.5l1 2l41 7h458q35 0 48 -13t13 -49q0 -37 -11 -80t-37 -43q-21 0 -29.5 19t-13 44t-11.5 33q-23 23 -110 23q-21 0 -49.5 -1.5t-31.5 -1.5
h-69l-7 -6q-13 -110 -13 -151q0 -58 10 -70t65 -12q35 0 57 13t29 28t14.5 28t15.5 13q3 0 5 -0.5t4 -1.5l3 -1.5t2 -2.5t1.5 -3.5t2 -5t2.5 -5.5v-62q0 -88 -6 -143q0 -7 -14 -7q-11 0 -21.5 14t-19.5 30.5t-30.5 30.5t-51.5 14h-41q-20 -20 -27 -34q-7 -55 -7 -116
q0 -62 7 -116q0 -6 7.5 -17t12.5 -11h205q22 0 47 10t35 25q1 4 5.5 24t9 35t15.5 29t25 14q8 0 14.5 -4.5t10 -14t6 -18.5t3 -22.5t1 -21.5t0 -20.5t-0.5 -14.5q0 -45 -13.5 -70.5t-55.5 -25.5h-27q-34 0 -221.5 3.5t-222.5 3.5zM171 908q0 17 9.5 32.5t24.5 15.5t92 -48
t92 -68v-7q0 -19 -12 -30t-29 -11q-34 0 -105.5 43.5t-71.5 72.5z" />
    <glyph glyph-name="Eacute" unicode="&#xc9;" horiz-adv-x="618" 
d="M61 -7q-9 0 -14.5 8t-5.5 19q0 12 17 24t34 18l17 6l7 28v170v266q0 7 -3.5 55t-3.5 55q-5 11 -47 21t-42 33v7q0 3 2 6.5t4 5.5l1 2l41 7h458q35 0 48 -13t13 -49q0 -37 -11 -80t-37 -43q-21 0 -29.5 19t-13 44t-11.5 33q-23 23 -110 23q-21 0 -49.5 -1.5t-31.5 -1.5
h-69l-7 -6q-13 -110 -13 -151q0 -58 10 -70t65 -12q35 0 57 13t29 28t14.5 28t15.5 13q3 0 5 -0.5t4 -1.5l3 -1.5t2 -2.5t1.5 -3.5t2 -5t2.5 -5.5v-62q0 -88 -6 -143q0 -7 -14 -7q-11 0 -21.5 14t-19.5 30.5t-30.5 30.5t-51.5 14h-41q-20 -20 -27 -34q-7 -55 -7 -116
q0 -62 7 -116q0 -6 7.5 -17t12.5 -11h205q22 0 47 10t35 25q1 4 5.5 24t9 35t15.5 29t25 14q8 0 14.5 -4.5t10 -14t6 -18.5t3 -22.5t1 -21.5t0 -20.5t-0.5 -14.5q0 -45 -13.5 -70.5t-55.5 -25.5h-27q-34 0 -221.5 3.5t-222.5 3.5zM198 826q0 34 14 41q66 24 157 89
q23 0 32 -8.5t9 -32.5q0 -7 -3 -14t-6.5 -11.5t-11 -11t-11 -9l-13 -9t-10.5 -7.5q-24 -22 -109 -68h-7q-15 0 -28 14.5t-13 26.5z" />
    <glyph glyph-name="Ecircumflex" unicode="&#xca;" horiz-adv-x="618" 
d="M61 -7q-9 0 -14.5 8t-5.5 19q0 12 17 24t34 18l17 6l7 28v170v266q0 7 -3.5 55t-3.5 55q-5 11 -47 21t-42 33v7q0 3 2 6.5t4 5.5l1 2l41 7h458q35 0 48 -13t13 -49q0 -37 -11 -80t-37 -43q-21 0 -29.5 19t-13 44t-11.5 33q-23 23 -110 23q-21 0 -49.5 -1.5t-31.5 -1.5
h-69l-7 -6q-13 -110 -13 -151q0 -58 10 -70t65 -12q35 0 57 13t29 28t14.5 28t15.5 13q3 0 5 -0.5t4 -1.5l3 -1.5t2 -2.5t1.5 -3.5t2 -5t2.5 -5.5v-62q0 -88 -6 -143q0 -7 -14 -7q-11 0 -21.5 14t-19.5 30.5t-30.5 30.5t-51.5 14h-41q-20 -20 -27 -34q-7 -55 -7 -116
q0 -62 7 -116q0 -6 7.5 -17t12.5 -11h205q22 0 47 10t35 25q1 4 5.5 24t9 35t15.5 29t25 14q8 0 14.5 -4.5t10 -14t6 -18.5t3 -22.5t1 -21.5t0 -20.5t-0.5 -14.5q0 -45 -13.5 -70.5t-55.5 -25.5h-27q-34 0 -221.5 3.5t-222.5 3.5zM341 847h-13q-14 0 -22.5 -9.5t-11.5 -21.5
t-10 -21.5t-18 -9.5q-10 0 -22 8t-12 13q0 32 32 91t64 59q5 0 23.5 -22t23.5 -33l41 -82v-7q0 -12 -5 -23t-15 -11q-8 0 -15.5 5.5t-14 15.5t-10.5 17t-10 19z" />
    <glyph glyph-name="Edieresis" unicode="&#xcb;" horiz-adv-x="618" 
d="M61 -7q-9 0 -14.5 8t-5.5 19q0 12 17 24t34 18l17 6l7 28v170v266q0 7 -3.5 55t-3.5 55q-5 11 -47 21t-42 33v7q0 3 2 6.5t4 5.5l1 2l41 7h458q35 0 48 -13t13 -49q0 -37 -11 -80t-37 -43q-21 0 -29.5 19t-13 44t-11.5 33q-23 23 -110 23q-21 0 -49.5 -1.5t-31.5 -1.5
h-69l-7 -6q-13 -110 -13 -151q0 -58 10 -70t65 -12q35 0 57 13t29 28t14.5 28t15.5 13q3 0 5 -0.5t4 -1.5l3 -1.5t2 -2.5t1.5 -3.5t2 -5t2.5 -5.5v-62q0 -88 -6 -143q0 -7 -14 -7q-11 0 -21.5 14t-19.5 30.5t-30.5 30.5t-51.5 14h-41q-20 -20 -27 -34q-7 -55 -7 -116
q0 -62 7 -116q0 -6 7.5 -17t12.5 -11h205q22 0 47 10t35 25q1 4 5.5 24t9 35t15.5 29t25 14q8 0 14.5 -4.5t10 -14t6 -18.5t3 -22.5t1 -21.5t0 -20.5t-0.5 -14.5q0 -45 -13.5 -70.5t-55.5 -25.5h-27q-34 0 -221.5 3.5t-222.5 3.5zM396 867q0 15 19.5 35t35.5 20q25 0 43 -18
t18 -44q0 -24 -15.5 -49.5t-39.5 -25.5q-23 0 -42 29.5t-19 52.5zM130 860q0 26 18 44t43 18t40 -18t15 -44q0 -68 -62 -68q-19 0 -36.5 23.5t-17.5 44.5z" />
    <glyph glyph-name="Igrave" unicode="&#xcc;" horiz-adv-x="540" 
d="M61 34q0 11 10 19t25 8h81q7 0 28 21q0 30 6.5 204.5t6.5 205.5q0 3 3.5 37t3.5 38v13v7q0 3 -6.5 24t-6.5 24q-11 8 -60 13.5t-90.5 14.5t-41.5 26q0 10 12 19t23 9q102 13 307 13h30q86 0 86 -34q0 -27 -39.5 -36t-80.5 -10t-44 -8l-7 -14q-7 -109 -7 -157
q0 -250 7 -375q4 -24 28 -32t65 -8h42q37 0 57 -7t20 -29q0 -9 -7.5 -14.5t-13.5 -5.5q-7 0 -32.5 -3.5t-28.5 -3.5h-348q-14 0 -21 13.5t-7 27.5zM61 901v7q0 13 14 41h21q21 0 102.5 -50.5t81.5 -65.5t-12 -31.5t-22 -16.5q-43 0 -99.5 38t-85.5 78z" />
    <glyph glyph-name="Iacute" unicode="&#xcd;" horiz-adv-x="540" 
d="M61 34q0 11 10 19t25 8h81q7 0 28 21q0 30 6.5 204.5t6.5 205.5q0 3 3.5 37t3.5 38v13v7q0 3 -6.5 24t-6.5 24q-11 8 -60 13.5t-90.5 14.5t-41.5 26q0 10 12 19t23 9q102 13 307 13h30q86 0 86 -34q0 -27 -39.5 -36t-80.5 -10t-44 -8l-7 -14q-7 -109 -7 -157
q0 -250 7 -375q4 -24 28 -32t65 -8h42q37 0 57 -7t20 -29q0 -9 -7.5 -14.5t-13.5 -5.5q-7 0 -32.5 -3.5t-28.5 -3.5h-348q-14 0 -21 13.5t-7 27.5zM225 833q0 23 21 34l102 55q2 1 26 17.5t36 16.5q14 0 24 -14.5t10 -26.5q0 -38 -74 -84t-111 -46q-10 0 -22 16.5t-12 31.5z
" />
    <glyph glyph-name="Icircumflex" unicode="&#xce;" horiz-adv-x="540" 
d="M61 34q0 11 10 19t25 8h81q7 0 28 21q0 30 6.5 204.5t6.5 205.5q0 3 3.5 37t3.5 38v13v7q0 3 -6.5 24t-6.5 24q-11 8 -60 13.5t-90.5 14.5t-41.5 26q0 10 12 19t23 9q102 13 307 13h30q86 0 86 -34q0 -27 -39.5 -36t-80.5 -10t-44 -8l-7 -14q-7 -109 -7 -157
q0 -250 7 -375q4 -24 28 -32t65 -8h42q37 0 57 -7t20 -29q0 -9 -7.5 -14.5t-13.5 -5.5q-7 0 -32.5 -3.5t-28.5 -3.5h-348q-14 0 -21 13.5t-7 27.5zM259 853q-29 0 -47 -61h-7q-14 0 -21 0.5t-13.5 5.5t-6.5 14q0 33 31.5 92t63.5 59q20 0 54.5 -60t34.5 -84
q0 -11 -5.5 -22.5t-14.5 -11.5q-16 0 -26 10.5t-13.5 23.5t-10.5 23.5t-19 10.5z" />
    <glyph glyph-name="Idieresis" unicode="&#xcf;" horiz-adv-x="540" 
d="M61 34q0 11 10 19t25 8h81q7 0 28 21q0 30 6.5 204.5t6.5 205.5q0 3 3.5 37t3.5 38v13v7q0 3 -6.5 24t-6.5 24q-11 8 -60 13.5t-90.5 14.5t-41.5 26q0 10 12 19t23 9q102 13 307 13h30q86 0 86 -34q0 -27 -39.5 -36t-80.5 -10t-44 -8l-7 -14q-7 -109 -7 -157
q0 -250 7 -375q4 -24 28 -32t65 -8h42q37 0 57 -7t20 -29q0 -9 -7.5 -14.5t-13.5 -5.5q-7 0 -32.5 -3.5t-28.5 -3.5h-348q-14 0 -21 13.5t-7 27.5zM335 867q0 11 22 33t32 22q29 0 45.5 -20.5t16.5 -48.5q0 -24 -12.5 -46t-35.5 -22q-28 0 -45 25.5t-23 56.5zM75 860
q0 55 62 55q22 0 38 -12t16 -36q0 -33 -16 -54t-45 -21q-20 0 -37.5 23t-17.5 45z" />
    <glyph glyph-name="Eth" unicode="&#xd0;" horiz-adv-x="652" 
d="M34 14q0 14 37.5 27.5t44.5 26.5q0 11 3.5 58.5t3.5 57.5q0 38 -10 64.5t-24 40.5t-28 24.5t-24 23.5t-10 32l7 6l68 21q12 4 19 19.5t9 40t2 44t-1 44.5t-1 29v41q-2 18 -19 28t-35.5 12.5t-33.5 10.5t-15 24q0 35 48 35q60 0 107 -2.5t101 -8.5t95.5 -18.5t83.5 -31.5
t72 -48t53.5 -67t35.5 -90.5t12 -116.5q0 -54 -24.5 -130t-72 -142t-101.5 -76q-40 -8 -114 -8q-18 0 -53.5 0.5t-51.5 0.5h-150q-34 14 -34 28zM212 75q0 -28 53 -28q6 0 13.5 0.5t8.5 0.5q64 0 112.5 25.5t76.5 69.5t42 97.5t14 114.5q0 122 -61.5 208t-176.5 86
q-58 0 -70 -18t-12 -85q0 -12 0.5 -29t3.5 -50.5t10.5 -55.5t19.5 -22h95q14 0 21 -10.5t7 -23.5q0 -22 -17.5 -31.5t-42.5 -10.5t-50.5 -3t-43 -15.5t-17.5 -41.5q0 -23 7 -96.5t7 -81.5z" />
    <glyph glyph-name="Ntilde" unicode="&#xd1;" horiz-adv-x="662" 
d="M191 553q-20 0 -20 -7q-7 -54 -7 -177q0 -151 13 -253q5 -20 24.5 -31t39.5 -13.5t36.5 -13t16.5 -31.5q0 -34 -126 -34h-38h-29q-74 0 -74 34q0 14 14 24l29.5 20.5t18.5 24.5q5 33 7 80.5t1.5 83t-1 87.5t-0.5 69v212q2 18 -9.5 27t-26.5 10t-27.5 8t-12.5 23
q0 22 14 34h34q6 0 23 0.5t27 0.5q50 0 73 -14q20 -11 62.5 -88.5t83.5 -163.5t87 -156t74 -70h7q7 55 7 164q0 14 1.5 54.5t1.5 65.5t-5.5 57.5t-17.5 54.5q-6 11 -51 24.5t-45 36.5q0 21 7 21q48 7 109 7q68 0 123 -7q7 0 7 -21q0 -16 -15.5 -31.5t-31 -39t-15.5 -58.5v-7
q7 -28 7 -34q0 -4 -3.5 -31t-3.5 -31v-82q0 -44 3.5 -132.5t3.5 -133.5q0 -68 -7 -109q-10 -21 -41 -21q-18 0 -67.5 88.5t-101 195t-104 195t-75.5 88.5zM123 853v21q5 9 20.5 14.5t27.5 5.5h348q9 0 18 -15t9 -26q0 -32 -19.5 -43t-55.5 -11h-314q-18 0 -26 17t-8 37z" />
    <glyph glyph-name="Ograve" unicode="&#xd2;" horiz-adv-x="628" 
d="M20 362q0 68 15.5 134.5t47 126.5t88 97.5t129.5 37.5q62 0 113.5 -23t87 -61.5t60 -89.5t36 -107t11.5 -115q0 -134 -76 -273q-30 -11 -57 -29t-44 -32t-52.5 -24.5t-84.5 -10.5q-73 0 -128.5 33t-86 88t-45 117.5t-14.5 130.5zM307 683q-74 0 -129 -65.5t-55 -139.5
v-219q0 -73 58 -135.5t133 -62.5q45 0 80.5 20.5t57 52.5t35.5 75t19.5 83.5t5.5 82.5q0 53 -10.5 103.5t-32.5 98.5t-64 77t-98 29zM109 908q0 19 2 29t11.5 18t27.5 8q17 0 94 -54.5t77 -68.5q0 -16 -8.5 -32t-18.5 -16q-42 0 -97.5 39t-87.5 77z" />
    <glyph glyph-name="Oacute" unicode="&#xd3;" horiz-adv-x="628" 
d="M20 362q0 68 15.5 134.5t47 126.5t88 97.5t129.5 37.5q62 0 113.5 -23t87 -61.5t60 -89.5t36 -107t11.5 -115q0 -134 -76 -273q-30 -11 -57 -29t-44 -32t-52.5 -24.5t-84.5 -10.5q-73 0 -128.5 33t-86 88t-45 117.5t-14.5 130.5zM307 683q-74 0 -129 -65.5t-55 -139.5
v-219q0 -73 58 -135.5t133 -62.5q45 0 80.5 20.5t57 52.5t35.5 75t19.5 83.5t5.5 82.5q0 53 -10.5 103.5t-32.5 98.5t-64 77t-98 29zM287 833q0 20 7 34q28 14 82.5 48.5t80.5 47.5h7q34 0 34 -55q-61 -72 -177 -123q-21 11 -27.5 19.5t-6.5 28.5z" />
    <glyph glyph-name="Ocircumflex" unicode="&#xd4;" horiz-adv-x="628" 
d="M20 362q0 68 15.5 134.5t47 126.5t88 97.5t129.5 37.5q62 0 113.5 -23t87 -61.5t60 -89.5t36 -107t11.5 -115q0 -134 -76 -273q-30 -11 -57 -29t-44 -32t-52.5 -24.5t-84.5 -10.5q-73 0 -128.5 33t-86 88t-45 117.5t-14.5 130.5zM307 683q-74 0 -129 -65.5t-55 -139.5
v-219q0 -73 58 -135.5t133 -62.5q45 0 80.5 20.5t57 52.5t35.5 75t19.5 83.5t5.5 82.5q0 53 -10.5 103.5t-32.5 98.5t-64 77t-98 29zM212 812q0 38 29 91t66 53q8 0 18 -9t18.5 -21.5t18 -29.5t15.5 -30l12 -26t7 -14v-7q0 -14 -8.5 -24t-18.5 -10q-14 0 -22.5 10.5
t-11.5 23.5t-10 23.5t-18 10.5q-14 0 -22 -10.5t-10.5 -23.5t-7.5 -23.5t-14 -10.5q-41 0 -41 27z" />
    <glyph glyph-name="Otilde" unicode="&#xd5;" horiz-adv-x="628" 
d="M20 369q0 69 15.5 132t47.5 118t87.5 92t129.5 47q20 2 29 2q53 0 100 -27t79 -70t55 -96t34 -106t11 -99q0 -102 -33.5 -184t-106 -133.5t-174.5 -51.5q-57 0 -104 23t-78 60t-52.5 86.5t-30.5 101.5t-9 105zM116 369q0 -308 191 -308q61 0 103.5 29t63.5 78.5t29.5 99
t8.5 107.5q0 73 -18 130t-57 130q-12 4 -58.5 26t-78.5 22q-184 0 -184 -314zM82 853q0 41 48 41h355q8 0 14 -16t6 -25q0 -33 -16.5 -43.5t-51.5 -10.5h-314q-19 0 -30 16t-11 38z" />
    <glyph glyph-name="Odieresis" unicode="&#xd6;" horiz-adv-x="628" 
d="M20 362q0 68 15.5 134.5t47 126.5t88 97.5t129.5 37.5q62 0 113.5 -23t87 -61.5t60 -89.5t36 -107t11.5 -115q0 -134 -76 -273q-30 -11 -57 -29t-44 -32t-52.5 -24.5t-84.5 -10.5q-73 0 -128.5 33t-86 88t-45 117.5t-14.5 130.5zM307 683q-74 0 -129 -65.5t-55 -139.5
v-219q0 -73 58 -135.5t133 -62.5q45 0 80.5 20.5t57 52.5t35.5 75t19.5 83.5t5.5 82.5q0 53 -10.5 103.5t-32.5 98.5t-64 77t-98 29zM389 867v7l34 34l21 14q14 0 31.5 -12t22.5 -23v-27q0 -75 -47 -75q-28 0 -45 26.5t-17 55.5zM123 853q0 30 17 46t44 16q26 0 40.5 -14.5
t14.5 -40.5q0 -68 -55 -68q-24 0 -42.5 20t-18.5 41z" />
    <glyph glyph-name="multiply" unicode="&#xd7;" horiz-adv-x="429" 
d="M27 225q10 14 37.5 44.5t37.5 44.5v14q-5 5 -27.5 23.5t-31.5 32t-9 32.5q0 17 10 32.5t24 15.5q35 0 75.5 -37.5t74.5 -37.5q27 0 66.5 34t70.5 34q41 0 41 -41q0 -12 -12 -29t-28.5 -35t-20.5 -24v-7q0 -18 17 -34t34 -28t17 -20q0 -20 -16.5 -44t-31.5 -24
q-27 0 -89 41h-102q-12 0 -39.5 -19.5t-35.5 -21.5q-43 0 -62 54z" />
    <glyph glyph-name="Oslash" unicode="&#xd8;" horiz-adv-x="628" 
d="M123 -109q0 24 12.5 75.5t14.5 60.5v7q-130 112 -130 335q0 69 15.5 132t47.5 118t87.5 92t129.5 47q4 1 13 1q13 0 44 -7.5t46 -7.5q14 0 21.5 10.5t10 23.5t11.5 23.5t25 10.5q11 0 26 -12t15 -22q0 -16 -13 -41l-14 -27v-7v-7q123 -143 123 -334q0 -168 -90 -269.5
t-252 -101.5q-13 0 -41 2q-2 -5 -9.5 -36t-13.5 -46.5t-21.5 -31.5t-37.5 -16q-20 0 -20 28zM253 82q0 -22 36 -22q4 0 10 0.5t8 0.5q61 0 103.5 29t63.5 78.5t29.5 99t8.5 107.5q0 52 -17 139t-51 87q-6 -6 -98.5 -255.5t-92.5 -263.5zM116 369q0 -57 17 -155t51 -98
q15 0 103 248.5t88 277.5q0 15 -6 24t-19 12t-22.5 4t-27.5 1q-184 0 -184 -314z" />
    <glyph glyph-name="Ugrave" unicode="&#xd9;" 
d="M116 143q0 31 -3.5 195t-3.5 194q0 11 -3.5 62t-3.5 61q-5 11 -43.5 25t-38.5 37q0 9 12 18t23 9h184q7 0 34 -27q0 -19 -8 -26t-17.5 -6t-20.5 -2t-15 -14q-7 -17 -11 -44t-4 -45.5t0.5 -51.5t0.5 -36q0 -253 14 -376q28 -48 82 -68h54q108 0 143 46.5t35 158.5
q0 30 -7 194t-7 195q-2 14 -15.5 23.5t-28 14t-26.5 14t-12 23.5l7 7l14 6h204q3 0 5 -5t2 -10v-5q0 -11 -10.5 -23t-23.5 -22t-23.5 -29t-10.5 -42l-14 -471q0 -41 -25 -72t-64 -47t-77 -23.5t-73 -7.5q-99 0 -154.5 40t-70.5 130zM164 915q0 13 1 20t7 14t19 7
q19 0 105 -52.5t86 -70.5q0 -16 -12.5 -28.5t-28.5 -12.5q-37 0 -107 42.5t-70 80.5z" />
    <glyph glyph-name="Uacute" unicode="&#xda;" 
d="M116 143q0 31 -3.5 195t-3.5 194q0 11 -3.5 62t-3.5 61q-5 11 -43.5 25t-38.5 37q0 9 12 18t23 9h184q7 0 34 -27q0 -19 -8 -26t-17.5 -6t-20.5 -2t-15 -14q-7 -17 -11 -44t-4 -45.5t0.5 -51.5t0.5 -36q0 -253 14 -376q28 -48 82 -68h54q108 0 143 46.5t35 158.5
q0 30 -7 194t-7 195q-2 14 -15.5 23.5t-28 14t-26.5 14t-12 23.5l7 7l14 6h204q3 0 5 -5t2 -10v-5q0 -11 -10.5 -23t-23.5 -22t-23.5 -29t-10.5 -42l-14 -471q0 -41 -25 -72t-64 -47t-77 -23.5t-73 -7.5q-99 0 -154.5 40t-70.5 130zM348 833q0 19 84.5 71t106.5 52
q28 0 28 -41q0 -7 -3 -14t-6.5 -11.5t-11 -11t-11 -9l-13 -9t-10.5 -7.5q-24 -22 -109 -68q-20 0 -37.5 14.5t-17.5 33.5z" />
    <glyph glyph-name="Ucircumflex" unicode="&#xdb;" 
d="M116 143q0 31 -3.5 195t-3.5 194q0 11 -3.5 62t-3.5 61q-5 11 -43.5 25t-38.5 37q0 9 12 18t23 9h184q7 0 34 -27q0 -19 -8 -26t-17.5 -6t-20.5 -2t-15 -14q-7 -17 -11 -44t-4 -45.5t0.5 -51.5t0.5 -36q0 -253 14 -376q28 -48 82 -68h54q108 0 143 46.5t35 158.5
q0 30 -7 194t-7 195q-2 14 -15.5 23.5t-28 14t-26.5 14t-12 23.5l7 7l14 6h204q3 0 5 -5t2 -10v-5q0 -11 -10.5 -23t-23.5 -22t-23.5 -29t-10.5 -42l-14 -471q0 -41 -25 -72t-64 -47t-77 -23.5t-73 -7.5q-99 0 -154.5 40t-70.5 130zM266 812q0 38 29.5 91t66.5 53
q10 0 21 -10.5t21.5 -28t18.5 -33.5l17 -35l11 -23v-7q0 -15 -8.5 -24.5t-19.5 -9.5q-17 0 -48 62h-34l-34 -62q-14 0 -27.5 7.5t-13.5 19.5z" />
    <glyph glyph-name="Udieresis" unicode="&#xdc;" 
d="M116 143q0 31 -3.5 195t-3.5 194q0 11 -3.5 62t-3.5 61q-5 11 -43.5 25t-38.5 37q0 9 12 18t23 9h184q7 0 34 -27q0 -19 -8 -26t-17.5 -6t-20.5 -2t-15 -14q-7 -17 -11 -44t-4 -45.5t0.5 -51.5t0.5 -36q0 -253 14 -376q28 -48 82 -68h54q108 0 143 46.5t35 158.5
q0 30 -7 194t-7 195q-2 14 -15.5 23.5t-28 14t-26.5 14t-12 23.5l7 7l14 6h204q3 0 5 -5t2 -10v-5q0 -11 -10.5 -23t-23.5 -22t-23.5 -29t-10.5 -42l-14 -471q0 -41 -25 -72t-64 -47t-77 -23.5t-73 -7.5q-99 0 -154.5 40t-70.5 130zM437 867v7l48 48q61 0 61 -69
q0 -28 -12 -48t-36 -20q-28 0 -44.5 26.5t-16.5 55.5zM171 860q0 25 17.5 40t43.5 15t40.5 -14.5t14.5 -40.5q0 -29 -13.5 -48.5t-41.5 -19.5q-29 0 -45 20t-16 48z" />
    <glyph glyph-name="Yacute" unicode="&#xdd;" 
d="M205 20q0 18 16 27t35 11t35 11t16 27v225q0 12 -102 181t-116 174q-4 1 -17.5 3.5t-19.5 4.5t-15 7t-13 13t-4 20q0 18 20 26t42 8q10 0 30.5 -3.5t30.5 -3.5q6 0 21.5 3.5t26.5 3.5q25 0 53.5 -8t28.5 -26q0 -16 -10 -22.5t-27 -10.5t-24 -8v-14q0 -30 67 -141.5
t83 -111.5q33 0 88 101t55 138q0 14 -11.5 21.5t-26 10.5t-26 12t-11.5 25q0 9 8 14.5t19 5.5q7 0 79 7t99 7q14 0 20.5 -11t6.5 -23q0 -24 -35.5 -50.5t-39.5 -31.5q-47 -61 -115.5 -186.5t-68.5 -175.5q0 -130 13 -198q8 -13 45 -16t68 -9t31 -30q0 -44 -122 -44
q-22 0 -51.5 1.5t-31.5 1.5h-26q-124 0 -124 34zM348 826q0 34 14 41q1 0 73.5 44.5t96.5 44.5q14 0 21 -14t7 -27q0 -23 -78.5 -76.5t-106.5 -53.5l-10.5 10.5t-8 7.5t-5 5.5t-3 7.5t-0.5 10z" />
    <glyph glyph-name="Thorn" unicode="&#xde;" horiz-adv-x="628" 
d="M48 7q0 18 15 27.5t32.5 11.5t32.5 8.5t15 20.5v567q0 28 -38 28q-7 0 -20 -1t-20 -1q-38 0 -38 28q0 43 80 43q11 0 28.5 -1t21.5 -1h61q6 0 10 -4t6.5 -11t3.5 -15t1.5 -17t0.5 -15.5v-12.5l-1 -7q2 -9 30 -13.5t69 -6t88.5 -13.5t87.5 -32t67 -65t27 -109
q0 -50 -16 -87t-42.5 -57.5t-60.5 -35.5t-69 -21.5t-69 -14.5t-60.5 -16t-42.5 -25.5t-16 -42.5q0 -32 22.5 -46.5t49 -15t49 -9.5t22.5 -31q0 -34 -75 -34h-27q-3 0 -17 3t-17 3q-4 0 -21 -3t-20 -3h-61h-62q-27 12 -27 27zM246 266l7 -7q41 -6 54 -6h7q28 0 56.5 4
t61 13.5t53 31.5t20.5 53v109q0 26 -21.5 46t-52.5 30t-57.5 15t-45.5 5l-75 -7l-7 -7v-280z" />
    <glyph glyph-name="germandbls" unicode="&#xdf;" horiz-adv-x="481" 
d="M239 -14q0 20 20.5 38.5t44.5 32.5t44.5 42t20.5 65q0 40 -12.5 68t-30.5 44t-36.5 30t-31 34.5t-12.5 48.5q0 22 34 63t34 74q0 26 -1 38t-9 28t-24 29q-34 15 -51.5 18t-51.5 3q-54 0 -68 -21q0 -6 -3.5 -54t-3.5 -55v-492q-6 -20 -34 -20q-26 0 -37 43t-11 80
q0 27 3.5 78t3.5 79t-3.5 82t-3.5 82q0 34 3.5 102t3.5 103q28 40 137 40q239 0 239 -150q0 -32 -22.5 -64.5t-44.5 -58t-22 -41.5q0 -6 23.5 -21.5l51.5 -35t51.5 -56t23.5 -78.5q0 -69 -67.5 -147t-137.5 -78q-9 0 -14.5 8t-5.5 19z" />
    <glyph glyph-name="agrave" unicode="&#xe0;" horiz-adv-x="606" 
d="M20 130q0 44 26.5 77.5t69 52t85.5 28t86 12.5q14 1 37 2t32 1.5t22.5 5t18.5 13.5t9 25.5t4 41.5q0 82 -103 82q-37 0 -65 -16t-41 -35t-30 -35t-34 -16q-16 0 -32 13t-16 28q0 36 27.5 61t71 36t79 15t68.5 4t67 -7.5t65 -30.5t31 -58v-280q0 -44 21 -75q12 4 26 4
q49 0 49 -31q0 -22 -55 -38.5t-82 -16.5l-20 7q-3 0 -31 13.5t-31 13.5q-27 0 -88 -17t-89 -17q-45 0 -83 12t-66.5 44.5t-28.5 80.5zM109 123q0 -68 130 -68q45 0 101 19.5t56 55.5v102h-178q-42 0 -75.5 -32t-33.5 -77zM116 696q0 22 7 31.5t27 9.5q13 0 99 -51t86 -65
q0 -15 -12 -31.5t-23 -16.5h-13q-7 3 -33 15t-46 22.5t-43 24.5t-36 30t-13 31z" />
    <glyph glyph-name="aacute" unicode="&#xe1;" horiz-adv-x="606" 
d="M20 130q0 44 26.5 77.5t69 52t85.5 28t86 12.5q14 1 37 2t32 1.5t22.5 5t18.5 13.5t9 25.5t4 41.5q0 82 -103 82q-37 0 -65 -16t-41 -35t-30 -35t-34 -16q-16 0 -32 13t-16 28q0 33 26 57.5t65.5 36.5t74.5 17t66 5q25 0 51.5 -4t56.5 -13t49.5 -29.5t19.5 -49.5v-280
q0 -44 21 -75q12 4 26 4q49 0 49 -31q0 -22 -55 -38.5t-82 -16.5l-20 7q-3 0 -31 13.5t-31 13.5q-27 0 -88 -17t-89 -17q-45 0 -83 12t-66.5 44.5t-28.5 80.5zM109 123q0 -68 130 -68q45 0 101 19.5t56 55.5v102h-178q-42 0 -75.5 -32t-33.5 -77zM280 621q0 5 7.5 17
t12.5 17q33 15 79.5 46t71.5 43h13q34 0 34 -55q-32 -38 -86.5 -77t-90.5 -39q-11 0 -26 17t-15 31z" />
    <glyph glyph-name="acircumflex" unicode="&#xe2;" horiz-adv-x="606" 
d="M20 130q0 44 26.5 77.5t69 52t85.5 28t86 12.5q14 1 37 2t32 1.5t22.5 5t18.5 13.5t9 25.5t4 41.5q0 82 -103 82q-37 0 -65 -16t-41 -35t-30 -35t-34 -16q-16 0 -32 13t-16 28q0 36 27.5 61t71 36t79 15t68.5 4t67 -7.5t65 -30.5t31 -58v-280q0 -44 21 -75q12 4 26 4
q49 0 49 -31q0 -22 -55 -38.5t-82 -16.5l-20 7q-3 0 -31 13.5t-31 13.5q-27 0 -88 -17t-89 -17q-45 0 -83 12t-66.5 44.5t-28.5 80.5zM109 123q0 -68 130 -68q45 0 101 19.5t56 55.5v102h-178q-42 0 -75.5 -32t-33.5 -77zM212 601q0 28 31.5 89t63.5 61q23 0 56 -64.5
t33 -85.5q0 -28 -21 -28q-13 0 -22.5 11t-14 23.5t-12.5 23.5t-19 11q-14 0 -22 -11t-10.5 -23.5t-7.5 -23.5t-14 -11q-41 0 -41 28z" />
    <glyph glyph-name="atilde" unicode="&#xe3;" horiz-adv-x="606" 
d="M20 123q0 54 48 96.5t107.5 61.5t111.5 19q6 0 20 -3t21 -3q21 0 51.5 8t30.5 26v95q0 48 -110 48q-37 0 -63.5 -15t-38 -33t-26 -33t-29.5 -15q-47 0 -47 41q0 103 232 103h68q102 -19 102 -137q0 -27 -3 -85t-3 -85q0 -84 27 -137q3 0 10.5 0.5t12.5 0.5q45 0 45 -28
q0 -21 -7 -21l-23 -7.5l-24.5 -8t-21 -5.5t-24.5 -4.5t-23 -1.5q-17 0 -44 13.5t-45 13.5q-31 0 -88.5 -13.5t-88.5 -13.5q-46 0 -83.5 10t-66 39t-28.5 74zM109 123q0 -19 9.5 -33t22 -20.5t34.5 -10t35 -4t36 -0.5q71 0 114 29.5t43 92.5q0 3 -3.5 27t-3.5 28q-34 7 -96 7
q-191 0 -191 -116zM96 635q0 17 8 27.5t25 14.5t29 5t33 1q24 0 72 -3.5t72 -3.5q20 0 64 3.5t65 3.5q30 0 42.5 -11t12.5 -37v-27q-9 -14 -41 -21t-55 -7h-259q-68 0 -68 55z" />
    <glyph glyph-name="adieresis" unicode="&#xe4;" horiz-adv-x="606" 
d="M20 130q0 44 26.5 77.5t69 52t85.5 28t86 12.5q14 1 37 2t32 1.5t22.5 5t18.5 13.5t9 25.5t4 41.5q0 82 -103 82q-37 0 -65 -16t-41 -35t-30 -35t-34 -16q-16 0 -32 13t-16 28q0 36 27.5 61t71 36t79 15t68.5 4t67 -7.5t65 -30.5t31 -58v-280q0 -44 21 -75q12 4 26 4
q49 0 49 -31q0 -22 -55 -38.5t-82 -16.5l-20 7q-3 0 -31 13.5t-31 13.5q-27 0 -88 -17t-89 -17q-45 0 -83 12t-66.5 44.5t-28.5 80.5zM109 123q0 -68 130 -68q45 0 101 19.5t56 55.5v102h-178q-42 0 -75.5 -32t-33.5 -77zM382 649q0 15 19.5 34.5t35.5 19.5q30 0 45.5 -17
t15.5 -44q0 -28 -15 -51.5t-39 -23.5t-43 29t-19 53zM116 642q0 27 16 44t45 17q25 0 40 -16t15 -38q0 -33 -16 -54.5t-45 -21.5q-20 0 -37.5 23.5t-17.5 45.5z" />
    <glyph glyph-name="aring" unicode="&#xe5;" horiz-adv-x="606" 
d="M20 130q0 44 26.5 77.5t69 52t85.5 28t86 12.5q14 1 37 2t32 1.5t22.5 5t18.5 13.5t9 25.5t4 41.5q0 82 -103 82q-37 0 -65 -16t-41 -35t-30 -35t-34 -16q-16 0 -32 13t-16 28q0 33 26 57.5t65.5 36.5t74.5 17t66 5q25 0 51.5 -4t56.5 -13t49.5 -29.5t19.5 -49.5v-280
q0 -44 21 -75q12 4 26 4q49 0 49 -31q0 -22 -55 -38.5t-82 -16.5l-20 7q-3 0 -31 13.5t-31 13.5q-27 0 -88 -17t-89 -17q-45 0 -83 12t-66.5 44.5t-28.5 80.5zM109 123q0 -68 130 -68q45 0 101 19.5t56 55.5v102h-178q-42 0 -75.5 -32t-33.5 -77zM218 655q0 40 19.5 81.5
t56.5 41.5q116 0 116 -102q0 -35 -29.5 -62t-66.5 -27q-17 0 -30.5 7t-22 16.5l-21 23t-22.5 21.5zM266 683q0 -17 14.5 -32.5t33.5 -15.5q24 0 36 16t12 38q0 41 -21 41h-61q-14 0 -14 -47z" />
    <glyph glyph-name="ae" unicode="&#xe6;" horiz-adv-x="936" 
d="M375 27q-31 0 -88.5 -13.5t-88.5 -13.5h-61q-56 18 -86.5 45t-30.5 78q0 54 44.5 96.5t102.5 61.5t113 19q6 0 21.5 -3t26.5 -3q45 0 63.5 20.5t18.5 67.5q0 89 -110 89q-34 0 -60.5 -15t-40 -33t-31.5 -33t-38 -15q-41 0 -41 41q0 27 19.5 47.5t46.5 30.5t64.5 16
t63 7.5t52.5 1.5h68q7 -3 42.5 -25.5t59.5 -22.5q17 0 51 20.5t52 20.5h136q61 0 112.5 -79t51.5 -139v-28q-4 -13 -30 -20t-38 -7q-14 0 -89.5 -3.5t-88.5 -3.5q-15 0 -63 -3.5t-53 -3.5q-18 0 -27 -1t-18 -9t-9 -24q0 -48 33.5 -80t76 -44t87.5 -12q39 0 109 17t103 17
q17 0 22 -3t5 -18q0 -35 -109.5 -61.5t-163.5 -26.5q-131 0 -218 20q-3 0 -27 13.5t-28 13.5h-7zM102 123q0 -68 137 -68q63 0 110 23.5t47 78.5q0 41 -7 75q-27 7 -89 7q-198 0 -198 -116zM505 328q0 -22 37.5 -31.5t71.5 -9.5q36 0 185 13q20 11 20 35q0 31 -39.5 73.5
t-69.5 42.5h-102l-21 -7q-27 -11 -54.5 -48.5t-27.5 -67.5z" />
    <glyph glyph-name="ccedilla" unicode="&#xe7;" horiz-adv-x="560" 
d="M20 225q0 132 85.5 213t215.5 81h61q55 -10 89 -55t34 -102q0 -14 -14 -24t-27 -10q-28 0 -40 13.5t-15.5 32t-10 37.5t-32 32.5t-72.5 13.5h-55q-62 -19 -92.5 -77t-30.5 -127q0 -96 53 -144t152 -48q35 0 98 20.5t93 20.5q27 0 27 -27q0 -20 -31 -35t-67.5 -21.5
t-65.5 -18t-27 -27.5q2 -8 14.5 -49t12.5 -61q0 -12 -20 -23t-34 -11q-10 12 -36.5 77.5t-45.5 73.5l-102 34q-42 14 -79.5 91t-37.5 120z" />
    <glyph glyph-name="egrave" unicode="&#xe8;" horiz-adv-x="572" 
d="M20 232q0 126 77.5 210t202.5 84q94 0 163 -64t69 -155q0 -37 -9.5 -49t-44.5 -12l-301 -14q-40 0 -54 -14v-20q0 -36 19 -64t49 -43t61.5 -22.5t61.5 -7.5q38 0 109.5 20.5t108.5 20.5q21 0 21 -27q0 -28 -60.5 -49.5t-122.5 -30.5t-97 -9q-113 0 -183 67t-70 179z
M130 335q0 -14 23 -24.5t38 -10.5h68q6 0 37 -2.5t51 -2.5q97 0 97 53q0 38 -33 64t-71 35.5t-74 9.5q-41 0 -48 -6l-75 -76q-13 -13 -13 -40zM109 703q0 21 7.5 31t26.5 10q30 0 99 -44.5t86 -71.5q0 -11 -12 -30.5t-22 -24.5q-25 0 -105 54.5t-80 75.5z" />
    <glyph glyph-name="eacute" unicode="&#xe9;" horiz-adv-x="572" 
d="M20 232q0 126 77.5 210t202.5 84q94 0 163 -64t69 -155q0 -37 -9.5 -49t-44.5 -12l-301 -14q-40 0 -54 -14v-20q0 -36 19 -64t49 -43t61.5 -22.5t61.5 -7.5q38 0 109.5 20.5t108.5 20.5q21 0 21 -27q0 -28 -60.5 -49.5t-122.5 -30.5t-97 -9q-113 0 -183 67t-70 179z
M130 335q0 -14 23 -24.5t38 -10.5h68q6 0 37 -2.5t51 -2.5q97 0 97 53q0 38 -33 64t-71 35.5t-74 9.5q-41 0 -48 -6l-75 -76q-13 -13 -13 -40zM225 614q0 35 14 41q81 37 143 82l21 14q2 1 5 1q12 0 24 -18.5t12 -30.5q0 -29 -76 -79.5t-109 -50.5q-9 0 -21.5 15.5
t-12.5 25.5z" />
    <glyph glyph-name="ecircumflex" unicode="&#xea;" horiz-adv-x="572" 
d="M20 232q0 126 77.5 210t202.5 84q94 0 163 -64t69 -155q0 -37 -9.5 -49t-44.5 -12l-301 -14q-40 0 -54 -14v-20q0 -36 19 -64t49 -43t61.5 -22.5t61.5 -7.5q38 0 109.5 20.5t108.5 20.5q21 0 21 -27q0 -28 -60.5 -49.5t-122.5 -30.5t-97 -9q-113 0 -183 67t-70 179z
M130 335q0 -14 23 -24.5t38 -10.5h68q6 0 37 -2.5t51 -2.5q97 0 97 53q0 38 -33 64t-71 35.5t-74 9.5q-41 0 -48 -6l-75 -76q-13 -13 -13 -40zM300 635q-6 0 -11 -2.5t-10 -7.5t-9 -9.5t-8.5 -12t-6.5 -11.5t-5 -12l-4 -7h-14q-27 0 -27 28v7q2 4 16.5 38.5t33 63t39.5 34.5
h6q18 0 53.5 -64.5t35.5 -78.5q0 -13 -6.5 -23.5t-20.5 -10.5q-17 0 -30.5 34t-31.5 34z" />
    <glyph glyph-name="edieresis" unicode="&#xeb;" horiz-adv-x="572" 
d="M20 232q0 126 77.5 210t202.5 84q94 0 163 -64t69 -155q0 -37 -9.5 -49t-44.5 -12l-301 -14q-40 0 -54 -14v-20q0 -36 19 -64t49 -43t61.5 -22.5t61.5 -7.5q38 0 109.5 20.5t108.5 20.5q21 0 21 -27q0 -28 -60.5 -49.5t-122.5 -30.5t-97 -9q-113 0 -183 67t-70 179z
M130 335q0 -14 23 -24.5t38 -10.5h68q6 0 37 -2.5t51 -2.5q97 0 97 53q0 38 -33 64t-71 35.5t-74 9.5q-41 0 -48 -6l-75 -76q-13 -13 -13 -40zM369 649v6l47 48h7q30 0 46 -17t16 -44q0 -30 -13.5 -52.5t-41.5 -22.5q-24 0 -42.5 29t-18.5 53zM102 649q0 21 18.5 37.5
t43.5 16.5t39.5 -17.5t14.5 -43.5q0 -69 -61 -69q-24 0 -39.5 24t-15.5 52z" />
    <glyph glyph-name="igrave" unicode="&#xec;" horiz-adv-x="550" 
d="M48 -14q-10 3 -14.5 7.5t-5.5 8t-1 12.5q0 27 14 34q11 1 39 2.5t44 3.5t35.5 9t29 22t9.5 38v116q0 14 3 49t2.5 57t-5.5 47.5t-22 38.5t-46 13q-15 0 -37 -3.5t-32 -3.5t-25.5 12t-15.5 22q0 26 82 37t151 11q19 0 33 -20t14 -42v-6q0 -10 -3 -88.5t-3 -89.5v-14v-13
q0 -14 3 -82.5t3 -81.5q11 -27 68 -27q14 0 46 2t46 2q34 0 53 -9.5t19 -35.5q0 -19 -25 -26.5t-50 -7.5q-31 0 -204.5 3t-204.5 3zM55 724q0 15 3.5 17.5t23.5 2.5q30 0 110.5 -47.5t80.5 -75.5q0 -15 -12.5 -28t-28.5 -13q-45 0 -111 50t-66 94z" />
    <glyph glyph-name="iacute" unicode="&#xed;" horiz-adv-x="550" 
d="M48 -14q-10 3 -14.5 7.5t-5.5 8t-1 12.5q0 27 14 34q11 1 39 2.5t44 3.5t35.5 9t29 22t9.5 38v116q0 14 3 49t2.5 57t-5.5 47.5t-22 38.5t-46 13q-15 0 -37 -3.5t-32 -3.5t-25.5 12t-15.5 22q0 26 82 37t151 11q19 0 33 -20t14 -42v-6q0 -10 -3 -88.5t-3 -89.5v-14v-13
q0 -14 3 -82.5t3 -81.5q11 -27 68 -27q14 0 46 2t46 2q34 0 53 -9.5t19 -35.5q0 -19 -25 -26.5t-50 -7.5q-31 0 -204.5 3t-204.5 3zM225 614q0 33 32.5 57t81 45t64.5 35q13 -7 27 -19.5t14 -21.5q0 -33 -77 -85t-108 -52q-14 0 -24 14.5t-10 26.5z" />
    <glyph glyph-name="icircumflex" unicode="&#xee;" horiz-adv-x="550" 
d="M48 -14q-10 3 -14.5 7.5t-5.5 8t-1 12.5q0 27 14 34q11 1 39 2.5t44 3.5t35.5 9t29 22t9.5 38v116q0 14 3 49t2.5 57t-5.5 47.5t-22 38.5t-46 13q-15 0 -37 -3.5t-32 -3.5t-25.5 12t-15.5 22q0 26 82 37t151 11q19 0 33 -20t14 -42v-6q0 -10 -3 -88.5t-3 -89.5v-14v-13
q0 -14 3 -82.5t3 -81.5q11 -27 68 -27q14 0 46 2t46 2q34 0 53 -9.5t19 -35.5q0 -19 -25 -26.5t-50 -7.5q-31 0 -204.5 3t-204.5 3zM164 594q0 27 31 85t58 58q6 0 14 -8.5t16.5 -19.5t10.5 -13q3 -7 27 -41t27 -41v-13q0 -14 -7 -27.5t-20 -13.5q-11 0 -19 10.5t-12.5 23.5
t-13.5 23.5t-23 10.5q-22 0 -30.5 -32.5t-24.5 -35.5q-2 -1 -7 -1q-12 0 -19.5 12t-7.5 23z" />
    <glyph glyph-name="idieresis" unicode="&#xef;" horiz-adv-x="550" 
d="M48 -14q-10 3 -14.5 7.5t-5.5 8t-1 12.5q0 27 14 34q11 1 39 2.5t44 3.5t35.5 9t29 22t9.5 38v116q0 14 3 49t2.5 57t-5.5 47.5t-22 38.5t-46 13q-15 0 -37 -3.5t-32 -3.5t-25.5 12t-15.5 22q0 26 82 37t151 11q19 0 33 -20t14 -42v-6q0 -10 -3 -88.5t-3 -89.5v-14v-13
q0 -14 3 -82.5t3 -81.5q11 -27 68 -27q14 0 46 2t46 2q34 0 53 -9.5t19 -35.5q0 -19 -25 -26.5t-50 -7.5q-31 0 -204.5 3t-204.5 3zM328 649q0 15 19.5 34.5t34.5 19.5q30 0 46 -17t16 -44q0 -28 -15.5 -51.5t-39.5 -23.5q-28 0 -44.5 26t-16.5 56zM48 635q0 26 22.5 47
t52.5 21q25 0 39.5 -17.5t14.5 -43.5q0 -28 -16 -48.5t-45 -20.5q-22 0 -45 19t-23 43z" />
    <glyph glyph-name="eth" unicode="&#xf0;" horiz-adv-x="516" 
d="M20 225q0 102 61 174t165 72q28 0 70.5 -17t65.5 -17v68l-54 109q-7 7 -21 7h-13l-117 -54q-12 0 -29.5 15t-17.5 26q-3 14 17.5 29l42.5 30t22 29q0 11 -20.5 16.5t-44.5 7.5t-44.5 13t-20.5 32q0 13 23.5 20t44.5 7q43 0 150 -55h14q16 0 45.5 24t50.5 24
q15 0 24.5 -12.5t9.5 -28.5v-7l-62 -61q0 -12 10 -28.5t26 -36t19 -24.5q61 -138 61 -212v-170q0 -97 -74 -168t-171 -71q-105 0 -169 74.5t-64 184.5zM123 123q3 -4 14.5 -17.5t15 -17l13.5 -14t15 -14l15.5 -10.5t19 -9.5t20 -4.5t23.5 -2q44 0 73 17.5t42 50t17.5 64
t4.5 73.5v55q-47 72 -102 95h-41q-77 0 -110.5 -51.5t-33.5 -132.5q0 -7 7 -41t7 -41z" />
    <glyph glyph-name="ntilde" unicode="&#xf1;" 
d="M437 20q17 4 29.5 16.5t20 32.5t12 38.5t5.5 44.5t1.5 42t0 39t-0.5 26q0 39 -4 67.5t-16 57.5t-38 44.5t-65 15.5q-38 0 -66 -6t-48 -15t-33 -27t-20.5 -35t-11 -46.5t-4.5 -53t-1 -63.5q0 -75 14 -130q0 -3 22.5 -12l48 -19.5t31.5 -16.5q0 -29 -76 -29l-40 2
q-8 0 -25 -1t-26 -1q-29 0 -51 9q-3 0 -10 3.5t-12 6.5l-6 4v6l48 48v348q0 11 -24 14.5t-48 10t-24 23.5q0 22 47 31.5t76 9.5q17 0 41 -17t41 -17q35 0 99.5 24t98.5 24q41 0 72 -20t48 -54t25.5 -69.5t11.5 -75.5q0 -17 3.5 -112.5t3.5 -112.5l7 -14q5 -1 18 -3t20.5 -4
t17 -6t14.5 -11t5 -17q0 -22 -19.5 -31t-41.5 -9q-151 0 -171 34v6zM130 635q0 18 6 30t13 18t22 9t25 3.5t29 0.5q23 0 72.5 -3.5t77.5 -3.5q20 0 62.5 3.5t67.5 3.5h27q28 -26 28 -41q0 -67 -131 -67q-27 0 -65 3t-43 3l-27 -2q-28 -1 -50 -1q-114 0 -114 44z" />
    <glyph glyph-name="ograve" unicode="&#xf2;" horiz-adv-x="584" 
d="M20 246q0 116 76 201t191 85q122 0 201.5 -77t84.5 -196q3 -75 -42.5 -141t-115.5 -102t-142 -36q-107 0 -180 76.5t-73 189.5zM109 239q0 -81 58 -136t140 -55q77 0 124 60t47 138q0 101 -53 153t-152 52h-68q-26 -5 -46 -30t-30.5 -59t-15 -65.5t-4.5 -57.5zM89 696
q0 22 7 31.5t27 9.5q19 0 98 -52.5t79 -63.5q0 -17 -9.5 -32.5t-24.5 -15.5q-35 0 -106 45t-71 78z" />
    <glyph glyph-name="oacute" unicode="&#xf3;" horiz-adv-x="584" 
d="M20 246q0 116 76 201t191 85q122 0 201.5 -77t84.5 -196q3 -75 -42.5 -141t-115.5 -102t-142 -36q-107 0 -180 76.5t-73 189.5zM109 239q0 -81 58 -136t140 -55q77 0 124 60t47 138q0 101 -53 153t-152 52h-68q-26 -5 -46 -30t-30.5 -59t-15 -65.5t-4.5 -57.5zM266 621
q0 24 80.5 77t104.5 53q14 0 24 -14.5t10 -26.5q0 -15 -8.5 -28.5t-19.5 -19.5l-136 -89q-19 0 -37 14.5t-18 33.5z" />
    <glyph glyph-name="ocircumflex" unicode="&#xf4;" horiz-adv-x="584" 
d="M20 246q0 116 76 201t191 85q122 0 201.5 -77t84.5 -196q3 -75 -42.5 -141t-115.5 -102t-142 -36q-107 0 -180 76.5t-73 189.5zM109 239q0 -81 58 -136t140 -55q77 0 124 60t47 138q0 101 -53 153t-152 52h-68q-26 -5 -46 -30t-30.5 -59t-15 -65.5t-4.5 -57.5zM300 642
q-15 0 -23 -7.5t-15 -29t-9 -25.5h-14q-34 0 -34 14q0 29 35.5 93t59.5 64t56.5 -57t32.5 -86q0 -35 -20 -35q-16 0 -25 11t-12 23.5t-10.5 23.5t-21.5 11z" />
    <glyph glyph-name="otilde" unicode="&#xf5;" horiz-adv-x="584" 
d="M20 246q0 119 79.5 199.5t200.5 80.5q114 0 190.5 -78t76.5 -195q0 -112 -86.5 -192.5t-200.5 -80.5q-111 0 -185.5 78t-74.5 188zM109 253q0 -87 47.5 -146t130.5 -59q89 0 146 57t52 148q-5 93 -59.5 148.5t-145.5 55.5q-88 0 -129.5 -55.5t-41.5 -148.5zM171 703
q23 0 71 -3.5t72 -3.5q20 0 62.5 3.5t67.5 3.5q22 0 38 -12t16 -36q0 -30 -15.5 -42t-52.5 -12h-321q-3 0 -11.5 6.5t-15.5 13.5l-7 7v55q0 8 38.5 14t57.5 6z" />
    <glyph glyph-name="odieresis" unicode="&#xf6;" horiz-adv-x="584" 
d="M20 246q0 116 76 201t191 85q122 0 201.5 -77t84.5 -196q3 -75 -42.5 -141t-115.5 -102t-142 -36q-107 0 -180 76.5t-73 189.5zM109 239q0 -81 58 -136t140 -55q77 0 124 60t47 138q0 101 -53 153t-152 52h-68q-26 -5 -46 -30t-30.5 -59t-15 -65.5t-4.5 -57.5zM102 642
q0 25 17 43t38 18q61 0 61 -61q0 -69 -54 -69q-20 0 -41 24t-21 45zM369 655q0 10 22 32.5t32 22.5q29 0 45.5 -20t16.5 -48q0 -29 -13.5 -49t-41.5 -20q-24 0 -42.5 27t-18.5 55z" />
    <glyph glyph-name="divide" unicode="&#xf7;" horiz-adv-x="470" 
d="M164 109q0 10 22 32.5t32 22.5q28 0 55 -18.5t27 -43.5q0 -23 -18.5 -35t-42.5 -12q-26 0 -50.5 13.5t-24.5 40.5zM27 287v20l7 7q14 14 82 14q23 0 72.5 -3.5t77.5 -3.5q20 0 61 3.5t62 3.5q28 0 41.5 -9.5t13.5 -38.5q0 -61 -127 -61q-28 0 -70 3t-49 3h-116
q-5 -1 -14 -1q-24 0 -32.5 16t-8.5 47zM164 437q0 20 20 37.5t41 17.5q23 0 46 -19t23 -43t-24 -39.5t-52 -15.5q-16 0 -35 21t-19 41z" />
    <glyph glyph-name="oslash" unicode="&#xf8;" horiz-adv-x="584" 
d="M89 -116q0 25 20.5 67.5t20.5 62.5q0 1 -11.5 15t-27.5 36.5t-32 50t-27.5 63t-11.5 67.5q0 116 76 201t191 85q13 0 37 -3t38 -3q18 0 30 13t17.5 28t17.5 28t30 13q16 0 28.5 -10t12.5 -25q0 -17 -17 -40.5t-17 -40.5q0 -7 26 -47t53 -93.5t30 -92.5q5 -66 -24 -121
t-79.5 -89t-111 -52t-121.5 -18q-21 0 -32 1q-8 -13 -17.5 -37.5t-16 -39.5t-22.5 -27.5t-40 -12.5q-20 0 -20 21zM246 61q0 -14 32 -14q4 0 9 0.5t8.5 0.5h4.5q80 0 129 58.5t49 139.5q0 34 -16 92t-39 72q-20 -15 -98.5 -171t-78.5 -178zM109 239q0 -35 17.5 -82.5
t44.5 -47.5q18 0 65.5 91t63.5 135l41 95v14q-20 7 -27 7h-55h-54q-26 -5 -46 -30t-30.5 -59t-15 -65.5t-4.5 -57.5z" />
    <glyph glyph-name="ugrave" unicode="&#xf9;" 
d="M116 314l-7 21v6q0 6 3.5 18t3.5 23q0 23 -14 36t-30.5 15.5t-30.5 10t-14 20.5q0 26 45.5 37t84.5 11q34 0 34 -14v-327q0 -60 47 -85t110 -25q91 0 137 55q7 55 7 157q0 96 -7 143q-3 8 -27 15t-42.5 14t-12.5 19q9 19 62 33.5t81 14.5q18 0 26 -26t8 -49
q0 -31 -3.5 -92.5t-3.5 -91.5q0 -89 7 -151q5 -11 28 -14.5t42 -11t19 -28.5q0 -17 -53 -36t-77 -19q-13 0 -33.5 13.5t-34.5 13.5q-31 0 -89 -17t-88 -17q-196 0 -178 328zM130 689v14q0 17 1.5 23.5t10.5 12t29 5.5q8 0 92.5 -54.5t84.5 -68.5q0 -15 -11.5 -31.5
t-22.5 -16.5h-7l-66.5 31.5t-57.5 35.5t-53 49z" />
    <glyph glyph-name="uacute" unicode="&#xfa;" 
d="M116 314l-7 21v6q0 6 3.5 18t3.5 23q0 23 -14 36t-30.5 15.5t-30.5 10t-14 20.5q0 26 45.5 37t84.5 11q34 0 34 -14v-327q0 -60 47 -85t110 -25q91 0 137 55q7 55 7 157q0 96 -7 143q-3 8 -27 15t-42.5 14t-12.5 19q9 19 62 33.5t81 14.5q18 0 26 -26t8 -49
q0 -31 -3.5 -92.5t-3.5 -91.5q0 -89 7 -151q5 -11 28 -14.5t42 -11t19 -28.5q0 -17 -53 -36t-77 -19q-13 0 -33.5 13.5t-34.5 13.5q-31 0 -89 -17t-88 -17q-196 0 -178 328zM307 621v7q0 4 7 14t7 13q32 15 56.5 28t34 19t36 24l37.5 25q15 0 28 -16t13 -32q0 -38 -69 -84
t-109 -46q-15 0 -28 16t-13 32z" />
    <glyph glyph-name="ucircumflex" unicode="&#xfb;" 
d="M116 314l-7 21v6q0 6 3.5 18t3.5 23q0 23 -14 36t-30.5 15.5t-30.5 10t-14 20.5q0 26 45.5 37t84.5 11q34 0 34 -14v-327q0 -60 47 -85t110 -25q91 0 137 55q7 55 7 157q0 96 -7 143q-3 8 -27 15t-42.5 14t-12.5 19q9 19 62 33.5t81 14.5q18 0 26 -26t8 -49
q0 -31 -3.5 -92.5t-3.5 -91.5q0 -89 7 -151q5 -11 28 -14.5t42 -11t19 -28.5q0 -17 -53 -36t-77 -19q-13 0 -33.5 13.5t-34.5 13.5q-31 0 -89 -17t-88 -17q-196 0 -178 328zM321 642q-12 0 -22 -9.5t-15 -19t-11 -24.5t-7 -16q-14 0 -27.5 7.5t-13.5 20.5q0 41 28 92t61 51
q28 0 62 -58.5t34 -84.5q0 -28 -21 -34q-2 -1 -7 -1q-14 0 -31.5 38t-29.5 38z" />
    <glyph glyph-name="udieresis" unicode="&#xfc;" 
d="M116 314l-7 21v6q0 6 3.5 18t3.5 23q0 23 -14 36t-30.5 15.5t-30.5 10t-14 20.5q0 26 45.5 37t84.5 11q34 0 34 -14v-327q0 -60 47 -85t110 -25q91 0 137 55q7 55 7 157q0 96 -7 143q-3 8 -27 15t-42.5 14t-12.5 19q9 19 62 33.5t81 14.5q18 0 26 -26t8 -49
q0 -31 -3.5 -92.5t-3.5 -91.5q0 -89 7 -151q5 -11 28 -14.5t42 -11t19 -28.5q0 -17 -53 -36t-77 -19q-13 0 -33.5 13.5t-34.5 13.5q-31 0 -89 -17t-88 -17q-196 0 -178 328zM403 649q0 13 23.5 33.5t37.5 20.5q25 0 40 -17.5t15 -43.5q0 -30 -13.5 -52.5t-41.5 -22.5
t-44.5 26t-16.5 56zM137 642q0 25 17.5 39.5t43.5 14.5q55 0 55 -54q0 -50 -28 -69h-20q-31 0 -49.5 19t-18.5 50z" />
    <glyph glyph-name="yacute" unicode="&#xfd;" horiz-adv-x="650" 
d="M55 -212q0 19 15 30t32 11q14 0 38 -3t37 -3q55 0 96 77t41 134v14l-48 95q-17 10 -34.5 36.5t-26.5 46t-24.5 59.5t-16.5 43l-24 47t-24 48q-7 9 -22.5 14.5t-29.5 7.5t-25.5 8t-11.5 18q0 34 95 34h28q109 0 116 -34q4 -15 -22 -22t-26 -12v-62l69 -136q1 -2 4.5 -11.5
t5 -13l5 -12t6 -12t6.5 -10t8 -10t9 -7t11 -5t13 -1.5q27 0 68 116t41 143q0 16 -11.5 23t-26 8t-26 8t-11.5 23q0 28 124 28q12 0 28.5 -0.5t18.5 -0.5h54q1 -1 7 -6.5t8.5 -8t6 -9t-0.5 -10.5q-7 -20 -46 -35t-50 -40q-53 -135 -170 -382q-11 -21 -31 -69.5t-35 -78
t-40.5 -64t-60 -51.5t-79.5 -17q-20 0 -44 15.5t-24 38.5zM314 573q0 55 184 137q20 -10 24 -17t4 -24t-11.5 -34.5t-33 -33t-40 -26.5t-45 -24.5t-34.5 -18.5h-7q-14 0 -27.5 15t-13.5 26z" />
    <glyph glyph-name="thorn" unicode="&#xfe;" horiz-adv-x="628" 
d="M123 -184v389l7 13q0 4 -3.5 24t-3.5 24v355q-6 6 -4 26.5t-10 21.5q-4 2 -26 7t-39 11.5t-17 15.5q0 26 54 44t83 18q30 0 45.5 -10t15.5 -38q0 -7 -6.5 -75.5t-6.5 -74.5v-28q0 -2 -0.5 -11.5t0 -13l1.5 -11t3.5 -10.5t7 -7.5t12 -6t17.5 -1.5q21 0 61.5 7t60.5 7
q109 0 174 -77t65 -190q0 -70 -34 -136q-9 -9 -48 -43t-54 -53q-82 -27 -103 -27h-177q0 -31 3.5 -89t3.5 -89q0 -20 -14 -33.5t-34 -13.5q-18 0 -24.5 11t-7 34t-2.5 30zM218 75q13 -19 35.5 -28.5t39.5 -11t48 -1.5q84 0 134.5 64t50.5 155q0 81 -63 122t-149 41
q-18 0 -28.5 -1t-26.5 -4t-26 -12.5t-15 -23.5q-6 -61 -6 -157q0 -88 6 -143z" />
    <glyph glyph-name="ydieresis" unicode="&#xff;" horiz-adv-x="650" 
d="M55 -212q0 19 15 30t32 11q14 0 38 -3t37 -3q55 0 96 77t41 134v14l-48 95q-17 10 -34.5 36.5t-26.5 46t-24.5 59.5t-16.5 43l-24 47t-24 48q-7 9 -22.5 14.5t-29.5 7.5t-25.5 8t-11.5 18q0 34 95 34h28q109 0 116 -34q4 -15 -22 -22t-26 -12v-62l69 -136q1 -2 4.5 -11.5
t5 -13l5 -12t6 -12t6.5 -10t8 -10t9 -7t11 -5t13 -1.5q27 0 68 116t41 143q0 16 -11.5 23t-26 8t-26 8t-11.5 23q0 28 124 28q12 0 28.5 -0.5t18.5 -0.5h54q1 -1 7 -6.5t8.5 -8t6 -9t-0.5 -10.5q-7 -20 -46 -35t-50 -40q-53 -135 -170 -382q-11 -21 -31 -69.5t-35 -78
t-40.5 -64t-60 -51.5t-79.5 -17q-20 0 -44 15.5t-24 38.5zM416 642q0 10 22.5 32t32.5 22q61 0 61 -68t-47 -68q-26 0 -47.5 25.5t-21.5 56.5zM150 628q0 30 17 45.5t45 15.5q30 0 42 -14.5t12 -46.5q0 -43 -27 -61h-21q-25 0 -46.5 20t-21.5 41z" />
    <glyph glyph-name="Amacron" unicode="&#x100;" horiz-adv-x="740" 
d="M20 20q0 11 38 47.5t44 48.5q17 34 76 197.5t112.5 297t71.5 133.5q23 0 79 -143l116.5 -312.5t84.5 -206.5q5 -11 43.5 -27t38.5 -35q0 -31 -69 -31q-18 0 -44.5 2t-30.5 2q-2 0 -16.5 -0.5t-25.5 -0.5q-87 0 -87 22q0 16 15 24t32.5 10.5t32.5 12.5t15 28
q0 40 -17.5 77.5t-50.5 51.5q-136 14 -191 14q-58 0 -77 -31t-19 -99v-27q7 -9 22.5 -13t30 -5t25.5 -6t11 -17q0 -41 -156 -41h-42q-62 0 -62 27zM259 294q7 0 41.5 -3.5t40.5 -3.5h14h14q6 0 40.5 3.5t41.5 3.5q13 6 13 27v14q-6 17 -19 59l-20.5 64.5t-21.5 55.5t-28 59
h-13q-27 0 -65 -105t-38 -140v-34zM137 799q-28 13 -28 27q6 28 63 28q6 0 15 -0.5t11 -0.5q35 0 98 -3t93 -3q27 0 85 3t86 3q13 0 25.5 -2.5t24 -10.5t11.5 -21q-14 0 -33 -10t-28 -10q-82 -7 -219 -7q-123 0 -204 7z" />
    <glyph glyph-name="amacron" unicode="&#x101;" horiz-adv-x="606" 
d="M20 123q0 54 48 96.5t107.5 61.5t111.5 19q6 0 20 -3t21 -3q21 0 51.5 8t30.5 26v95q0 48 -110 48q-37 0 -63.5 -15t-38 -33t-26 -33t-29.5 -15q-47 0 -47 41q0 103 232 103h68q102 -19 102 -137q0 -27 -3 -85t-3 -85q0 -84 27 -137q3 0 10.5 0.5t12.5 0.5q45 0 45 -28
q0 -21 -7 -21l-23 -7.5l-24.5 -8t-21 -5.5t-24.5 -4.5t-23 -1.5q-17 0 -44 13.5t-45 13.5q-31 0 -88.5 -13.5t-88.5 -13.5q-46 0 -83.5 10t-66 39t-28.5 74zM109 123q0 -19 9.5 -33t22 -20.5t34.5 -10t35 -4t36 -0.5q71 0 114 29.5t43 92.5q0 3 -3.5 27t-3.5 28q-34 7 -96 7
q-191 0 -191 -116zM55 628q13 27 88 27q35 0 98.5 -3t93.5 -3q31 0 88.5 3t88.5 3q4 0 11 0.5t10 0.5q23 0 34 -21q0 -13 -25.5 -23.5t-36.5 -10.5q-82 -7 -211 -7h-103l-109 7z" />
    <glyph glyph-name="Abreve" unicode="&#x102;" horiz-adv-x="740" 
d="M20 27q96 103 110 150q20 67 63 168t76 193t45 172q34 34 55 34q18 0 73.5 -141.5l119 -313t87.5 -214.5q5 -11 40 -21.5t35 -33.5q0 -13 -17 -20t-31 -7h-184q-13 0 -27 6t-14 15q0 16 15 24t32.5 9.5t32.5 10t15 24.5q0 39 -11 66t-28 42t-45 23t-52.5 10t-60.5 2h-55
h-55q-48 -15 -48 -129q0 -18 15 -27t33 -10t33 -8.5t15 -23.5q0 -6 -14 -20q-164 -14 -184 -14h-41q-28 14 -28 34zM259 321v-21l7 -6h178q20 0 20 27v7q-3 12 -27 80.5t-27 83.5q-1 2 -5 15.5t-7.5 22t-9 20t-12 17.5t-14.5 6q-32 0 -67.5 -100.5t-35.5 -151.5zM259 867
q0 2 -0.5 9.5t0 9.5t4 5t10.5 3q11 0 19 -9.5t12.5 -21t13.5 -21t23 -9.5q16 0 28 9.5t17.5 21t13 21t16.5 9.5q28 0 28 -20q0 -28 -26.5 -62t-55.5 -34q-40 0 -71.5 23t-31.5 66z" />
    <glyph glyph-name="abreve" unicode="&#x103;" horiz-adv-x="606" 
d="M20 130q0 44 26.5 77.5t69 52t85.5 28t86 12.5q14 1 37 2t32 1.5t22.5 5t18.5 13.5t9 25.5t4 41.5q0 82 -103 82q-37 0 -65 -16t-41 -35t-30 -35t-34 -16q-16 0 -32 13t-16 28q0 33 26 57.5t65.5 36.5t74.5 17t66 5q25 0 51.5 -4t56.5 -13t49.5 -29.5t19.5 -49.5v-280
q0 -44 21 -75q12 4 26 4q49 0 49 -31q0 -22 -55 -38.5t-82 -16.5l-20 7q-3 0 -31 13.5t-31 13.5q-27 0 -88 -17t-89 -17q-45 0 -83 12t-66.5 44.5t-28.5 80.5zM109 123q0 -68 130 -68q45 0 101 19.5t56 55.5v102h-178q-42 0 -75.5 -32t-33.5 -77zM232 649v20l14 7
q11 0 19.5 -17t20 -34t28.5 -17q21 0 33 10.5t15.5 23.5t12 23.5t21.5 10.5q5 0 12.5 -8t7.5 -13q0 -26 -25 -61.5t-50 -40.5q-6 -2 -17 -2q-36 0 -64 30.5t-28 67.5z" />
    <glyph glyph-name="Aogonek" unicode="&#x104;" horiz-adv-x="740" 
d="M505 -89q0 13 5 24.5t15 26.5t14 24q-7 0 -36 7t-32 7q-5 3 -11 3.5t-7.5 2.5t-1.5 8q0 16 15 24t32.5 10.5t32.5 12.5t15 28q0 40 -17.5 77.5t-50.5 51.5q-136 14 -191 14q-58 0 -77 -31t-19 -99v-27q7 -9 22.5 -13t30 -5t25.5 -6t11 -17q0 -41 -156 -41h-42
q-62 0 -62 27q0 11 38 47.5t44 48.5q18 33 76.5 195l112 297.5t71.5 135.5q23 0 79 -143l116.5 -312.5t84.5 -206.5q5 -11 43.5 -27t38.5 -35q0 -5 -28 -22l-62.5 -39.5t-46.5 -40.5l-14 -14v-61q4 -2 29 -21.5t33 -19.5q9 0 16.5 8.5t13 19t17.5 19t28 8.5q6 0 9.5 -3
t4.5 -8t1 -9.5t-0.5 -11.5t-0.5 -9q0 -62 -123 -62q-32 0 -55 27.5t-32 61.5t-9 68zM259 294q7 0 41.5 -3.5t40.5 -3.5h14h14q6 0 40.5 3.5t41.5 3.5q13 6 13 27v14q-6 17 -19 59l-20.5 64.5t-21.5 55.5t-28 59h-13q-31 0 -67 -103t-36 -142v-34z" />
    <glyph glyph-name="aogonek" unicode="&#x105;" horiz-adv-x="606" 
d="M382 -177q-7 34 -7 81q0 30 11 49t37 40v7q0 10 -18 18.5t-30 8.5q-27 0 -85 -13.5t-85 -13.5h-62q-57 19 -90 45.5t-33 77.5q0 54 46.5 96.5t106 61.5t114.5 19q6 0 20 -3t21 -3q21 0 51.5 8t30.5 26v95q0 19 -23 30.5t-45 14.5t-42 3q-35 0 -61 -15t-38 -33t-27.5 -33
t-30.5 -15q-22 0 -38 11t-16 30q0 27 19.5 47.5t46.5 30.5t64.5 16t63 7.5t52.5 1.5h68q52 -21 73.5 -51.5t21.5 -85.5q0 -27 -3 -85t-3 -85q0 -84 27 -137q3 0 10.5 0.5t12.5 0.5q45 0 45 -28q0 -11 -23.5 -30t-51.5 -38t-51.5 -49.5t-23.5 -60.5v-27q5 -3 19 -15.5
t25.5 -19t23.5 -6.5q11 0 18.5 14t20.5 27.5t36 13.5q14 0 14 -48q0 -19 -12 -31.5t-35 -17t-38 -5.5t-38 -1q-27 0 -39.5 12.5t-23 30.5t-26.5 26zM109 123q0 -19 9.5 -33t22 -20.5t34.5 -10t35 -4t36 -0.5q71 0 114 29.5t43 92.5q0 39 -13.5 51t-44.5 12q-6 0 -21 -0.5
t-24 -0.5q-191 0 -191 -116z" />
    <glyph glyph-name="Cacute" unicode="&#x106;" horiz-adv-x="584" 
d="M20 348q0 52 12.5 106t38.5 104.5t61 90.5t84.5 64t104.5 24q26 0 59 -2t77 -8t73.5 -19t29.5 -32v-150q0 -21 -34 -21q-25 0 -37.5 23.5t-15.5 51.5t-18.5 51.5t-44.5 23.5h-137q-35 0 -62.5 -27.5t-43.5 -67t-26.5 -87t-14 -81.5t-3.5 -57q0 -74 19 -136t68.5 -106.5
t124.5 -44.5q53 0 88.5 27.5t48 61t26 61t28.5 27.5q41 0 41 -88q0 -55 -41 -94t-93.5 -54.5t-104.5 -15.5q-76 0 -137 32.5t-97 86.5t-55 119.5t-19 136.5zM314 819v7l34 34l109 55q19 27 35 27q34 0 34 -48q0 -8 -4 -15t-12 -14t-14.5 -11.5t-17.5 -11.5l-14 -9
q-9 -9 -52.5 -35.5t-56.5 -32.5q-15 4 -28 21.5t-13 32.5z" />
    <glyph glyph-name="cacute" unicode="&#x107;" horiz-adv-x="560" 
d="M20 232q0 129 84 211.5t217 82.5q78 0 131 -41t53 -123q0 -16 -12.5 -28.5t-28.5 -12.5q-22 0 -35 10t-17 25t-11.5 33t-17.5 33t-36.5 25t-66.5 10q-54 0 -105.5 -41t-51.5 -95v-137q0 -41 36.5 -70.5t79.5 -41t82 -11.5q35 0 98 20.5t93 20.5q34 0 34 -20
q0 -40 -102.5 -68t-156.5 -28q-116 0 -191.5 66t-75.5 180zM273 614q0 28 14 35q21 9 44.5 22t38.5 22l42 26.5t39 24.5q19 0 30 -15t11 -33v-7q-33 -38 -89.5 -80t-88.5 -42q-15 0 -28 16t-13 31z" />
    <glyph glyph-name="Ccaron" unicode="&#x10c;" horiz-adv-x="584" 
d="M20 348q0 52 12.5 106t38.5 104.5t61 90.5t84.5 64t104.5 24q26 0 59 -2t77 -8t73.5 -19t29.5 -32v-150q0 -21 -34 -21q-25 0 -37.5 23.5t-15.5 51.5t-18.5 51.5t-44.5 23.5h-137q-35 0 -62.5 -27.5t-43.5 -67t-26.5 -87t-14 -81.5t-3.5 -57q0 -74 19 -136t68.5 -106.5
t124.5 -44.5q53 0 88.5 27.5t48 61t26 61t28.5 27.5q41 0 41 -88q0 -55 -41 -94t-93.5 -54.5t-104.5 -15.5q-76 0 -137 32.5t-97 86.5t-55 119.5t-19 136.5zM280 915q0 13 7 27t20 14q14 0 22.5 -11t12 -23.5t12 -23.5t21.5 -11q18 0 28 31t27 31q11 0 22.5 -4.5t11.5 -9.5
q0 -19 -9 -42t-17.5 -36.5t-26.5 -39.5l-22 -32l-14 -7q-23 0 -59 56.5t-36 80.5z" />
    <glyph glyph-name="ccaron" unicode="&#x10d;" horiz-adv-x="560" 
d="M20 232q0 129 84 211.5t217 82.5q78 0 131 -41t53 -123q0 -16 -12.5 -28.5t-28.5 -12.5q-22 0 -35 10t-17 25t-11.5 33t-17.5 33t-36.5 25t-66.5 10q-54 0 -105.5 -41t-51.5 -95v-137q0 -41 36.5 -70.5t79.5 -41t82 -11.5q35 0 98 20.5t93 20.5q34 0 34 -20
q0 -40 -102.5 -68t-156.5 -28q-116 0 -191.5 66t-75.5 180zM239 696v14q0 11 9 22.5t18 11.5q14 0 22.5 -10.5t12 -23.5t12 -23.5t22.5 -10.5h13q21 61 41 61q12 0 23 -5.5t11 -14.5q0 -33 -32 -91.5t-56 -58.5q-26 0 -55.5 48t-40.5 81z" />
    <glyph glyph-name="Dcaron" unicode="&#x10e;" horiz-adv-x="652" 
d="M61 -14q-27 15 -27 28q0 18 37.5 31.5t44.5 29.5q0 58 7 225.5t7 245.5q0 49 -17 75.5t-38 31.5t-38 11t-17 19q0 23 35 41h102q83 0 150 -10t129.5 -36.5t105 -68.5t68 -110t25.5 -158q0 -110 -28.5 -182.5t-86.5 -111t-129 -53t-173 -14.5q-88 0 -157 6zM205 253
q0 -16 -1.5 -48t-1.5 -49t4 -41t13 -36t28 -21.5t47 -9.5q115 0 176.5 89.5t61.5 217.5q0 130 -62.5 208.5t-189.5 78.5h-48l-14 -14q-6 -55 -6 -75q0 -5 -3.5 -118t-3.5 -148v-34zM184 887v21q0 13 7 23.5t21 10.5t21 -10.5t9.5 -23.5t9.5 -23.5t21 -10.5t22 9.5t11 21
t10 21t19 9.5q34 0 34 -20q0 -47 -75 -144h-14q-19 0 -36.5 15.5t-26.5 31t-20.5 41.5t-12.5 28z" />
    <glyph glyph-name="dcaron" unicode="&#x10f;" horiz-adv-x="717" 
d="M20 239q0 54 21.5 112t69 102.5t107.5 44.5h185q8 0 14 16t6 25q0 11 -3.5 26.5t-3.5 21.5q0 11 3.5 28t3.5 27q0 23 -15 33.5t-32.5 11.5t-32.5 7.5t-15 22.5q0 26 58.5 43.5t84.5 17.5q15 0 24.5 -12t9.5 -29v-628q0 -16 13 -23t28 -7.5t28 -7.5t13 -23q0 -21 -7 -21
q-44 -19 -110 -28.5t-109 -11t-115 -1.5h-55q-77 15 -124 92t-47 161zM109 253q0 -97 50.5 -147.5t147.5 -50.5q25 0 44 6t31.5 13.5t21 24t13 28.5t6 36t1.5 38t-0.5 43t-0.5 43q0 87 -25.5 125.5t-110.5 38.5q-88 0 -133 -55.5t-45 -142.5zM587 464l-8.5 49t-9.5 56
l-7.5 49.5t-6.5 56.5t-2 49q0 54 68 54q30 0 52.5 -13t22.5 -41q0 -38 -12 -124.5t-8 -135.5q0 -13 -16.5 -20t-31.5 -7q-6 0 -10 0.5t-7.5 1.5t-5.5 2t-4.5 4t-4 5t-4.5 6.5z" />
    <glyph glyph-name="Dcroat" unicode="&#x110;" horiz-adv-x="652" 
d="M34 14q0 14 37.5 27.5t44.5 26.5q0 11 3.5 58.5t3.5 57.5q0 38 -10 64.5t-24 40.5t-28 24.5t-24 23.5t-10 32l7 6l68 21q12 4 19 19.5t9 40t2 44t-1 44.5t-1 29v41q-2 18 -19 28t-35.5 12.5t-33.5 10.5t-15 24q0 35 48 35q60 0 107 -2.5t101 -8.5t95.5 -18.5t83.5 -31.5
t72 -48t53.5 -67t35.5 -90.5t12 -116.5q0 -54 -24.5 -130t-72 -142t-101.5 -76q-40 -8 -114 -8q-18 0 -53.5 0.5t-51.5 0.5h-150q-34 14 -34 28zM212 75q0 -28 53 -28q6 0 13.5 0.5t8.5 0.5q64 0 112.5 25.5t76.5 69.5t42 97.5t14 114.5q0 122 -61.5 208t-176.5 86
q-58 0 -70 -18t-12 -85q0 -12 0.5 -29t3.5 -50.5t10.5 -55.5t19.5 -22h95q14 0 21 -10.5t7 -23.5q0 -22 -17.5 -31.5t-42.5 -10.5t-50.5 -3t-43 -15.5t-17.5 -41.5q0 -23 7 -96.5t7 -81.5z" />
    <glyph glyph-name="dcroat" unicode="&#x111;" horiz-adv-x="607" 
d="M20 232q0 58 21.5 117.5t68.5 104t108 44.5h185q5 0 12.5 12t7.5 22q0 11 -25.5 13t-56.5 1t-56.5 12t-25.5 43q0 13 17 20t31 7h103q10 5 11.5 7.5t1.5 13.5q0 18 -15 26.5t-32.5 9.5t-32.5 8.5t-15 23.5q0 26 58.5 43.5t84.5 17.5q34 0 34 -34v-89q0 -6 14 -20
q11 -1 29.5 -2t26 -2.5t17 -6.5t13 -15.5t3.5 -28.5q0 -14 -39.5 -20.5t-42.5 -20.5q-8 -25 -13 -54.5t-6.5 -65.5t-2 -59t0 -66t0.5 -55v-109l7 -41q3 -8 39 -13t36 -28q0 -18 -17 -26.5t-43 -13t-35 -8.5q-13 1 -37 1q-35 0 -103 -7.5t-106 -7.5h-55q-76 15 -123.5 91
t-47.5 155zM109 259q0 -204 205 -204q24 0 42 6t30 14.5t19.5 24.5t11.5 29t5.5 36.5t1.5 38t-0.5 42.5t-0.5 41q0 87 -25.5 125.5t-110.5 38.5t-131.5 -53.5t-46.5 -138.5z" />
    <glyph glyph-name="Emacron" unicode="&#x112;" horiz-adv-x="618" 
d="M55 0q-14 14 -14 20l7 14q4 4 27.5 14t26.5 13q3 0 6.5 3.5t5.5 7.5l2 3v498l-7 76q0 9 -13 13t-28 5t-28 8t-13 21q0 21 7 21q116 7 266 7q144 0 260 -7q9 -5 18 -26.5t9 -28.5q0 -33 -14 -78t-41 -45q-10 0 -15.5 16.5t-10.5 36.5t-31 39.5t-72 23.5q-41 7 -89 7
q-55 0 -96 -7q-2 -17 -7.5 -55t-9 -70t-3.5 -59q0 -16 4.5 -27t10 -16.5t18.5 -8t21.5 -3t27.5 -0.5q30 0 49.5 8t27.5 19t13 22t12.5 19t20.5 8q20 0 20 -28q0 -27 -6.5 -91.5t-6.5 -92.5l-7 -14h-7q-12 8 -29.5 41t-18.5 34q-27 14 -75 14h-48q-14 -12 -21 -35t-8 -39.5
t0.5 -47t1.5 -35.5q0 -1 -1.5 -26t-1.5 -43.5t5.5 -39.5t17.5 -28q48 -6 110 -6h39q134 0 145 34l34 102q0 7 21 7q34 0 34 -109q0 -8 -3.5 -37t-3.5 -32q-27 -23 -34 -27h-198q-19 0 -70.5 -1t-80.5 -1q-99 0 -156 9zM75 785q-20 10 -20 27q0 29 62 29q6 0 15 -0.5t11 -0.5
q31 0 92.5 -3.5t92.5 -3.5q27 0 85 3.5t85 3.5q34 0 62 -28q-4 -2 -16.5 -7.5l-24.5 -11t-21 -8.5q-88 -7 -218 -7q-123 0 -205 7z" />
    <glyph glyph-name="emacron" unicode="&#x113;" horiz-adv-x="572" 
d="M20 232q0 56 27 132.5t69 99.5l109 55h144q41 0 80.5 -39t61 -88t21.5 -85q0 -35 -14.5 -45t-51.5 -15q-6 -1 -9 -1q-12 0 -46 0.5t-54 0.5q-154 0 -227 -22q-3 0 -6.5 -6.5t-5.5 -13.5l-2 -7q0 -47 35 -80t77.5 -45t85.5 -12q38 0 111.5 20.5t106.5 20.5q21 0 21 -27
q0 -25 -63 -47t-126.5 -32t-90.5 -10q-113 0 -183 67t-70 179zM130 335q0 -23 37 -32t72 -9q58 0 184 13q21 21 21 41q0 31 -39.5 70t-69.5 39h-103q-30 0 -66 -45.5t-36 -76.5zM34 621q0 28 89 28q35 0 98 -3.5t93 -3.5q28 0 86 3.5t85 3.5q61 0 61 -21q0 -13 -25.5 -23.5
t-35.5 -10.5q-82 -7 -212 -7h-130q-4 0 -14 -0.5t-16 -0.5q-61 0 -79 28v7z" />
    <glyph glyph-name="Edotaccent" unicode="&#x116;" horiz-adv-x="618" 
d="M61 -7q-9 0 -14.5 8t-5.5 19q0 12 17 24t34 18l17 6l7 28v170v266q0 7 -3.5 55t-3.5 55q-5 11 -47 21t-42 33v7q0 3 2 6.5t4 5.5l1 2l41 7h458q35 0 48 -13t13 -49q0 -37 -11 -80t-37 -43q-21 0 -29.5 19t-13 44t-11.5 33q-23 23 -110 23q-21 0 -49.5 -1.5t-31.5 -1.5
h-69l-7 -6q-13 -110 -13 -151q0 -58 10 -70t65 -12q35 0 57 13t29 28t14.5 28t15.5 13q3 0 5 -0.5t4 -1.5l3 -1.5t2 -2.5t1.5 -3.5t2 -5t2.5 -5.5v-62q0 -88 -6 -143q0 -7 -14 -7q-11 0 -21.5 14t-19.5 30.5t-30.5 30.5t-51.5 14h-41q-20 -20 -27 -34q-7 -55 -7 -116
q0 -62 7 -116q0 -6 7.5 -17t12.5 -11h205q22 0 47 10t35 25q1 4 5.5 24t9 35t15.5 29t25 14q8 0 14.5 -4.5t10 -14t6 -18.5t3 -22.5t1 -21.5t0 -20.5t-0.5 -14.5q0 -45 -13.5 -70.5t-55.5 -25.5h-27q-34 0 -221.5 3.5t-222.5 3.5zM232 860q0 44 22.5 73.5t66.5 29.5
q31 0 56.5 -27t25.5 -62v-21q-4 -3 -28 -30.5t-27 -30.5l-7 -7q-34 0 -71.5 23t-37.5 52z" />
    <glyph glyph-name="edotaccent" unicode="&#x117;" horiz-adv-x="572" 
d="M20 232q0 126 77.5 210t202.5 84q94 0 163 -64t69 -155q0 -37 -9.5 -49t-44.5 -12l-301 -14q-40 0 -54 -14v-20q0 -36 19 -64t49 -43t61.5 -22.5t61.5 -7.5q38 0 109.5 20.5t108.5 20.5q21 0 21 -27q0 -28 -60.5 -49.5t-122.5 -30.5t-97 -9q-113 0 -183 67t-70 179z
M130 335q0 -14 23 -24.5t38 -10.5h68q6 0 37 -2.5t51 -2.5q97 0 97 53q0 38 -33 64t-71 35.5t-74 9.5q-41 0 -48 -6l-75 -76q-13 -13 -13 -40zM205 662q0 43 24.5 73t64.5 30q31 0 59.5 -26t28.5 -56t-26.5 -63t-48.5 -33q-33 0 -67.5 23t-34.5 52z" />
    <glyph glyph-name="Eogonek" unicode="&#x118;" horiz-adv-x="618" 
d="M218 -89q0 15 5 27t15.5 26t14.5 22q-11 0 -76 3.5t-75 3.5q-61 0 -61 27l7 14q4 4 27.5 14t26.5 13q3 0 6.5 3.5t5.5 7.5l2 3v498l-7 76q0 9 -13 13t-28 5t-28 8t-13 21q0 21 7 21q116 7 260 7q150 0 266 -7q9 -5 18 -26.5t9 -28.5q0 -33 -14 -78t-41 -45
q-10 0 -15.5 16.5t-10.5 36.5t-31 39.5t-72 23.5q-41 7 -89 7q-55 0 -96 -7q-2 -17 -7.5 -55t-9 -70t-3.5 -59q0 -16 4.5 -27t10 -16.5t18.5 -8t21.5 -3t27.5 -0.5q30 0 49.5 8t27.5 19t13 22t12.5 19t20.5 8q20 0 20 -28q0 -27 -6.5 -91.5t-6.5 -92.5l-7 -14h-7
q-12 8 -29.5 41t-18.5 34q-27 14 -75 14h-48q-14 -12 -21 -35t-8 -39.5t0.5 -47t1.5 -35.5q0 -1 -1.5 -26t-1.5 -43.5t5.5 -39.5t17.5 -28q48 -6 110 -6h39q134 0 145 34l34 102q0 7 21 7q34 0 34 -109q0 -8 -3.5 -37t-3.5 -32q-27 -23 -34 -27h-48q-232 0 -232 -109
q0 -34 7 -41l54 -41h7q11 0 15.5 8.5t5.5 19t12.5 19t34.5 8.5q8 0 13 -2.5t6.5 -8.5t2 -10t0 -11.5t-0.5 -8.5q0 -62 -123 -62q-50 0 -73 49.5t-23 107.5z" />
    <glyph glyph-name="eogonek" unicode="&#x119;" horiz-adv-x="572" 
d="M218 -89q0 11 14 35t14 34q-114 33 -170 87.5t-56 164.5q0 56 27 132.5t69 99.5l109 55h144q41 0 80.5 -39t61 -88t21.5 -85q0 -35 -14.5 -45t-51.5 -15q-6 -1 -9 -1q-12 0 -46 0.5t-54 0.5q-154 0 -227 -22q-3 0 -6.5 -6.5t-5.5 -13.5l-2 -7q0 -47 35 -80t77.5 -45
t85.5 -12q38 0 111.5 20.5t106.5 20.5q21 0 21 -27t-34.5 -41t-82 -22.5t-61.5 -18.5q-17 -14 -44 -44.5t-44 -44.5v-61l54 -41h7q9 0 15.5 7.5t11 16.5t15 16.5t26.5 7.5q18 0 23 -4t5 -23q2 -24 -9.5 -39.5t-35.5 -21t-39.5 -7t-38.5 -1.5q-29 0 -50.5 14.5t-32 39
t-15.5 50t-5 53.5zM130 335q0 -23 37 -32t72 -9q58 0 184 13q21 21 21 41q0 31 -39.5 70t-69.5 39h-103q-30 0 -66 -45.5t-36 -76.5z" />
    <glyph glyph-name="Ecaron" unicode="&#x11a;" horiz-adv-x="618" 
d="M61 -7q-9 0 -14.5 8t-5.5 19q0 12 17 24t34 18l17 6l7 28v170v266q0 7 -3.5 55t-3.5 55q-5 11 -47 21t-42 33v7q0 3 2 6.5t4 5.5l1 2l41 7h458q35 0 48 -13t13 -49q0 -37 -11 -80t-37 -43q-21 0 -29.5 19t-13 44t-11.5 33q-23 23 -110 23q-21 0 -49.5 -1.5t-31.5 -1.5
h-69l-7 -6q-13 -110 -13 -151q0 -58 10 -70t65 -12q35 0 57 13t29 28t14.5 28t15.5 13q3 0 5 -0.5t4 -1.5l3 -1.5t2 -2.5t1.5 -3.5t2 -5t2.5 -5.5v-62q0 -88 -6 -143q0 -7 -14 -7q-11 0 -21.5 14t-19.5 30.5t-30.5 30.5t-51.5 14h-41q-20 -20 -27 -34q-7 -55 -7 -116
q0 -62 7 -116q0 -6 7.5 -17t12.5 -11h205q22 0 47 10t35 25q1 4 5.5 24t9 35t15.5 29t25 14q8 0 14.5 -4.5t10 -14t6 -18.5t3 -22.5t1 -21.5t0 -20.5t-0.5 -14.5q0 -45 -13.5 -70.5t-55.5 -25.5h-27q-34 0 -221.5 3.5t-222.5 3.5zM225 908q0 41 21 41q16 0 25 -10.5
t11.5 -23.5t10 -23.5t21.5 -10.5q15 0 23 7.5t15 27.5t10 26h7q34 0 34 -27q0 -21 -33 -82.5t-56 -61.5q-24 0 -56.5 54.5t-32.5 82.5z" />
    <glyph glyph-name="ecaron" unicode="&#x11b;" horiz-adv-x="572" 
d="M20 232q0 126 77.5 210t202.5 84q94 0 163 -64t69 -155q0 -37 -9.5 -49t-44.5 -12l-301 -14q-40 0 -54 -14v-20q0 -36 19 -64t49 -43t61.5 -22.5t61.5 -7.5q38 0 109.5 20.5t108.5 20.5q21 0 21 -27q0 -28 -60.5 -49.5t-122.5 -30.5t-97 -9q-113 0 -183 67t-70 179z
M130 335q0 -14 23 -24.5t38 -10.5h68q6 0 37 -2.5t51 -2.5q97 0 97 53q0 38 -33 64t-71 35.5t-74 9.5q-41 0 -48 -6l-75 -76q-13 -13 -13 -40zM212 710q0 10 5.5 16.5t21.5 17.5q9 -7 29 -41t39 -34q11 0 18 9.5t10 21t11.5 21t22.5 9.5q17 0 22 -7.5t5 -26.5
q-5 -13 -12 -29.5t-19.5 -41.5t-28 -41.5t-29.5 -16.5q-28 0 -61.5 56.5t-33.5 86.5z" />
    <glyph glyph-name="Gbreve" unicode="&#x11e;" horiz-adv-x="640" 
d="M20 348q0 73 20 141.5t57.5 124.5t99 89.5t138.5 33.5h29q223 0 223 -82q0 -2 0.5 -20.5t0.5 -32.5t-2 -35t-7 -35t-15 -24t-25 -10q-9 0 -17.5 12.5t-15 31.5t-18.5 41.5t-27.5 41.5t-43 31.5t-62.5 12.5q-64 0 -111 -27.5t-72.5 -74t-37 -99.5t-11.5 -113
q0 -59 9.5 -109t32.5 -97t68 -74t108 -27q34 0 82 9.5t48 31.5v123l-14 13h-11t-24.5 2.5t-31 6.5t-24.5 12.5t-11 19.5q0 10 14.5 19t26.5 9h198q27 0 27 -35q0 -13 -22 -28.5t-26 -32.5q-2 -27 -3 -55.5t-2.5 -48t-7.5 -46.5q-21 -16 -110 -45.5t-115 -29.5
q-105 0 -178 55t-105 137.5t-32 182.5zM239 881q0 20 20 20q9 0 16.5 -9.5t12 -21t13.5 -21t20 -9.5q18 0 31 9.5t18.5 21t15.5 21t24 9.5q4 0 6 -0.5t4.5 -4t2.5 -9.5q0 -27 -22 -62t-46 -40q-7 -2 -19 -2q-39 0 -68 30t-29 68z" />
    <glyph glyph-name="gbreve" unicode="&#x11f;" horiz-adv-x="606" 
d="M20 -116q0 28 15.5 53t33 58.5t20.5 79.5q0 20 24 47.5t24 48.5v6q-37 37 -53 72.5t-16 85.5q0 84 56.5 127t148.5 43q47 0 138.5 -22.5t134.5 -25.5q27 -12 27 -34l-20 -20l-75 -14l-7 -14q12 -65 2.5 -103.5t-35.5 -62t-59.5 -33.5t-70 -17.5l-67 -14t-50.5 -23.5
t-20 -46q0 -14 13 -14h120q57 0 100.5 -4.5t90.5 -17t73 -41.5t26 -73q0 -51 -27 -92t-70.5 -64.5t-92.5 -36t-97 -12.5q-49 0 -92 6t-91 22t-76 50.5t-28 85.5zM96 -116q0 -34 18 -56t51 -31t59.5 -12t62.5 -3q225 0 225 122v35q-9 13 -35 27t-33 14h-287q-23 0 -42 -35.5
t-19 -60.5zM143 328q0 -46 17 -81t58 -35h117q61 0 61 123q0 16 -1 28t-6 22t-7.5 16t-12.5 14l-14 11t-19.5 12t-21.5 13h-41q-130 0 -130 -123zM171 662q0 27 13 27q11 0 20 -10.5t14.5 -23.5t16 -23.5t24.5 -10.5q12 0 20.5 3t15 11t10 13.5t9 18t7.5 16.5l7 6
q13 0 20 -6.5t7 -13.5q0 -25 -8.5 -39.5t-26.5 -30t-26 -26.5h-28q-43 0 -69 22.5t-26 66.5z" />
    <glyph glyph-name="uni0122" unicode="&#x122;" horiz-adv-x="640" 
d="M287 -205v13.5v17.5t0.5 19.5t1.5 21t3 19.5t6 18.5t9 14t12 10t16 3.5q20 0 20 -48l-7 -14v-7q0 -7 7 -41t7 -40l-7 -7l-34 -21q-2 -1 -5 -1q-12 0 -20.5 15t-8.5 27zM20 348q0 99 33 190t104 138q20 13 62.5 26.5t60.5 27.5h61q5 0 27 0.5t36 0.5q183 0 183 -69v-7
q0 -20 -7 -71l-7 -52q0 -15 -9 -24.5t-25 -9.5q-13 0 -24 26.5t-20 59t-31 59t-54 26.5h-123q-44 0 -81.5 -42.5t-56 -90t-26.5 -92.5v-89q0 -130 32.5 -197t138.5 -110h109l68 34q7 14 7 20v48q0 34 -8.5 54t-21.5 25t-28 7t-28 1.5t-21.5 6t-8.5 22.5q0 32 69 32
q17 0 41 -2t26 -2l22 2q21 2 37 2q64 0 64 -32q0 -10 -12 -22t-25.5 -35t-16.5 -59q0 -6 -3.5 -47t-3.5 -48q-5 -9 -67 -32t-70 -23q-11 -6 -41.5 -16.5t-40.5 -10.5q-151 0 -236 109.5t-85 265.5z" />
    <glyph glyph-name="uni0123" unicode="&#x123;" horiz-adv-x="606" 
d="M239 -444v13.5v17.5t0.5 19.5t1.5 21t3 19.5t6 18.5t9 14t12 10t16 3.5q5 0 16 -73.5t11 -83.5l-7 -7l-27 -14l-7 -7q-23 0 -28.5 11t-5.5 37zM20 -116q0 27 32 67.5t37 55.5q7 22 6 33.5t1 48.5q0 13 23.5 38.5t23.5 43.5q-75 75 -75 164q0 79 59.5 124.5t145.5 45.5
q29 0 164.5 -32.5t135.5 -42.5q0 -16 -13 -23.5t-30 -8t-34.5 -4t-24.5 -12.5q11 -45 0 -93.5t-41 -83.5q-17 -13 -64 -25.5t-90 -22.5t-77.5 -33t-34.5 -56q0 -11 66 -14.5t145.5 -5t145.5 -20t66 -55.5v-103q0 -47 -57.5 -83.5t-119.5 -51.5t-103 -15q-46 0 -89 6
t-91.5 22t-77.5 51t-29 85zM143 -198q10 -3 65 -13t65 -14h7q50 0 141 24.5t91 63.5v82q0 41 -170 41h-42q-88 0 -150 -6q-29 -24 -41.5 -43.5t-12.5 -52.5q0 -74 47 -82zM143 273q14 -41 49.5 -54.5t87.5 -13.5q123 0 123 123q0 24 -7 50.5t-27 49.5t-48 23h-103
q-40 0 -57.5 -43t-17.5 -87v-48z" />
    <glyph glyph-name="Imacron" unicode="&#x12a;" horiz-adv-x="555" 
d="M96 0q-21 21 -21 34q0 5 17.5 16t23.5 11h89l13 14q7 68 7 96q14 258 14 402q0 62 -21 69l-157 27q-20 0 -20 20q0 14 16.5 21t31.5 7q17 0 122.5 6.5t123.5 6.5q3 0 26.5 3.5t27.5 3.5h7l14 -7q2 0 31 -6.5t37 -6.5q14 -7 14 -21q0 -18 -13.5 -27t-28 -10.5t-41.5 -1.5
h-13q-72 0 -75 -29q0 -10 -3.5 -68t-3.5 -68q0 -4 -3.5 -31t-3.5 -31v-7q0 -4 3.5 -47.5t3.5 -47.5q0 -17 3.5 -116t3.5 -116q-9 -35 34 -35q10 0 75 -6.5t75 -6.5q21 -21 27 -28q0 -9 -10 -14.5t-17 -5.5q-102 -7 -239 -7q-102 0 -170 7zM55 785q-28 14 -28 27q0 29 63 29
q6 0 15 -0.5t11 -0.5q30 0 92 -3.5t92 -3.5q28 0 86 3.5t85 3.5t37 -4t24 -24q-41 -16 -91.5 -24t-84.5 -9t-97 -1q-129 0 -204 7z" />
    <glyph glyph-name="imacron" unicode="&#x12b;" horiz-adv-x="566" 
d="M34 14q0 3 10.5 13t10.5 14l6 7h35q93 0 116 34q6 61 6 164q0 14 1.5 42.5t2 46t-2.5 40.5t-10.5 36.5t-24 23t-41.5 9.5h-41l-27 -7q-11 0 -22.5 11.5t-11.5 22.5q0 17 93.5 32.5t131.5 15.5q20 0 34 -18.5t14 -36.5v-382q0 -10 8 -15.5t19 -5.5l185 -13q20 0 20 -28
q0 -15 -9.5 -24.5t-24.5 -9.5h-444q-6 0 -14.5 7t-13.5 14zM27 621q0 18 33 26t56 8q30 0 92 -3t92 -3h123q4 0 24.5 3t23.5 3q47 0 68 -34q-50 -27 -68 -27h-416q-10 0 -19 8.5t-9 18.5z" />
    <glyph glyph-name="Iogonek" unicode="&#x12e;" horiz-adv-x="540" 
d="M164 -123q0 33 5 51t22 52l-7 13h-95q-10 0 -19 14.5t-9 26.5q0 11 10 19t25 8h81q7 0 28 21q0 30 6.5 204.5t6.5 205.5q0 3 3.5 37t3.5 38v13v7q0 3 -6.5 24t-6.5 24q-11 8 -60 13.5t-90.5 14.5t-41.5 26q0 10 12 19t23 9q102 13 307 13h30q86 0 86 -34q0 -27 -39.5 -36
t-80.5 -10t-44 -8l-7 -14q-7 -109 -7 -157q0 -250 7 -375q4 -24 28 -32t65 -8h42q37 0 57 -7t20 -29q0 -14 -30.5 -20t-73.5 -9t-86 -11t-73.5 -33.5t-30.5 -69.5q0 -20 1.5 -29t10.5 -19t29 -20h14q16 0 35 24t40 24q9 0 14 -4.5t5.5 -9.5t0.5 -14q0 -49 -47 -68h-41
q-123 0 -123 116z" />
    <glyph glyph-name="iogonek" unicode="&#x12f;" horiz-adv-x="550" 
d="M157 -96q0 25 34 76q-27 8 -71 8q-15 0 -39.5 -1t-32.5 -1q-10 3 -14.5 7.5t-5.5 8t-1 12.5q0 27 14 34q11 1 39 2.5t44 3.5t35.5 9t29 22t9.5 38v116q0 14 3 49t2.5 57t-5.5 47.5t-22 38.5t-46 13q-15 0 -37 -3.5t-32 -3.5t-25.5 12t-15.5 22q0 26 82 37t151 11
q19 0 33 -20t14 -42v-6q0 -10 -3 -88.5t-3 -89.5v-14v-13q0 -14 3 -82.5t3 -81.5q11 -27 68 -27q14 0 46 2t46 2q34 0 53 -9.5t19 -35.5q0 -11 -16 -22.5t-31 -11.5h-157q-41 0 -72 -34t-31 -76v-34q3 -2 25 -18t30 -16q14 0 22.5 8.5t13 19t16.5 19t30 8.5q5 0 9 -10.5
t4 -17.5q0 -24 -10.5 -46t-29.5 -22h-103q-28 0 -46 28.5t-23.5 58t-5.5 56.5zM184 669q0 28 20 55t49 27q82 0 82 -62v-27q-1 -1 -20 -22t-33 -30t-29 -9q-30 0 -49.5 20.5t-19.5 47.5z" />
    <glyph glyph-name="Idotaccent" unicode="&#x130;" horiz-adv-x="540" 
d="M61 34q0 11 10 19t25 8h81q7 0 28 21q0 30 6.5 204.5t6.5 205.5q0 3 3.5 37t3.5 38v13v7q0 3 -6.5 24t-6.5 24q-11 8 -60 13.5t-90.5 14.5t-41.5 26q0 10 12 19t23 9q102 13 307 13h30q86 0 86 -34q0 -27 -39.5 -36t-80.5 -10t-44 -8l-7 -14q-7 -109 -7 -157
q0 -250 7 -375q4 -24 28 -32t65 -8h42q37 0 57 -7t20 -29q0 -9 -7.5 -14.5t-13.5 -5.5q-7 0 -32.5 -3.5t-28.5 -3.5h-348q-14 0 -21 13.5t-7 27.5zM177 840q0 42 25 72t64 30q31 0 60 -26t29 -56q0 -7 -2 -14.5t-4.5 -13.5t-8 -13t-9 -11t-11.5 -10.5l-11 -9l-11.5 -9.5
t-10.5 -8q-34 0 -72 19.5t-38 49.5z" />
    <glyph glyph-name="dotlessi" unicode="&#x131;" horiz-adv-x="550" 
d="M20 20l28 28q105 4 129 18q25 14 28 65q1 17 0 64v51q0 62 -14 184q-5 15 -39 15q-6 0 -13.5 -0.5t-8.5 -0.5h-41l-28 -7q-10 0 -22 9t-12 18q0 26 86.5 40.5t139.5 14.5q19 0 33 -18.5t14 -36.5q0 -34 -3 -102t-3 -103q0 -122 6 -184q14 -14 28 -14l184 -13q20 0 20 -28
q0 -15 -9 -24.5t-25 -9.5h-443q-10 0 -22.5 12t-12.5 22z" />
    <glyph glyph-name="uni0136" unicode="&#x136;" horiz-adv-x="718" 
d="M321 -198q0 55 14 137q6 6 27 6q7 0 12 -6t8 -17.5t5 -23.5t2.5 -27.5t0.5 -25.5t-0.5 -22t-0.5 -14q0 -34 -41 -34q-27 0 -27 27zM239 321q-27 0 -27 -62l-4 -57q-3 -56 -3 -72v-14q0 -25 16 -39t35 -17.5t35 -14.5t16 -31q0 -9 -19 -15t-29 -6h-184q-11 0 -21.5 12.5
t-5.5 21.5q4 16 30 28t31 20q7 130 7 376v143l-7 61q-4 1 -30 5t-42.5 12.5t-16.5 23.5q0 34 76 34q7 0 41 2.5t55 2.5q81 0 81 -32q0 -11 -11.5 -20.5t-26 -18.5t-26 -32.5t-11.5 -58.5q0 -19 5.5 -63.5t1.5 -79.5q1 -2 4 -8.5l4.5 -10t4.5 -7.5t6.5 -6t7.5 -2q14 0 21 7
q15 10 60 55t56 61q68 68 68 109q0 15 -12 26t-24 19t-12 16q0 7 2.5 12.5t5 9t8 7.5t8 5t9.5 4t8 3q24 -2 30 -2q19 0 46 4.5t47 4.5q24 0 49.5 -9.5t25.5 -31.5q0 -6 -32.5 -35l-71.5 -61.5t-46 -39.5q-15 -15 -62.5 -71t-74.5 -79v-21q0 -16 10 -33t11 -21
q34 -32 105 -129t120 -131q9 -7 40 -11.5t53.5 -15t22.5 -34.5q0 -14 -13.5 -21t-27.5 -7q-7 0 -23.5 -0.5t-24.5 -0.5q-51 0 -75 15q-26 18 -67 73t-76 108.5t-78.5 96.5t-78.5 43z" />
    <glyph glyph-name="uni0137" unicode="&#x137;" horiz-adv-x="696" 
d="M348 -225q0 75 14 157q13 7 34 7h7q13 -48 13 -151v-6q-4 -5 -20 -13t-21 -8q-13 0 -27 14zM89 7q0 23 20.5 72.5t20.5 77.5v34l-7 27q0 4 3.5 18t3.5 17v320q0 35 -6.5 55.5t-19 29.5t-26 14t-32 16t-32.5 29q13 23 72 38.5t98 15.5q18 0 26 -25.5t8 -49.5
q0 -47 -3 -139.5t-3 -140.5v-129l6 -14h14q34 0 75 41l89 89v20q0 11 -7 23t-7 18q0 28 21 28h184l21 -21v-7l-7 -7q-30 -11 -58 -23.5t-67 -34t-63 -49.5t-24 -56q0 -33 39.5 -91t89 -103t76.5 -45q7 0 24 3t24 3q34 0 34 -20v-7q-32 -48 -103 -48q-38 0 -72.5 27t-59.5 65
l-48 76t-47 65t-46 27h-6l-76 -75l-6 -14v-34q0 -45 7 -59t22 -14q3 0 9 0.5t10 0.5q30 0 47 -37q-18 -32 -93 -32q-18 0 -47 2t-37 2h-28q-13 7 -13 21z" />
    <glyph glyph-name="Lacute" unicode="&#x139;" horiz-adv-x="674" 
d="M89 -7q-29 0 -41 34q19 24 38 33t57 15l7 21q0 81 7 252t7 253q0 32 -22.5 45.5t-49.5 13t-49.5 9t-22.5 34.5q0 15 28 27q61 7 150 7q75 0 137 -7q2 -2 9.5 -6t12.5 -9.5t5 -11.5q0 -18 -18 -27.5t-40 -12.5t-40 -16.5t-18 -38.5q0 -14 3.5 -41.5t3.5 -40.5
q0 -41 -3.5 -126.5t-3.5 -126.5q0 -116 7 -191q1 -1 4.5 -6t6 -7.5t7 -5t9.5 -2.5h68h49q104 0 149 28q13 9 18 32.5t5 46t9 40t30 17.5q19 0 31 -15t15 -41.5t3.5 -48.5t-1 -51.5t-1.5 -34.5q0 -24 -20.5 -39t-47.5 -15q-81 0 -257 6.5t-241 6.5zM177 806q0 21 18.5 40
t39 28.5t48 20.5t31.5 13q1 1 7 8t11 12t11.5 9.5t11.5 4.5q2 1 5 1q11 0 20 -18t9 -31q0 -27 -78.5 -78t-98.5 -51q-14 0 -24.5 14.5t-10.5 26.5z" />
    <glyph glyph-name="lacute" unicode="&#x13a;" horiz-adv-x="528" 
d="M184 48q0 10 7 23.5t7 24.5v573q0 20 -48 20q-12 0 -41 -3t-48 -3q-14 0 -27.5 6.5t-13.5 20.5q0 27 14 34q15 4 87 14t84 13q27 7 34 7h14q17 0 27.5 -10t13.5 -28.5t3 -34t-1.5 -37t-1.5 -26.5q0 -70 -3.5 -201t-3.5 -195v-157q7 -21 34.5 -28.5t59 -6.5t68 -8
t56.5 -32q0 -18 -22.5 -26t-45.5 -8h-24q-229 0 -229 68zM225 867q0 28 79.5 75.5t105.5 47.5q10 0 22 -13.5t12 -27.5q0 -12 -8 -22t-22 -19.5t-18 -13.5q-31 -15 -116 -75l-14 -7q-14 0 -27.5 19.5t-13.5 35.5z" />
    <glyph glyph-name="uni013B" unicode="&#x13b;" horiz-adv-x="674" 
d="M300 -198q0 20 5.5 45t1.5 51q9 2 11.5 10t1.5 16t5.5 14.5t22.5 6.5q9 0 15 -19t6 -28l-7 -14v-7q0 -21 13 -82v-7q-5 -4 -20 -12t-20 -8q-19 0 -27 7.5t-8 26.5zM75 0q-27 14 -27 27v7q13 10 52.5 20.5t49.5 20.5q0 37 7 245.5t7 246.5v34v34q-9 20 -43.5 24t-64 9
t-29.5 28q0 16 9.5 25t24.5 9h260q12 0 26.5 -8.5t14.5 -18.5q0 -16 -17 -24.5t-38 -10.5t-40 -12t-21 -28v-55v-61l7 -27q0 -3 -3.5 -34t-3.5 -35v-143v-150q3 -25 8.5 -39t20.5 -20.5t28.5 -7.5t44.5 -1q79 0 129 12.5t68 31.5t26 41t6.5 41t6.5 31.5t30 12.5q14 0 28 -27
q0 -16 6.5 -79.5t6.5 -84.5q0 -24 -20 -36t-48 -12q-32 0 -96 -0.5t-96 -0.5q-197 0 -320 15z" />
    <glyph glyph-name="uni013C" unicode="&#x13c;" horiz-adv-x="528" 
d="M218 -198v15.5v19.5t0.5 20t2 22l4 19.5t7 19l10 14t13.5 10.5t18 3q14 0 14 -47v-7l-7 -14q0 -40 14 -82v-7l-41 -27q-4 -3 -8 -3q-10 0 -18.5 18t-8.5 26zM48 14q0 25 24.5 31.5t54 4t54 12.5t24.5 54q0 4 -3.5 24t-3.5 24v7v6q0 11 3.5 120t3.5 119v21v20
q0 18 -3.5 113.5t-3.5 112.5q-4 8 -20 8q-5 0 -15 -1t-13 -1h-34q-4 0 -24 -3t-24 -3q-9 0 -18.5 2.5t-19.5 10.5t-10 21q0 26 84.5 40t141.5 14q9 0 16 -2.5t12 -8.5t8.5 -11.5t5.5 -15t3.5 -16t2 -17.5t0.5 -16.5v-16v-12.5q0 -55 -7 -164t-7 -163q0 -17 3.5 -51.5
t3.5 -51.5q0 -13 -3.5 -44t-3.5 -44q0 -76 34 -76l150 -13l14 -7q3 0 13 -10.5t14 -10.5q0 -14 -17.5 -24t-30.5 -10h-334q-19 0 -47 7t-28 21z" />
    <glyph glyph-name="Lcaron" unicode="&#x13d;" horiz-adv-x="674" 
d="M75 0q-27 14 -27 27v7q13 10 52.5 20.5t49.5 20.5q0 37 7 245.5t7 246.5v34v34q-9 20 -43.5 24t-64 9t-29.5 28q0 16 9.5 25t24.5 9h267q11 0 22.5 -9.5t11.5 -24.5q0 -17 -27.5 -22.5t-56.5 -14t-32 -31.5v-55v-61l7 -27q0 -3 -3.5 -34t-3.5 -35v-143v-150
q3 -25 8.5 -39t20.5 -20.5t28.5 -7.5t44.5 -1q79 0 129 12.5t68 31.5t26 41t6.5 41t6.5 31.5t30 12.5q14 0 28 -27q0 -16 6.5 -79.5t6.5 -84.5q0 -24 -20 -36t-48 -12q-32 0 -96 -0.5t-96 -0.5q-197 0 -320 15zM423 717q0 19 23.5 36.5t45.5 17.5t48.5 -17.5t26.5 -36.5
q0 -38 -12.5 -128t-8.5 -138q-10 -14 -19.5 -17.5t-28.5 -3.5q-28 0 -46 65t-23.5 124.5t-5.5 97.5z" />
    <glyph glyph-name="lcaron" unicode="&#x13e;" horiz-adv-x="598" 
d="M150 689h-34q-4 0 -24 -3t-24 -3q-48 0 -48 34q0 26 84.5 40t141.5 14q15 0 25 -6t15 -13t7 -22t2 -24.5t-0.5 -29t-0.5 -27.5q0 -51 -7 -158.5t-7 -162.5q0 -17 3.5 -51.5t3.5 -51.5q0 -13 -3.5 -44t-3.5 -44q0 -76 34 -76l150 -13q3 0 11.5 -6.5t18.5 -16.5l11 -11
q-17 -28 -79 -28q-44 0 -74 3t-61.5 13t-50 28t-30.5 50t-12 77v526q-7 6 -14 6h-34zM437 730q0 20 20 37.5t41 17.5q29 0 55.5 -15.5t26.5 -39.5q0 -37 -12 -127t-8 -139q-19 -27 -48 -27q-21 0 -37 38t-23.5 92t-11 96.5t-3.5 66.5z" />
    <glyph glyph-name="Lslash" unicode="&#x141;" horiz-adv-x="674" 
d="M75 0q-27 14 -27 27v7q15 10 25.5 15t15.5 7t20.5 5.5t27.5 6.5l13 7v150l-7 7q-40 -14 -61 -14q-20 0 -34 17t-14 38q0 33 82 68q22 35 33.5 84t13 82.5t1.5 93.5v34q-9 20 -43.5 24t-64 9t-29.5 28q0 16 9.5 25t24.5 9h267q11 0 22.5 -9.5t11.5 -24.5
q0 -17 -27.5 -22.5t-56.5 -14t-32 -31.5v-55v-61l7 -27q0 -4 -3.5 -17.5t-3.5 -16.5v-21q0 -16 9.5 -28.5t24.5 -12.5h7q66 41 109 41q26 0 33.5 -8t7.5 -33q0 -22 -19.5 -40t-47.5 -32.5t-56.5 -33t-48 -50.5t-19.5 -76q0 -67 17.5 -84.5t84.5 -17.5q79 0 129 12.5t68 31.5
t26 41t6.5 41t6.5 31.5t30 12.5q14 0 28 -27q0 -16 6.5 -79.5t6.5 -84.5q0 -24 -20 -36t-48 -12q-32 0 -96 -0.5t-96 -0.5q-197 0 -320 15z" />
    <glyph glyph-name="lslash" unicode="&#x142;" horiz-adv-x="528" 
d="M198 246q-20 20 -41 20q-4 0 -31 -6.5t-30 -6.5q-24 0 -36 15.5t-12 38.5q0 58 143 82q14 96 14 150v7q0 10 -3.5 68.5t-3.5 68.5q-4 8 -20 8q-5 0 -15 -1t-13 -1h-34q-4 0 -24 -3t-24 -3q-9 0 -18.5 2.5t-19.5 10.5t-10 21q0 16 32.5 27.5t79.5 16.5t83 7.5t58 2.5
q21 -13 21 -75v-177q0 -21 6.5 -51.5t20.5 -30.5q13 0 42 13.5t47 13.5q22 0 31.5 -8.5t9.5 -32.5q0 -33 -31.5 -53t-74 -37.5t-58.5 -38.5q0 -32 -3.5 -81.5t-3.5 -75.5q0 -76 34 -76l150 -13l14 -7q3 0 13 -10.5t14 -10.5q0 -34 -75 -34h-34l-184 7l-7 7q-7 115 -7 246z
" />
    <glyph glyph-name="Nacute" unicode="&#x143;" horiz-adv-x="662" 
d="M184 553l-13 -14q-7 -75 -7 -164q0 -2 -0.5 -25t-0.5 -43.5t0.5 -51.5t2.5 -56.5t5 -49.5t8 -40t12 -20q9 -7 37 -13.5t47 -17t19 -31.5q0 -36 -108 -36q-15 0 -35 1t-21 1h-69q-34 18 -34 34v7l55 55l7 20q0 2 1.5 31l3.5 65t2 54v151q0 163 -7 239q-5 13 -17 17.5
t-23 4t-20 7t-9 25.5q0 34 41 34q11 0 62 -6.5t61 -6.5q26 -9 40 -42.5t25.5 -68.5t30.5 -46l48 -96q13 -10 48 -69.5t69.5 -111t52.5 -51.5l7 7q7 54 7 150q0 116 -14 212q-2 18 -19.5 29t-37.5 16t-36 17.5t-16 32.5q0 10 7 15t14 5.5t20 0.5h184q28 0 28 -28
q0 -14 -6.5 -22t-15 -11t-16.5 -10t-10 -18q-7 -26 -11 -63t-4 -61t0.5 -71t0.5 -58q0 -44 3.5 -132.5t3.5 -133.5v-102q-9 -28 -48 -28q-23 0 -74 88.5t-101 195t-102.5 195t-77.5 88.5zM300 792q0 27 14 34q5 2 35.5 17t47 24t39.5 25t35 30q19 0 30 -14t11 -34
q0 -15 -15 -32.5t-40.5 -33.5t-46.5 -27.5t-47 -23.5t-28 -13q-22 11 -28.5 19.5t-6.5 28.5z" />
    <glyph glyph-name="nacute" unicode="&#x144;" 
d="M444 20q1 1 8 7.5l12.5 12t12 13.5t8.5 15q13 82 13 191q0 30 -1.5 51t-8 48.5t-18 44.5t-34 29t-54.5 12q-36 0 -93 -19.5t-71 -42.5q-2 -17 -7.5 -55t-9 -70t-3.5 -59t14 -123q6 -13 61 -26.5t55 -28.5v-6l-7 -7q-3 -3 -13.5 -6.5t-19.5 -5.5l-8 -2h-178q-15 0 -21 6
t-6 21v7q24 15 32.5 31.5t8.5 43.5v301l-7 20q-18 0 -53.5 8.5t-35.5 25.5q0 48 123 48q16 0 38.5 -17t43.5 -17q29 0 94 24t104 24h34l32 -24.5t30 -23.5t22 -22t20 -27t11.5 -31.5t7.5 -42.5q0 -17 3.5 -119.5t3.5 -119.5q2 -25 15.5 -37.5t28 -14.5t26.5 -10.5t12 -26.5
q0 -40 -61 -40h-31q-133 0 -133 40zM341 601q0 27 14 34q27 13 81.5 47.5t82.5 47.5h7q13 0 23.5 -16.5t10.5 -24.5q0 -27 -82 -81.5t-103 -54.5q-9 0 -21.5 18.5t-12.5 29.5z" />
    <glyph glyph-name="uni0145" unicode="&#x145;" horiz-adv-x="662" 
d="M335 -225v34v13.5v17.5t0.5 19t1.5 20.5t3 19.5t5.5 18.5t8.5 14t12 10t16 3.5q21 0 21 -157q-22 -20 -41 -20q-14 0 -27 7zM191 553q-20 0 -20 -7q-7 -54 -7 -177q0 -151 13 -253q5 -20 24.5 -31t39.5 -13.5t36.5 -13t16.5 -31.5q0 -34 -126 -34h-38h-29q-74 0 -74 34
q0 14 14 24l29.5 20.5t18.5 24.5q5 33 7 80.5t1.5 83t-1 87.5t-0.5 69v212q2 18 -9.5 27t-26.5 10t-27.5 8t-12.5 23q0 22 14 34h34q6 0 23 0.5t27 0.5q50 0 73 -14q20 -11 62.5 -88.5t83.5 -163.5t87 -156t74 -70h7q7 55 7 164q0 14 1.5 54.5t1.5 65.5t-5.5 57.5
t-17.5 54.5q-6 11 -51 24.5t-45 36.5q0 21 7 21q48 7 109 7q68 0 123 -7q7 0 7 -21q0 -16 -15.5 -31.5t-31 -39t-15.5 -58.5v-7q7 -28 7 -34q0 -4 -3.5 -31t-3.5 -31v-82q0 -44 3.5 -132.5t3.5 -133.5q0 -68 -7 -109q-10 -21 -41 -21q-18 0 -67.5 88.5t-101 195t-104 195
t-75.5 88.5z" />
    <glyph glyph-name="uni0146" unicode="&#x146;" 
d="M335 -218v27v13.5v17.5t0.5 19t1.5 20.5t3 19.5t5.5 18.5t8.5 14t12 10t16 3.5q10 0 21.5 -75.5t6.5 -81.5q-5 -9 -23.5 -14.5t-31.5 -5.5q-14 0 -20 14zM437 20q17 4 29.5 16.5t20 32.5t12 38.5t5.5 44.5t1.5 42t0 39t-0.5 26q0 39 -4 67.5t-16 57.5t-38 44.5t-65 15.5
q-38 0 -66 -6t-48 -15t-33 -27t-20.5 -35t-11 -46.5t-4.5 -53t-1 -63.5q0 -75 14 -130q0 -3 22.5 -12l48 -19.5t31.5 -16.5q0 -29 -76 -29l-40 2q-8 0 -25 -1t-26 -1q-29 0 -51 9q-3 0 -10 3.5t-12 6.5l-6 4v6l48 48v348q0 11 -24 14.5t-48 10t-24 23.5q0 22 47 31.5t76 9.5
q17 0 41 -17t41 -17q35 0 96 24t95 24q149 0 164 -219q0 -17 3.5 -112.5t3.5 -112.5l7 -14q5 -1 18 -3t20.5 -4t17 -6t14.5 -11t5 -17q0 -22 -19.5 -31t-41.5 -9q-151 0 -171 34v6z" />
    <glyph glyph-name="Ncaron" unicode="&#x147;" horiz-adv-x="662" 
d="M184 553l-13 -14q-7 -75 -7 -164q0 -2 -0.5 -25t-0.5 -43.5t0.5 -51.5t2.5 -56.5t5 -49.5t8 -40t12 -20q9 -7 37 -13.5t47 -17t19 -31.5q0 -36 -108 -36q-15 0 -35 1t-21 1h-69q-34 18 -34 34v7l55 55l7 20q0 2 1.5 31l3.5 65t2 54v151q0 163 -7 239q-5 13 -17 17.5
t-23 4t-20 7t-9 25.5q0 34 41 34q11 0 62 -6.5t61 -6.5q26 -9 40 -42.5t25.5 -68.5t30.5 -46l48 -96q13 -10 48 -69.5t69.5 -111t52.5 -51.5l7 7q7 54 7 150q0 116 -14 212q-2 18 -19.5 29t-37.5 16t-36 17.5t-16 32.5q0 10 7 15t14 5.5t20 0.5h184q28 0 28 -28
q0 -14 -6.5 -22t-15 -11t-16.5 -10t-10 -18q-7 -26 -11 -63t-4 -61t0.5 -71t0.5 -58q0 -44 3.5 -132.5t3.5 -133.5v-102q-9 -28 -48 -28q-23 0 -74 88.5t-101 195t-102.5 195t-77.5 88.5zM239 867v14q0 13 7 27t20 14q14 0 22.5 -11t12 -23.5t12 -23.5t22.5 -11h13q1 2 4 14
t5.5 17.5t7 14t10.5 12.5t14 4q34 0 34 -21q0 -35 -33 -92.5t-62 -57.5q-3 0 -11.5 10.5l-18 23t-11.5 14.5q-4 7 -24.5 37.5t-23.5 37.5z" />
    <glyph glyph-name="ncaron" unicode="&#x148;" 
d="M444 20q1 1 8 7.5l12.5 12t12 13.5t8.5 15q13 82 13 191q0 30 -1.5 51t-8 48.5t-18 44.5t-34 29t-54.5 12q-36 0 -93 -19.5t-71 -42.5q-2 -17 -7.5 -55t-9 -70t-3.5 -59t14 -123q5 -11 53.5 -21.5t48.5 -33.5q0 -9 -13.5 -18t-20.5 -9h-178q-15 0 -21 6t-6 21v7
q24 15 32.5 31.5t8.5 43.5v301l-7 20q-18 0 -53.5 8.5t-35.5 25.5q0 48 123 48q16 0 38.5 -17t43.5 -17q29 0 94 24t104 24h34l32 -24.5t30 -23.5t22 -22t20 -27t11.5 -31.5t7.5 -42.5q0 -17 3.5 -119.5t3.5 -119.5q2 -25 15.5 -37.5t28 -14.5t26.5 -10.5t12 -26.5
q0 -40 -61 -40h-31q-133 0 -133 40zM253 703q0 34 27 34q14 0 22.5 -10.5t11.5 -23.5t11.5 -23.5t22.5 -10.5h14q1 3 4 13.5t5.5 17t7 14.5t10.5 12t14 4q34 0 34 -27v-7l-62 -123q-13 -13 -27 -13q-25 0 -60 55.5t-35 87.5z" />
    <glyph glyph-name="Omacron" unicode="&#x14c;" horiz-adv-x="628" 
d="M20 369q0 69 15.5 132t47.5 118t87.5 92t129.5 47q20 2 29 2q53 0 100 -27t79 -70t55 -96t34 -106t11 -99q0 -102 -33.5 -184t-106 -133.5t-174.5 -51.5q-57 0 -104 23t-78 60t-52.5 86.5t-30.5 101.5t-9 105zM116 369q0 -308 191 -308q61 0 103.5 29t63.5 78.5t29.5 99
t8.5 107.5q0 73 -18 130t-57 130q-12 4 -58.5 26t-78.5 22q-184 0 -184 -314zM55 826q0 34 88 34q31 0 92.5 -3.5t92.5 -3.5t87.5 3.5t82.5 3.5q17 0 39.5 -7t22.5 -20v-7q0 -6 -22 -13t-44 -11l-23 -3h-375q-12 0 -26.5 8.5t-14.5 18.5z" />
    <glyph glyph-name="omacron" unicode="&#x14d;" horiz-adv-x="584" 
d="M20 246q0 119 79.5 199.5t200.5 80.5q114 0 190.5 -78t76.5 -195q0 -112 -86.5 -192.5t-200.5 -80.5q-111 0 -185.5 78t-74.5 188zM109 253q0 -87 47.5 -146t130.5 -59q89 0 146 57t52 148q-5 93 -59.5 148.5t-145.5 55.5q-88 0 -129.5 -55.5t-41.5 -148.5zM48 621
q20 28 95 28q31 0 92.5 -3.5t92.5 -3.5q27 0 85 3.5t85 3.5q62 0 62 -21q0 -13 -26 -23.5t-36 -10.5q-89 -7 -266 -7l-157 7z" />
    <glyph glyph-name="Ohungarumlaut" unicode="&#x150;" horiz-adv-x="628" 
d="M20 362q0 68 15.5 134.5t47 126.5t88 97.5t129.5 37.5q62 0 113.5 -23t87 -61.5t60 -89.5t36 -107t11.5 -115q0 -134 -76 -273q-30 -11 -57 -29t-44 -32t-52.5 -24.5t-84.5 -10.5q-73 0 -128.5 33t-86 88t-45 117.5t-14.5 130.5zM307 683q-74 0 -129 -65.5t-55 -139.5
v-219q0 -73 58 -135.5t133 -62.5q45 0 80.5 20.5t57 52.5t35.5 75t19.5 83.5t5.5 82.5q0 53 -10.5 103.5t-32.5 98.5t-64 77t-98 29zM150 833q0 15 79.5 69t105.5 54q10 0 22 -12t12 -22q0 -7 -4.5 -15.5t-10 -14l-12 -11.5t-7.5 -7l-137 -89q-19 0 -33.5 14.5t-14.5 33.5z
M362 833q0 27 13 34q68 25 157 89q24 0 32.5 -8t8.5 -33q0 -19 -22 -41t-45.5 -36t-57 -32t-38.5 -21h-7q-10 0 -25.5 18.5t-15.5 29.5z" />
    <glyph glyph-name="ohungarumlaut" unicode="&#x151;" horiz-adv-x="584" 
d="M20 246q0 116 76 201t191 85q122 0 201.5 -77t84.5 -196q3 -75 -42.5 -141t-115.5 -102t-142 -36q-107 0 -180 76.5t-73 189.5zM109 239q0 -81 58 -136t140 -55q77 0 124 60t47 138q0 101 -53 153t-152 52h-68q-26 -5 -46 -30t-30.5 -59t-15 -65.5t-4.5 -57.5zM123 601
q0 30 20 41l123 61l6 7q6 6 10 9.5t11 7t14 3.5q11 0 22.5 -13t11.5 -28q0 -28 -74.5 -82t-102.5 -54q-10 0 -25.5 18.5t-15.5 29.5zM335 608q0 7 27 34l116 61q14 27 41 27q15 0 24.5 -12.5t9.5 -28.5q0 -50 -169 -131q-6 -4 -9 -5l-8.5 8.5l-14 14t-12 16t-5.5 16.5z" />
    <glyph glyph-name="OE" unicode="&#x152;" horiz-adv-x="1008" 
d="M20 273v89q0 167 59 256t215 140q9 -5 39 -9.5t42 -4.5h581q13 0 20 -22.5t7 -38.5q0 -41 -10.5 -82t-37.5 -41q-16 0 -24 13.5t-9 30t-8 34t-20 24.5q-44 22 -130 22q-10 0 -28.5 -0.5t-26.5 -0.5h-61l-27 -7q-7 -41 -7 -55v-102l-7 -14q0 -48 18 -61.5t64 -13.5
q35 0 56.5 13t28 28t16 28t22.5 13q10 0 15 -11t5 -23v-7q0 -14 -6.5 -92.5t-6.5 -91.5l-7 -14q-11 0 -21.5 15t-19.5 33t-30.5 33t-51.5 15q-13 0 -18.5 -0.5t-13.5 -2t-13 -6t-10 -12.5q-2 -10 -10.5 -46.5t-12 -55t-7.5 -49t-4 -54.5q0 -1 -0.5 -8.5t0 -13.5t0.5 -15.5
t2 -16.5t5 -14t8.5 -10.5t12.5 -3.5h211q63 0 89 35q4 7 14 40.5t13 40.5q14 28 28 28q8 0 14.5 -4.5t10 -13.5t6 -18t3 -22t1 -20.5t0 -18.5t-0.5 -12q0 -103 -34 -103h-171q-69 0 -205.5 3.5t-204.5 3.5q-17 0 -47.5 -3.5t-47.5 -3.5q-59 0 -106.5 24t-78.5 65.5t-51 88.5
t-31 102zM116 369q0 -308 191 -308q51 0 88 20.5t56.5 50t30.5 75.5t13.5 82.5t2.5 85.5q0 46 -3.5 83t-15.5 81t-32.5 73.5t-58 50t-88.5 20.5q-184 0 -184 -314z" />
    <glyph glyph-name="oe" unicode="&#x153;" horiz-adv-x="1016" 
d="M14 253q0 117 79.5 195t193.5 78q149 0 225 -103q14 -7 20 -7q12 4 21 23.5t14 24.5q53 62 191 62q91 0 161.5 -62.5t70.5 -156.5q0 -32 -10 -43t-45 -11l-293 -14q-17 0 -26 -1t-20.5 -4t-17 -12t-5.5 -24q0 -43 33 -75.5t75.5 -47.5t83.5 -15q2 0 6.5 0.5t6.5 0.5
q35 0 106.5 20.5t105.5 20.5q7 0 13.5 -5.5t6.5 -14.5q0 -28 -59 -50t-120.5 -30.5t-100.5 -8.5q-141 0 -218 96q-21 -12 -56.5 -36t-57 -37t-55.5 -24.5t-70 -11.5q-110 0 -184.5 81.5t-74.5 191.5zM102 253q0 -85 53.5 -145t138.5 -60q84 0 130.5 57.5t46.5 147.5
q0 98 -50.5 151t-147.5 53q-84 0 -127.5 -56.5t-43.5 -147.5zM587 341q0 -41 99 -41h24q5 0 30 -1t41 -1q120 0 120 57q0 51 -54 80t-110 29q-54 0 -61 -7l-82 -82q-7 -6 -7 -34z" />
    <glyph glyph-name="Racute" unicode="&#x154;" horiz-adv-x="720" 
d="M239 328h-21l-6 -14v-253q0 -11 29 -14t58 -9.5t29 -23.5q0 -21 -7 -21q-11 0 -65 -3.5t-65 -3.5h-7h-7q-10 0 -61 3.5t-61 3.5q-7 0 -7 21q0 23 28 33t33 21q7 34 11 76t4 68t-0.5 80t-0.5 70v13q0 21 -3.5 140t-3.5 140q-6 17 -30 20.5t-45 7t-21 20.5q0 19 8.5 27
t26.5 14h54h48q3 0 34 -3.5t34 -3.5t34 3.5t35 3.5q97 0 145 -16t107 -79q27 -68 27 -110q0 -18 -2.5 -33.5t-10 -30l-12.5 -25t-19.5 -23.5t-20.5 -19t-25.5 -18.5t-24.5 -16t-28 -17t-27 -15.5v-13q0 -3 34.5 -45l74 -90.5t48.5 -62.5q0 -4 13.5 -28t13.5 -27
q7 -11 27 -18t39 -10t34.5 -11t15.5 -22q0 -41 -82 -41q-51 0 -89 26.5t-58.5 65.5l-43.5 85.5l-43.5 85.5t-58.5 65.5t-89 26.5zM212 410q34 -7 88 -7q86 0 125 33t39 117q0 70 -46.5 96.5t-123.5 26.5h-62q-14 -9 -21 -31.5t-8 -40t0.5 -49t1.5 -36.5q0 -68 7 -109z
M239 833v7q0 4 7 14t7 13q13 7 109 55q1 0 25 17t36 17q10 0 22 -12t12 -22q0 -6 -2 -11.5t-6 -11.5t-8.5 -11t-11 -10.5l-11.5 -9.5t-12.5 -9l-11.5 -7.5t-11 -6.5t-8 -5q-7 -3 -44 -27.5t-44 -27.5q-20 0 -34 14t-14 34z" />
    <glyph glyph-name="racute" unicode="&#x155;" horiz-adv-x="606" 
d="M68 20q0 21 17.5 30t41 13.5t30.5 11.5q12 12 17.5 36.5t5.5 45t-1.5 51.5t-1.5 38q0 6 1.5 40t0.5 54.5t-6 48t-19.5 41.5t-37.5 14q-14 0 -41.5 -7t-40.5 -7q-14 0 -14 41q0 48 171 48q18 0 30 -13t16.5 -28t13 -28t22.5 -13q31 0 67 23.5l75.5 47.5t76.5 24
q33 0 67.5 -18t34.5 -50q0 -48 -68 -48q-18 0 -50.5 7t-45.5 7q-81 0 -164 -95q-6 -19 -7.5 -40t-0.5 -57.5t1 -39.5q0 -1 -1.5 -19t-1.5 -35.5t2 -37.5t11.5 -32.5t24.5 -12.5h143q27 0 27 -41q0 -27 -61 -27q-11 0 -34.5 3.5t-33.5 3.5q-20 0 -62.5 -3.5t-67.5 -3.5
q-1 0 -19.5 -1t-33.5 -1q-84 0 -84 29zM259 601q0 20 14 34q111 56 164 95q18 0 29.5 -14t11.5 -27q0 -38 -69 -87t-109 -49q-15 0 -28 16t-13 32z" />
    <glyph glyph-name="uni0156" unicode="&#x156;" horiz-adv-x="720" 
d="M300 -198v14v18t0.5 19.5t2 22l3.5 20.5t5.5 19.5t8.5 15t12 11t16 3.5h7q0 -3 3.5 -13t3.5 -14l7 -20l-7 -14v-14q0 -14 6.5 -39.5t6.5 -35.5v-7q-5 -4 -20 -12t-20 -8q-35 0 -35 34zM396 232q-17 17 -51 48t-51 48h-82q-7 -34 -7 -48v-89v-89q0 -32 19 -47t42.5 -16
t42.5 -7.5t19 -24.5q0 -14 -7 -14h-266q-7 0 -7 21q0 14 9.5 22.5t21.5 12.5t23.5 14t13.5 26q7 116 7 314q0 170 -7 259q-8 8 -52 15t-44 26q0 9 5.5 17t9.5 11t14.5 8t11.5 5h48q16 0 55.5 -3.5t60.5 -3.5q15 0 40.5 3.5t34.5 3.5h7q20 0 75 -7l55 -7q8 -1 17 -4.5
t18 -9.5t15.5 -11t16 -14t13.5 -12.5t13 -13t9 -10.5q15 -19 24.5 -54t9.5 -62q0 -36 -18 -69t-44 -55t-52.5 -39t-44.5 -27.5t-18 -13.5q0 -9 34.5 -50.5l74.5 -88t48 -59.5q3 -3 9.5 -16.5l14.5 -31t10 -21.5q6 -3 38 -13t51.5 -21.5t19.5 -26.5q0 -27 -27 -27h-109
q-40 0 -109 143zM225 676q-20 -22 -20 -62v-170q0 -26 11 -35t32 -9q8 0 26 1.5t26 1.5q87 0 129 28.5t42 114.5q0 137 -184 137q-3 0 -31 -3.5t-31 -3.5z" />
    <glyph glyph-name="uni0157" unicode="&#x157;" horiz-adv-x="606" 
d="M212 -7q-69 0 -116 7q-6 0 -17 9t-11 18q0 11 16 19t36 14t37.5 24t19.5 46v102q0 65 -13 191q-10 14 -19.5 17.5t-28.5 3.5q-14 0 -41.5 -7t-40.5 -7h-7q0 4 -3.5 17t-3.5 17v7q0 17 23 27.5t59 14.5t54.5 5t34.5 1q18 0 29 -13t14.5 -28t13 -28t25.5 -13q36 0 55 27
q50 31 86 46.5t78 15.5q34 0 64.5 -15t30.5 -47q0 -24 -20 -36t-48 -12q-13 0 -44 7t-45 7q-53 0 -112 -34.5t-59 -81.5v-232l21 -21q25 -3 83.5 -6t87.5 -7l6 -7l14 -21q0 -27 -82 -27q-10 0 -27 3.5t-27 3.5q-21 0 -62 -3.5t-61 -3.5zM229 -238q-16 6 -23.5 14t-7.5 26
v15.5v19t0.5 20.5t2 22t4 19.5t6.5 18.5t10 14t14 10.5t18 3.5q3 0 6 -11.5t5 -23.5l2 -12l-7 -14v-7q0 -26 14 -82v-7q0 -4 -17 -13.5t-27 -12.5h1l2 -1h-7q2 0 4 1z" />
    <glyph glyph-name="Rcaron" unicode="&#x158;" horiz-adv-x="720" 
d="M239 328h-21l-6 -14v-253q0 -11 29 -14t58 -9.5t29 -23.5q0 -21 -7 -21q-11 0 -65 -3.5t-65 -3.5h-7h-7q-10 0 -61 3.5t-61 3.5q-7 0 -7 21q0 23 28 33t33 21q7 34 11 76t4 68t-0.5 80t-0.5 70v13q0 21 -3.5 140t-3.5 140q-6 17 -30 20.5t-45 7t-21 20.5q0 19 8.5 27
t26.5 14h54h48q3 0 34 -3.5t34 -3.5t34 3.5t35 3.5q97 0 145 -16t107 -79q27 -68 27 -110q0 -18 -2.5 -33.5t-10 -30l-12.5 -25t-19.5 -23.5t-20.5 -19t-25.5 -18.5t-24.5 -16t-28 -17t-27 -15.5v-13q0 -3 34.5 -45l74 -90.5t48.5 -62.5q0 -4 13.5 -28t13.5 -27
q7 -11 27 -18t39 -10t34.5 -11t15.5 -22q0 -41 -82 -41q-51 0 -89 26.5t-58.5 65.5l-43.5 85.5l-43.5 85.5t-58.5 65.5t-89 26.5zM212 410q34 -7 88 -7q86 0 125 33t39 117q0 70 -46.5 96.5t-123.5 26.5h-62q-14 -9 -21 -31.5t-8 -40t0.5 -49t1.5 -36.5q0 -68 7 -109z
M218 901q0 62 28 62q18 0 31.5 -34.5t29.5 -41.5h7l14 7q4 4 14 28t13 27l7 7q30 0 41 -21q0 -34 -33.5 -92t-62.5 -58q-13 0 -20 14q-9 9 -36 49t-33 53z" />
    <glyph glyph-name="rcaron" unicode="&#x159;" horiz-adv-x="606" 
d="M68 20q0 21 17.5 30t41 13.5t30.5 11.5q12 12 17.5 36.5t5.5 45t-1.5 51.5t-1.5 38q0 6 1.5 40t0.5 54.5t-6 48t-19.5 41.5t-37.5 14q-14 0 -41.5 -7t-40.5 -7q-14 0 -14 41q0 48 171 48q18 0 30 -13t16.5 -28t13 -28t22.5 -13q31 0 67 23.5l75.5 47.5t76.5 24
q33 0 67.5 -18t34.5 -50q0 -48 -68 -48q-18 0 -50.5 7t-45.5 7q-81 0 -164 -95q-6 -19 -7.5 -40t-0.5 -57.5t1 -39.5q0 -1 -1.5 -19t-1.5 -35.5t2 -37.5t11.5 -32.5t24.5 -12.5h143q27 0 27 -41q0 -27 -61 -27q-11 0 -34.5 3.5t-33.5 3.5q-20 0 -62.5 -3.5t-67.5 -3.5
q-1 0 -19.5 -1t-33.5 -1q-84 0 -84 29zM218 696q0 14 7 27.5t21 13.5t22.5 -10.5t11.5 -23.5t11.5 -23.5t22.5 -10.5h14q20 61 41 61q34 0 34 -27q0 -25 -33 -84t-56 -59q-30 0 -63 49.5t-33 86.5z" />
    <glyph glyph-name="Sacute" unicode="&#x15a;" horiz-adv-x="558" 
d="M61 -20q-10 3 -17 8t-11.5 14l-7.5 15t-4 19.5t-1 18v19v15.5v11v15v16t1.5 17.5t3 17t5 15.5t7.5 12t10 9t14 3q20 0 34 -24.5t21 -54t26 -54t49 -24.5h150q47 0 75 44.5t28 91.5q0 46 -23.5 77t-61 47t-82.5 28l-90 25t-82.5 31t-61 53.5t-23.5 86.5q0 106 84 166
t196 60q61 0 185 -14q9 -5 18 -21t9 -27v-116q0 -10 -15.5 -29t-25.5 -19q-14 0 -24 16t-20 39t-26 46.5t-52.5 39.5t-89.5 16q-58 0 -97 -34.5t-39 -94.5q0 -48 28.5 -79t75.5 -48.5t97.5 -33t103.5 -43.5t84 -69q27 -66 27 -110q0 -51 -26 -92t-67.5 -64.5t-87.5 -35.5
t-92 -12q-38 0 -104.5 3.5t-100.5 3.5zM266 826q0 21 7 34q8 4 43 26.5t71 43t57 26.5q34 0 34 -48q0 -15 -80.5 -72.5t-97.5 -57.5q-14 0 -24 17.5t-10 30.5z" />
    <glyph glyph-name="sacute" unicode="&#x15b;" horiz-adv-x="504" 
d="M123 0q-3 0 -15 -3.5t-19 -3.5q-28 0 -48.5 30t-20.5 59q0 18 1 29t5 27.5t14.5 24.5t27.5 8q10 0 24.5 -19t30 -42.5t51.5 -42.5t85 -19q60 0 91.5 19t31.5 76v34q-14 24 -55.5 35t-88.5 16t-92 15.5t-75 41t-30 84.5q0 51 38.5 90t88.5 56t98 17q35 0 58 -1.5t52.5 -8
t46.5 -18t29 -34t12 -54.5q0 -61 -34 -61q-23 0 -36 15t-17.5 33t-16.5 33t-32 15h-151q-40 0 -40 -76q0 -33 26 -51t64.5 -22.5t83.5 -12.5t83.5 -19t64.5 -45t26 -88q0 -41 -23.5 -72.5t-60.5 -47.5t-74 -23.5t-74 -7.5q-20 0 -62.5 7t-67.5 7zM205 614q0 25 78 74t106 49
q14 0 24 -14t10 -27q0 -37 -74 -83t-110 -46q-15 0 -24.5 15t-9.5 32z" />
    <glyph glyph-name="Scedilla" unicode="&#x15e;" horiz-adv-x="558" 
d="M171 -157q0 7 2 10t4 3.5t7 0.5q25 0 47 -24t42 -24q24 0 39.5 22.5t15.5 45.5q0 34 -21.5 57.5t-56 33.5t-63 14t-57.5 4q-4 0 -21 -3t-20 -3h-14q-19 0 -31.5 10t-17 30t-5.5 33.5t-1 35.5v9v14v16t1.5 17.5t3 17.5t5 16.5t7.5 13t10 9.5t14 3q9 0 17.5 -17l20 -41
t30 -48t56 -41t88.5 -17q75 0 123 33.5t48 109.5q0 46 -23 77t-60 47t-81 28l-88.5 25t-81.5 31t-60 53.5t-23 86.5q0 107 81 166.5t192 59.5q6 0 32 1t43 1q137 0 137 -64q0 -10 -3.5 -23.5t-3.5 -23.5q0 -11 3.5 -28t3.5 -27q0 -21 -14 -42.5t-34 -25.5q-25 20 -37 45.5
t-15.5 44.5t-14 36.5t-42 27t-89.5 9.5q-143 0 -143 -122q0 -48 23 -80.5t59.5 -49t81 -28.5t89 -26.5t81 -35.5t59.5 -62t23 -101q0 -44 -27 -83t-59 -61l-60.5 -40.5t-30.5 -26.5q-4 -11 11.5 -57.5t15.5 -58.5q0 -103 -164 -103q-28 0 -41 28.5t-13 60.5z" />
    <glyph glyph-name="scedilla" unicode="&#x15f;" horiz-adv-x="504" 
d="M143 -157q0 14 14 14q25 0 47 -27.5t42 -27.5q19 0 36.5 26.5t17.5 48.5q0 38 -30.5 67.5t-68.5 42.5t-71 13h-14l-27 -7q-33 5 -47.5 32.5t-14.5 63.5q0 82 41 82q16 0 28.5 -19t21 -42.5t29.5 -42.5t51 -19h116q34 0 54.5 28.5t20.5 66.5q0 37 -35 55.5t-85.5 25.5
t-100.5 17t-85 43t-35 91q0 71 70.5 114t147.5 43h7l27 -6q11 0 65.5 -10.5t64.5 -10.5q14 -9 24 -39t10 -50q0 -21 -8 -41t-26 -20q-20 0 -30 10.5t-16 25.5t-16 30t-39 25.5t-76 10.5h-62q-24 0 -42.5 -26t-18.5 -49q0 -41 36.5 -60.5t89 -26.5t104.5 -17t88.5 -44.5
t36.5 -96.5q0 -53 -50 -96t-107 -55q15 -20 28 -57.5t13 -58.5q0 -36 -14.5 -60.5t-40.5 -36t-51 -15.5t-58 -4q-29 0 -45.5 27.5t-16.5 61.5z" />
    <glyph glyph-name="Scaron" unicode="&#x160;" horiz-adv-x="558" 
d="M61 -20q-10 3 -17 8t-11.5 14l-7.5 15t-4 19.5t-1 18v19v15.5v11v15v16t1.5 17.5t3 17t5 15.5t7.5 12t10 9t14 3q20 0 34 -24.5t21 -54t26 -54t49 -24.5h150q47 0 75 44.5t28 91.5q0 46 -23.5 77t-61 47t-82.5 28l-90 25t-82.5 31t-61 53.5t-23.5 86.5q0 106 84 166
t196 60q61 0 185 -14q9 -5 18 -21t9 -27v-116q0 -10 -15.5 -29t-25.5 -19q-14 0 -24 16t-20 39t-26 46.5t-52.5 39.5t-89.5 16q-58 0 -97 -34.5t-39 -94.5q0 -48 28.5 -79t75.5 -48.5t97.5 -33t103.5 -43.5t84 -69q27 -66 27 -110q0 -51 -26 -92t-67.5 -64.5t-87.5 -35.5
t-92 -12q-38 0 -104.5 3.5t-100.5 3.5zM184 908q0 21 5.5 32.5t22.5 22.5h6q14 0 21.5 -12t9.5 -26t9.5 -26t21.5 -12q11 0 19 11t11 23.5t9.5 23.5t15.5 11q34 0 34 -28q0 -35 -30.5 -89t-58.5 -54q-12 0 -28 17t-27.5 36l-24.5 42.5t-16 27.5z" />
    <glyph glyph-name="scaron" unicode="&#x161;" horiz-adv-x="504" 
d="M123 0q-3 0 -15 -3.5t-19 -3.5q-28 0 -48.5 30t-20.5 59q0 18 1 29t5 27.5t14.5 24.5t27.5 8q10 0 24.5 -19t30 -42.5t51.5 -42.5t85 -19q60 0 91.5 19t31.5 76v34q-14 24 -55.5 35t-88.5 16t-92 15.5t-75 41t-30 84.5q0 51 38.5 90t88.5 56t98 17q35 0 58 -1.5t52.5 -8
t46.5 -18t29 -34t12 -54.5q0 -61 -34 -61q-23 0 -36 15t-17.5 33t-16.5 33t-32 15h-151q-40 0 -40 -76q0 -33 26 -51t64.5 -22.5t83.5 -12.5t83.5 -19t64.5 -45t26 -88q0 -41 -23.5 -72.5t-60.5 -47.5t-74 -23.5t-74 -7.5q-20 0 -62.5 7t-67.5 7zM157 703q0 12 9 30t18 18
q16 0 25 -10.5t12 -23.5t10.5 -23.5t21.5 -10.5q15 0 23 7.5t15 28t9 25.5h14q34 0 34 -20q-3 -21 -15 -46.5t-29.5 -55.5t-23.5 -42q-7 -7 -27 -7q-24 0 -57 49.5t-39 80.5z" />
    <glyph glyph-name="uni0162" unicode="&#x162;" horiz-adv-x="662" 
d="M307 -225v34v13.5v17.5t0.5 19t1.5 20.5t3 19.5t6 18.5t9 14t12 10t16 3.5t14.5 -62t5.5 -95l-6 -6l-34 -21q-14 0 -28 14zM157 14q0 20 32.5 26.5t65 12t32.5 22.5v574q0 14 -46 14q-9 0 -22 -0.5t-14 -0.5q-40 0 -63 -17t-30.5 -41t-11 -48t-12 -41t-27.5 -17
q-41 0 -41 137q0 95 55 95h539q9 0 18.5 -22.5t9.5 -31.5v-144q0 -10 -9 -18.5t-19 -8.5q-22 0 -31 17t-11 41t-8.5 48t-33 41t-73.5 17q-82 0 -82 -41v-539q0 -23 24 -33.5t54 -10.5t58 -9t35 -29q0 -3 -5 -10t-10 -12l-5 -5q-4 0 -28 -7t-27 -7q-17 0 -112.5 7t-112.5 7
q-89 0 -89 34z" />
    <glyph glyph-name="uni0163" unicode="&#x163;" horiz-adv-x="540" 
d="M212 -205q0 20 20 137q7 7 27 7q7 0 12.5 -7t8.5 -19.5t5 -26t2 -30.5t0.5 -28.5t0 -25t-0.5 -14.5q0 -9 -14.5 -14.5t-26.5 -5.5q-11 0 -22.5 9t-11.5 18zM102 191q0 31 3.5 92.5t3.5 91.5q0 37 -14 54.5t-30.5 18t-30.5 6.5t-14 24q0 14 14 20q45 2 66 19t25 39.5t9 45
t29.5 38t75.5 15.5v-20q-3 0 -17 -3.5t-17 -3.5l-7 -7l7 -20v-69q9 -9 33 -18t35 -9q35 0 98 7t93 7q16 0 25 -9.5t9 -24.5q0 -22 -41 -34q-78 2 -102 2q-42 0 -68 -2.5t-48 -13t-32.5 -25t-18 -44t-9.5 -64.5t-2 -92q0 -75 7 -130q14 -27 28 -27h75q30 0 95 10t96 10
q13 0 20 -0.5t14 -5.5t7 -14q0 -28 -67.5 -48t-127 -27t-85.5 -7q-37 0 -64 14.5t-40.5 34.5t-21.5 52t-9.5 57t-1.5 60z" />
    <glyph glyph-name="Tcaron" unicode="&#x164;" horiz-adv-x="662" 
d="M150 14q0 18 18.5 26.5t41 9t44 6.5t26.5 19q7 116 7 348v191q4 30 -13 39t-50 9h-26q-36 0 -56.5 -17.5t-26.5 -42.5t-10 -50t-13.5 -42.5t-30.5 -17.5q-41 0 -41 143q0 95 35 95h559q14 0 21 -13.5t7 -27.5v-163q0 -21 -28 -21q-24 0 -32.5 16t-10 39.5t-7 46.5t-32 39
t-75.5 16q-75 0 -75 -13l-7 -48v-403q8 -33 6.5 -53t0.5 -63q2 -21 28.5 -29.5t56.5 -8.5t54.5 -8.5t24.5 -28.5q0 -34 -41 -34h-95h-103q-15 0 -32 1t-50 4t-54 12.5t-21 23.5zM253 915q0 12 6.5 23t20.5 11q17 0 30.5 -34t30.5 -34q14 0 22.5 9.5t11.5 21t10 21t18 9.5
q27 0 27 -7v-34l-55 -109q-18 -21 -27 -21q-33 0 -64 54t-31 90z" />
    <glyph glyph-name="tcaron" unicode="&#x165;" horiz-adv-x="692" 
d="M20 471q0 21 7 27q44 2 65.5 16t25.5 33.5t4 39.5t9 35.5t33 19.5q8 0 24.5 -9.5t16.5 -18.5v-88q5 -5 33 -13t35 -8q35 0 98 7t93 7q16 0 25 -9.5t9 -24.5q0 -14 -14 -24t-27 -10q-80 2 -105 2q-43 0 -69 -2.5t-47.5 -13t-31.5 -24.5t-17 -44.5t-8.5 -64.5t-1.5 -92
q0 -2 -1.5 -23t-1.5 -40t2 -41.5t11.5 -36.5t24.5 -16h68q34 0 99 10t99 10q13 0 20 -0.5t14 -5.5t7 -14q0 -35 -111 -58.5t-169 -23.5q-45 0 -91 32.5t-46 76.5v341q0 21 -41 24t-41 24zM532 587q0 25 20 44t45 19q29 0 54 -21t25 -49q0 -39 -12 -125t-9 -134
q0 -27 -47 -27q-28 0 -46.5 65.5t-24 125.5t-5.5 102z" />
    <glyph glyph-name="Umacron" unicode="&#x16a;" 
d="M109 621q0 25 -14 38.5t-30.5 16t-30.5 10.5t-14 24q0 34 76 34q17 0 47.5 -3.5t47.5 -3.5q7 0 20.5 3.5t20.5 3.5q8 0 55 -20q-20 -25 -30.5 -31t-44.5 -17q-8 -16 -13 -32.5t-6.5 -36.5t-2 -32.5t0 -37t0.5 -32.5v-41q0 -6 3.5 -61t3.5 -62q1 -19 1.5 -51.5t1 -53.5
t3.5 -49.5t8.5 -47t16.5 -39t27 -32t41.5 -19.5t57.5 -8q50 0 99 17.5t58 57.5q14 68 14 123q0 5 2.5 79.5t3 135t-6 125t-20.5 83.5q-7 8 -25.5 13.5t-30.5 14.5t-12 27q0 5 10 9t17 4h185q13 0 13 -20q0 -11 -15.5 -25.5t-32.5 -36t-20 -47.5q0 -5 -3.5 -60t-3.5 -70
q0 -23 -3.5 -168t-3.5 -173q-16 -75 -78 -111q-20 -12 -86 -39h-157q-41 0 -71 23t-44.5 59.5t-21 72t-6.5 70.5q0 30 -3.5 207.5t-3.5 208.5zM123 799l-8 8l-11 11l-8 8q0 28 64 28q6 0 14.5 -0.5t9.5 -0.5q36 0 99 -3t92 -3q28 0 86 3t85 3q4 0 11 0.5t10 0.5q23 0 34 -21
q0 -13 -25.5 -23.5t-36.5 -10.5q-95 -7 -204 -7q-117 0 -212 7z" />
    <glyph glyph-name="umacron" unicode="&#x16b;" 
d="M109 184l7 14v20q0 7 -3.5 17.5t-3.5 17.5l7 13v137q0 18 -13.5 26.5t-30 9t-34 6.5t-24.5 19q27 41 143 41q3 0 8.5 0.5t7.5 0.5q13 0 18 -14v-48q0 -31 -3.5 -89t-3.5 -89q0 -36 2 -60t10.5 -63t31.5 -60.5t59 -21.5h116l20 8.5l19 8t16 8t14.5 10.5t10 13t7.5 18t2 23
v246q0 20 -13 29.5t-28 9.5t-28 6.5t-13 22.5q0 41 136 41q12 0 20.5 -13t11 -26t2.5 -22q0 -38 -3.5 -108.5t-3.5 -103.5v-95l7 -41q3 -1 13.5 -3t15.5 -3.5t14.5 -5t15 -7t11.5 -8.5t9 -12.5t3 -15.5q0 -14 -52 -27.5t-71 -13.5q-9 0 -31.5 13.5t-36.5 13.5
q-30 0 -88 -20.5t-89 -20.5q-75 0 -130 62t-55 136zM55 628q-5 9 3.5 15t16.5 6q3 0 32 6.5t36 6.5h7q31 0 92.5 -3.5t92.5 -3.5h122q4 0 21 3.5t20 3.5h7q17 0 39.5 -7t22.5 -20v-7q0 -5 -29 -16t-40 -11h-409q-3 0 -11.5 6.5t-15.5 13.5z" />
    <glyph glyph-name="Uring" unicode="&#x16e;" 
d="M116 143q0 31 -3.5 195t-3.5 194q0 11 -3.5 62t-3.5 61q-5 11 -43.5 25t-38.5 37q0 9 12 18t23 9h184q7 0 34 -27q0 -19 -8 -26t-17.5 -6t-20.5 -2t-15 -14q-7 -17 -11 -44t-4 -45.5t0.5 -51.5t0.5 -36q0 -253 14 -376q28 -48 82 -68h54q108 0 143 46.5t35 158.5
q0 30 -7 194t-7 195q-2 14 -15.5 23.5t-28 14t-26.5 14t-12 23.5l7 7l14 6h204q3 0 5 -5t2 -10v-5q0 -11 -10.5 -23t-23.5 -22t-23.5 -29t-10.5 -42l-14 -471q0 -41 -25 -72t-64 -47t-77 -23.5t-73 -7.5q-99 0 -154.5 40t-70.5 130zM253 847q-10 69 47 116q30 0 44.5 -0.5
t36 -5.5t31.5 -14.5t17.5 -28.5t7.5 -47q0 -32 -27 -60.5t-62 -28.5q-28 0 -59.5 20t-35.5 49zM300 874q0 -20 14 -34t34 -14t34 16.5t14 38.5q0 20 -13.5 30.5t-34.5 10.5q-31 0 -39.5 -8.5t-8.5 -39.5z" />
    <glyph glyph-name="uring" unicode="&#x16f;" 
d="M116 314l-7 21v6q0 6 3.5 18t3.5 23q0 23 -14 36t-30.5 15.5t-30.5 10t-14 20.5q0 26 45.5 37t84.5 11q34 0 34 -14v-327q0 -60 47 -85t110 -25q91 0 137 55q7 55 7 157q0 96 -7 143q-3 8 -27 15t-42.5 14t-12.5 19q9 19 62 33.5t81 14.5q18 0 26 -26t8 -49
q0 -31 -3.5 -92.5t-3.5 -91.5q0 -89 7 -151q5 -11 28 -14.5t42 -11t19 -28.5q0 -17 -53 -36t-77 -19q-13 0 -33.5 13.5t-34.5 13.5q-31 0 -89 -17t-88 -17q-196 0 -178 328zM239 601q0 44 9.5 71t38.5 52h34q102 0 102 -96q0 -40 -27 -64.5t-68 -24.5q-25 0 -57 19.5
t-32 42.5zM280 628q0 -15 16 -28t32 -13q22 0 38 12t16 36q0 20 -13.5 34t-33.5 14q-55 0 -55 -55z" />
    <glyph glyph-name="Uhungarumlaut" unicode="&#x170;" 
d="M116 143q0 31 -3.5 195t-3.5 194q0 11 -3.5 62t-3.5 61q-5 11 -43.5 25t-38.5 37q0 9 12 18t23 9h184q7 0 34 -27q0 -19 -8 -26t-17.5 -6t-20.5 -2t-15 -14q-7 -17 -11 -44t-4 -45.5t0.5 -51.5t0.5 -36q0 -253 14 -376q28 -48 82 -68h54q108 0 143 46.5t35 158.5
q0 30 -7 194t-7 195q-2 14 -15.5 23.5t-28 14t-26.5 14t-12 23.5l7 7l14 6h204q3 0 5 -5t2 -10v-5q0 -11 -10.5 -23t-23.5 -22t-23.5 -29t-10.5 -42l-14 -471q0 -41 -25 -72t-64 -47t-77 -23.5t-73 -7.5q-99 0 -154.5 40t-70.5 130zM198 812q0 6 4.5 18t9.5 17
q10 3 61.5 30.5t61.5 30.5q11 6 17.5 12.5t8.5 9t6.5 4t14.5 1.5q11 0 22.5 -13t11.5 -28q0 -30 -79.5 -79.5t-97.5 -49.5q-10 0 -25.5 18.5t-15.5 28.5zM416 806q0 27 7 41q15 6 82 46.5t89 48.5l10.5 -10t12 -12t7.5 -11.5t4 -14.5q0 -30 -79.5 -79.5t-97.5 -49.5
q-14 0 -24.5 14.5t-10.5 26.5z" />
    <glyph glyph-name="uhungarumlaut" unicode="&#x171;" 
d="M116 314l-7 21v6q0 6 3.5 18t3.5 23q0 23 -14 36t-30.5 15.5t-30.5 10t-14 20.5q0 26 45.5 37t84.5 11q34 0 34 -14v-327q0 -60 47 -85t110 -25q91 0 137 55q7 55 7 157q0 96 -7 143q-3 8 -27 15t-42.5 14t-12.5 19q9 19 62 33.5t81 14.5q18 0 26 -26t8 -49
q0 -31 -3.5 -92.5t-3.5 -91.5q0 -89 7 -151q5 -11 28 -14.5t42 -11t19 -28.5q0 -17 -53 -36t-77 -19q-13 0 -33.5 13.5t-34.5 13.5q-31 0 -89 -17t-88 -17q-196 0 -178 328zM177 580q0 27 81 82t97 55q19 0 30 -15.5t11 -32.5q0 -29 -72.5 -79.5t-105.5 -50.5
q-10 0 -25.5 15.5t-15.5 25.5zM396 587q0 27 14 34q9 3 34.5 17l51.5 28.5t30 16.5q3 0 16.5 13.5t17.5 13.5l13 7q15 0 28 -16t13 -32q0 -8 -3.5 -15t-12.5 -14.5l-14 -11.5t-17.5 -11.5t-13.5 -8.5q-22 -22 -109 -69q-20 0 -34 14.5t-14 33.5z" />
    <glyph glyph-name="Uogonek" unicode="&#x172;" 
d="M246 -109q0 14 6.5 36.5t6.5 31.5q0 4 -19.5 19l-44 34.5t-48.5 55t-31 75.5q0 31 -3.5 195t-3.5 194q0 11 -3.5 62t-3.5 61q-5 11 -43.5 25t-38.5 37q0 9 12 18t23 9h211q6 0 8 -5t0 -10l-1 -5h21q-10 0 -14.5 -4.5t-8.5 -16.5t-5 -14l-13 -6q-23 -6 -37 -19.5t-18 -36
t-4 -41t2 -49t2 -45.5q0 -253 14 -376q28 -48 82 -68h54q108 0 143 46.5t35 158.5q0 30 -7 194t-7 195q-2 14 -15.5 23.5t-28 14t-26.5 14t-12 23.5l7 7l14 6h204q3 0 5 -5t2 -10v-5q0 -11 -10.5 -23t-23.5 -22t-23.5 -29t-10.5 -42l-14 -471q-2 -45 -31 -74t-68.5 -42.5
l-79 -26t-67 -36t-27.5 -60.5q0 -32 16 -53.5t46 -21.5q20 0 35 24t40 24q13 0 13 -7q0 -57 -15.5 -73t-72.5 -16q-61 0 -92 34t-31 96z" />
    <glyph glyph-name="uogonek" unicode="&#x173;" 
d="M410 -82q0 28 11.5 43t35.5 28.5t35 24.5q-15 13 -21 13q-30 0 -88 -20.5t-89 -20.5q-75 0 -130 62t-55 136l7 14v20q0 7 -3.5 17.5t-3.5 17.5l7 13v137q0 18 -13.5 26.5t-30 9t-34 6.5t-24.5 19q27 41 143 41q3 0 8.5 0.5t7.5 0.5q13 0 18 -14v-48q0 -31 -3.5 -89
t-3.5 -89q0 -36 2 -60t10.5 -63t31.5 -60.5t59 -21.5h116l20 8.5l19 8t16 8t14.5 10.5t10 13t7.5 18t2 23v246q0 20 -13 29.5t-28 9.5t-28 6.5t-13 22.5q0 41 136 41q12 0 20.5 -13t11 -26t2.5 -22q0 -38 -3.5 -108.5t-3.5 -103.5v-95l7 -41q3 -1 13.5 -3t15.5 -3.5t14.5 -5
t15 -7t11.5 -8.5t9 -12.5t3 -15.5q0 -1 -19 -8.5t-46 -20.5t-54 -30.5t-46 -43t-19 -54.5v-34q6 -2 29 -18t39 -16q9 0 14.5 7.5t9 16t15 16t29.5 7.5q21 0 21 -27q0 -23 -8.5 -37.5t-25 -20.5t-31.5 -8t-38 -2h-27q-46 0 -70.5 47.5t-24.5 102.5z" />
    <glyph glyph-name="Ydieresis" unicode="&#x178;" 
d="M205 20q0 18 16 27t35 11t35 11t16 27v225q0 12 -102 181t-116 174q-4 1 -17.5 3.5t-19.5 4.5t-15 7t-13 13t-4 20q0 18 20 26t42 8q10 0 30.5 -3.5t30.5 -3.5q6 0 21.5 3.5t26.5 3.5q25 0 53.5 -8t28.5 -26q0 -16 -10 -22.5t-27 -10.5t-24 -8v-14q0 -30 67 -141.5
t83 -111.5q33 0 88 101t55 138q0 14 -11.5 21.5t-26 10.5t-26 12t-11.5 25q0 9 8 14.5t19 5.5q7 0 79 7t99 7q14 0 20.5 -11t6.5 -23q0 -24 -35.5 -50.5t-39.5 -31.5q-47 -61 -115.5 -186.5t-68.5 -175.5q0 -130 13 -198q8 -13 45 -16t68 -9t31 -30q0 -44 -122 -44
q-22 0 -51.5 1.5t-31.5 1.5h-26q-124 0 -124 34zM437 874v7l48 47h7q54 0 54 -61q0 -75 -48 -75q-28 0 -44.5 26.5t-16.5 55.5zM171 874q0 20 20 37t41 17q25 0 40 -17.5t15 -43.5q0 -68 -62 -68q-20 0 -37 24.5t-17 50.5z" />
    <glyph glyph-name="Zacute" unicode="&#x179;" horiz-adv-x="604" 
d="M451 -20h-390q-28 0 -34.5 14.5t-6.5 46.5q0 36 42 102.5t102.5 139l121 144.5t102.5 133t42 89q0 29 -91 29q-11 0 -23.5 -0.5t-20 -1t-8.5 -0.5h-75q-32 -7 -52.5 -28t-28 -41.5t-19.5 -37t-30 -16.5q-34 0 -34 20v55q0 70 7 89q15 41 75 41q62 0 188 -7t187 -7
q20 0 30.5 -13t10.5 -35q0 -30 -62 -123.5t-155.5 -217t-103.5 -137.5q-7 -11 -30.5 -39t-40.5 -53.5t-17 -43.5q0 -14 13 -21q41 -6 116 -6q12 0 42 -1.5t46 -1.5q70 0 97 23q9 7 42.5 61.5t52.5 54.5t30 -19t11 -42q0 -157 -75 -157h-7q-4 0 -27.5 3.5t-26.5 3.5zM294 826
q0 4 6.5 17t6.5 17q16 8 76.5 46t87.5 50h7q14 0 24 -17.5t10 -30.5q0 -28 -72.5 -75.5t-104.5 -54.5q-10 0 -25.5 18.5t-15.5 29.5z" />
    <glyph glyph-name="zacute" unicode="&#x17a;" horiz-adv-x="528" 
d="M20 55q19 12 187 183t168 185t-6 14q-7 0 -55 3.5t-55 3.5h-13h-7q-7 0 -48 -3.5t-48 -3.5q-10 -8 -19 -31t-20 -40.5t-29 -17.5q-10 0 -22 12t-12 22q-6 24 15.5 73.5t45.5 49.5h369q10 0 18.5 -11.5t8.5 -22.5q0 -21 -20 -41l-219 -218q-29 -18 -69 -61t-40 -62v-28
q7 -13 34 -13h75q6 0 23 -0.5t27 -0.5q69 0 101 21q13 8 26 29.5t27.5 37t34.5 15.5q6 0 9.5 -3.5t4.5 -9.5t1 -11.5t-0.5 -13.5t-0.5 -10q0 -109 -68 -109h-362q-5 0 -9.5 1t-8.5 2.5t-8 5t-6.5 5.5t-6 7t-5.5 7t-5 8.5t-4 8.5l-4.5 9t-4.5 8zM253 594q0 28 27 41
q18 9 71 43.5t79 45.5h7q14 0 24 -14.5t10 -26.5v-14q-21 -21 -89.5 -72t-85.5 -51q-12 0 -27.5 18t-15.5 30z" />
    <glyph glyph-name="Zdotaccent" unicode="&#x17b;" horiz-adv-x="604" 
d="M451 -20h-390q-28 0 -34.5 14.5t-6.5 46.5q0 36 42 102.5t102.5 139l121 144.5t102.5 133t42 89q0 29 -91 29q-11 0 -23.5 -0.5t-20 -1t-8.5 -0.5h-75q-32 -7 -52.5 -28t-28 -41.5t-19.5 -37t-30 -16.5q-34 0 -34 20v55q0 70 7 89q15 41 75 41q62 0 188 -7t187 -7
q20 0 30.5 -13t10.5 -35q0 -30 -62 -123.5t-155.5 -217t-103.5 -137.5q-7 -11 -30.5 -39t-40.5 -53.5t-17 -43.5q0 -14 13 -21q41 -6 116 -6q12 0 42 -1.5t46 -1.5q70 0 97 23q9 7 42.5 61.5t52.5 54.5t30 -19t11 -42q0 -157 -75 -157h-7q-4 0 -27.5 3.5t-26.5 3.5zM212 853
q0 41 24 69.5t64 33.5q1 0 3.5 0.5t3.5 0.5q28 0 55 -29t27 -54q0 -21 -7 -34l-54 -55l-14 -7q-42 12 -65 27.5t-37 47.5z" />
    <glyph glyph-name="zdotaccent" unicode="&#x17c;" horiz-adv-x="528" 
d="M20 55q19 12 187 183t168 185t-6 14q-7 0 -55 3.5t-55 3.5h-13h-7q-7 0 -48 -3.5t-48 -3.5q-10 -8 -19 -31t-20 -40.5t-29 -17.5q-10 0 -22 12t-12 22q-6 24 15.5 73.5t45.5 49.5h369q10 0 18.5 -11.5t8.5 -22.5q0 -21 -20 -41l-219 -218q-29 -18 -69 -61t-40 -62v-28
q7 -13 34 -13h75q6 0 23 -0.5t27 -0.5q69 0 101 21q13 8 26 29.5t27.5 37t34.5 15.5q6 0 9.5 -3.5t4.5 -9.5t1 -11.5t-0.5 -13.5t-0.5 -10q0 -109 -68 -109h-362q-5 0 -9.5 1t-8.5 2.5t-8 5t-6.5 5.5t-6 7t-5.5 7t-5 8.5t-4 8.5l-4.5 9t-4.5 8zM218 614q0 43 25 73t64 30
q37 0 63 -23.5t26 -58.5q0 -19 -9.5 -36t-19.5 -26t-32 -27q-35 0 -76 19t-41 49z" />
    <glyph glyph-name="Zcaron" unicode="&#x17d;" horiz-adv-x="604" 
d="M451 -20h-390q-28 0 -34.5 14.5t-6.5 46.5q0 36 42 102.5t102.5 139l121 144.5t102.5 133t42 89q0 29 -91 29q-11 0 -23.5 -0.5t-20 -1t-8.5 -0.5h-75q-32 -7 -52.5 -28t-28 -41.5t-19.5 -37t-30 -16.5q-34 0 -34 20v55q0 70 7 89q15 41 75 41q62 0 188 -7t187 -7
q20 0 30.5 -13t10.5 -35q0 -30 -62 -123.5t-155.5 -217t-103.5 -137.5q-7 -11 -30.5 -39t-40.5 -53.5t-17 -43.5q0 -14 13 -21q41 -6 116 -6q12 0 42 -1.5t46 -1.5q70 0 97 23q9 7 42.5 61.5t52.5 54.5t30 -19t11 -42q0 -157 -75 -157h-7q-4 0 -27.5 3.5t-26.5 3.5zM218 908
q0 21 5.5 32.5t22.5 22.5h7q15 0 30.5 -35.5t23.5 -40.5q14 0 23 11t13 23.5t10.5 23.5t15.5 11q34 0 34 -28q0 -22 -31 -82.5t-58 -60.5q-12 0 -28 17t-27.5 36l-24.5 42.5t-16 27.5z" />
    <glyph glyph-name="zcaron" unicode="&#x17e;" horiz-adv-x="528" 
d="M20 55q19 12 187 183t168 185t-6 14q-7 0 -55 3.5t-55 3.5h-13h-7q-7 0 -48 -3.5t-48 -3.5q-10 -8 -19 -31t-20 -40.5t-29 -17.5q-10 0 -22 12t-12 22q-6 24 15.5 73.5t45.5 49.5h369q10 0 18.5 -11.5t8.5 -22.5q0 -21 -20 -41l-219 -218q-29 -18 -69 -61t-40 -62v-28
q7 -13 34 -13h75q6 0 23 -0.5t27 -0.5q69 0 101 21q13 8 26 29.5t27.5 37t34.5 15.5q6 0 9.5 -3.5t4.5 -9.5t1 -11.5t-0.5 -13.5t-0.5 -10q0 -109 -68 -109h-362q-5 0 -9.5 1t-8.5 2.5t-8 5t-6.5 5.5t-6 7t-5.5 7t-5 8.5t-4 8.5l-4.5 9t-4.5 8zM225 696v14q0 11 9 22.5
t19 11.5q14 0 22 -11.5t11 -26t10 -26t18 -11.5q14 0 22 10.5t11 23.5t10 23.5t18 10.5q35 0 35 -27t-31 -85t-58 -58q-12 0 -24 10t-24 28.5t-20 33t-17.5 34.5t-10.5 23z" />
    <glyph glyph-name="florin" unicode="&#x192;" horiz-adv-x="629" 
d="M27 -130q0 21 18.5 32t41 14.5t44 17.5t26.5 39q6 46 23.5 138t27.5 166.5t10 138.5q0 12 -18.5 21t-47 16t-36.5 11v7q0 19 50 29t52 19q13 49 28 87.5t41 81.5t66 66.5t91 23.5q48 0 109 -9.5t61 -31.5q0 -24 -32.5 -46t-55.5 -22q-48 0 -55 27h-41q-39 0 -65 -13.5
t-38 -39.5t-16 -52.5t-4 -64.5q0 -14 14 -14h150q5 0 13 -10.5t8 -16.5q0 -15 -15.5 -24.5t-32.5 -9.5q-11 0 -58.5 -3.5t-57.5 -3.5q-26 -15 -39.5 -81.5t-18 -149.5t-11 -164.5t-26.5 -136.5t-56 -55h-136q-7 0 -10 2t-3.5 4t-0.5 7z" />
    <glyph glyph-name="uni0218" unicode="&#x218;" horiz-adv-x="558" 
d="M171 -157q0 7 2 10t4 3.5t7 0.5q25 0 47 -24t42 -24q24 0 39.5 22.5t15.5 45.5q0 34 -21.5 57.5t-56 33.5t-63 14t-57.5 4q-4 0 -21 -3t-20 -3h-14q-19 0 -31.5 10t-17 30t-5.5 33.5t-1 35.5v9v14v16t1.5 17.5t3 17.5t5 16.5t7.5 13t10 9.5t14 3q9 0 17.5 -17l20 -41
t30 -48t56 -41t88.5 -17q75 0 123 33.5t48 109.5q0 46 -23 77t-60 47t-81 28l-88.5 25t-81.5 31t-60 53.5t-23 86.5q0 107 81 166.5t192 59.5q6 0 32 1t43 1q137 0 137 -64q0 -10 -3.5 -23.5t-3.5 -23.5q0 -11 3.5 -28t3.5 -27q0 -21 -14 -42.5t-34 -25.5q-25 20 -37 45.5
t-15.5 44.5t-14 36.5t-42 27t-89.5 9.5q-143 0 -143 -122q0 -48 23 -80.5t59.5 -49t81 -28.5t89 -26.5t81 -35.5t59.5 -62t23 -101q0 -44 -27 -83t-59 -61l-60.5 -40.5t-30.5 -26.5q-4 -11 11.5 -57.5t15.5 -58.5q0 -103 -164 -103q-28 0 -41 28.5t-13 60.5z" />
    <glyph glyph-name="uni0219" unicode="&#x219;" horiz-adv-x="504" 
d="M143 -157q0 14 14 14q25 0 47 -27.5t42 -27.5q19 0 36.5 26.5t17.5 48.5q0 38 -30.5 67.5t-68.5 42.5t-71 13h-14l-27 -7q-33 5 -47.5 32.5t-14.5 63.5q0 82 41 82q16 0 28.5 -19t21 -42.5t29.5 -42.5t51 -19h116q34 0 54.5 28.5t20.5 66.5q0 37 -35 55.5t-85.5 25.5
t-100.5 17t-85 43t-35 91q0 71 70.5 114t147.5 43h7l27 -6q11 0 65.5 -10.5t64.5 -10.5q14 -9 24 -39t10 -50q0 -21 -8 -41t-26 -20q-20 0 -30 10.5t-16 25.5t-16 30t-39 25.5t-76 10.5h-62q-24 0 -42.5 -26t-18.5 -49q0 -41 36.5 -60.5t89 -26.5t104.5 -17t88.5 -44.5
t36.5 -96.5q0 -53 -50 -96t-107 -55q15 -20 28 -57.5t13 -58.5q0 -36 -14.5 -60.5t-40.5 -36t-51 -15.5t-58 -4q-29 0 -45.5 27.5t-16.5 61.5z" />
    <glyph glyph-name="uni021A" unicode="&#x21a;" horiz-adv-x="662" 
d="M307 -225v34v13.5v17.5t0.5 19t1.5 20.5t3 19.5t6 18.5t9 14t12 10t16 3.5t14.5 -62t5.5 -95l-6 -6l-34 -21q-14 0 -28 14zM157 14q0 20 32.5 26.5t65 12t32.5 22.5v574q0 14 -46 14q-9 0 -22 -0.5t-14 -0.5q-40 0 -63 -17t-30.5 -41t-11 -48t-12 -41t-27.5 -17
q-41 0 -41 137q0 95 55 95h539q9 0 18.5 -22.5t9.5 -31.5v-144q0 -10 -9 -18.5t-19 -8.5q-22 0 -31 17t-11 41t-8.5 48t-33 41t-73.5 17q-82 0 -82 -41v-539q0 -23 24 -33.5t54 -10.5t58 -9t35 -29q0 -3 -5 -10t-10 -12l-5 -5q-4 0 -28 -7t-27 -7q-17 0 -112.5 7t-112.5 7
q-89 0 -89 34z" />
    <glyph glyph-name="uni021B" unicode="&#x21b;" horiz-adv-x="540" 
d="M212 -205q0 20 20 137q7 7 27 7q7 0 12.5 -7t8.5 -19.5t5 -26t2 -30.5t0.5 -28.5t0 -25t-0.5 -14.5q0 -9 -14.5 -14.5t-26.5 -5.5q-11 0 -22.5 9t-11.5 18zM102 191q0 31 3.5 92.5t3.5 91.5q0 37 -14 54.5t-30.5 18t-30.5 6.5t-14 24q0 14 14 20q45 2 66 19t25 39.5t9 45
t29.5 38t75.5 15.5v-20q-3 0 -17 -3.5t-17 -3.5l-7 -7l7 -20v-69q9 -9 33 -18t35 -9q35 0 98 7t93 7q16 0 25 -9.5t9 -24.5q0 -22 -41 -34q-78 2 -102 2q-42 0 -68 -2.5t-48 -13t-32.5 -25t-18 -44t-9.5 -64.5t-2 -92q0 -75 7 -130q14 -27 28 -27h75q30 0 95 10t96 10
q13 0 20 -0.5t14 -5.5t7 -14q0 -28 -67.5 -48t-127 -27t-85.5 -7q-37 0 -64 14.5t-40.5 34.5t-21.5 52t-9.5 57t-1.5 60z" />
    <glyph glyph-name="circumflex" unicode="&#x2c6;" horiz-adv-x="244" 
d="M27 847q0 35 31.5 89t64.5 54q14 0 20 -14q9 -9 35.5 -48.5t33.5 -53.5v-14q0 -13 -0.5 -20t-5.5 -14t-15 -7q-14 0 -23 10.5t-13.5 23.5t-12.5 23.5t-19 10.5h-7l-14 -6l-34 -62q-41 0 -41 28z" />
    <glyph glyph-name="caron" unicode="&#x2c7;" horiz-adv-x="244" 
d="M27 949q0 14 7 27.5t21 13.5q21 0 34 -34t34 -34h14q20 61 40 61q12 0 23.5 -5.5t11.5 -14.5q0 -30 -32.5 -90.5t-56.5 -60.5t-60 54.5t-36 82.5z" />
    <glyph glyph-name="uni02C9" unicode="&#x2c9;" horiz-adv-x="550" 
d="M48 628q-21 10 -21 27q0 28 62 28h27q30 0 92 -3.5t92 -3.5q32 0 88 3.5t83 3.5t37 -4t24 -24q-20 -34 -136 -34h-137q-14 0 -50 -1t-55 -1q-66 0 -106 9z" />
    <glyph glyph-name="breve" unicode="&#x2d8;" horiz-adv-x="230" 
d="M20 894q0 7 6 17.5t15 10.5q13 0 28 -34.5t33 -34.5q16 0 28 11t18 23.5t15.5 23.5t20.5 11q9 0 15 -7t6 -14q0 -35 -29 -65t-60 -30q-38 0 -67 24.5t-29 63.5z" />
    <glyph glyph-name="dotaccent" unicode="&#x2d9;" horiz-adv-x="236" 
d="M27 853q0 42 24 69t65 27q32 0 60.5 -22.5t28.5 -52.5q0 -14 -8.5 -29.5t-17.5 -25t-24 -23.5t-18 -18q-33 0 -71.5 22t-38.5 53z" />
    <glyph glyph-name="ring" unicode="&#x2da;" horiz-adv-x="230" 
d="M20 894q0 48 22.5 75.5t66.5 27.5h34q55 -28 55 -96q0 -34 -20.5 -64.5t-54.5 -30.5q-43 0 -73 24.5t-30 63.5zM61 901q0 -20 12.5 -34t28.5 -14q25 0 40 16.5t15 38.5q0 9 -6 25t-14 16h-62q-14 0 -14 -48z" />
    <glyph glyph-name="ogonek" unicode="&#x2db;" horiz-adv-x="560" 
d="M171 -89q0 89 143 89v-14q-10 -10 -35 -40t-40 -42v-61q6 -3 18.5 -13.5l23 -19t13.5 -8.5q14 0 22.5 8.5t13 19t16 19t29.5 8.5q6 0 9.5 -3.5t4.5 -9t1 -10.5t-0.5 -11t-0.5 -7v-28q-9 -18 -49.5 -26t-73.5 -8q-46 0 -70.5 50.5t-24.5 106.5z" />
    <glyph glyph-name="tilde" unicode="&#x2dc;" horiz-adv-x="470" 
d="M27 853v21q5 9 20.5 14.5t27.5 5.5h348q21 0 21 -41q0 -33 -15 -43.5t-54 -10.5h-314q-23 0 -28.5 13.5t-5.5 40.5z" />
    <glyph glyph-name="hungarumlaut" unicode="&#x2dd;" horiz-adv-x="482" 
d="M27 860q0 34 14 41q6 3 28 15l46.5 25.5t27.5 14.5q5 3 15.5 10.5t17 11.5t16.5 8t20 4q27 0 27 -41q0 -27 -80.5 -78.5t-97.5 -51.5l-34 34v7zM239 867q0 23 82.5 76.5t101.5 53.5q14 0 21 -16.5t7 -31.5q0 -26 -77.5 -78t-107.5 -52q-19 15 -23 23t-4 25z" />
    <glyph glyph-name="uni0401" unicode="&#x401;" horiz-adv-x="618" 
d="M61 -7q-9 0 -14.5 8t-5.5 19q0 12 17 24t34 18l17 6l7 28v170v266q0 7 -3.5 55t-3.5 55q-5 11 -47 21t-42 33v7q0 3 2 6.5t4 5.5l1 2l41 7h458q35 0 48 -13t13 -49q0 -37 -11 -80t-37 -43q-21 0 -29.5 19t-13 44t-11.5 33q-23 23 -110 23q-21 0 -49.5 -1.5t-31.5 -1.5
h-69l-7 -6q-13 -110 -13 -151q0 -58 10 -70t65 -12q35 0 57 13t29 28t14.5 28t15.5 13q3 0 5 -0.5t4 -1.5l3 -1.5t2 -2.5t1.5 -3.5t2 -5t2.5 -5.5v-62q0 -88 -6 -143q0 -7 -14 -7q-11 0 -21.5 14t-19.5 30.5t-30.5 30.5t-51.5 14h-41q-20 -20 -27 -34q-7 -55 -7 -116
q0 -62 7 -116q0 -6 7.5 -17t12.5 -11h205q22 0 47 10t35 25q1 4 5.5 24t9 35t15.5 29t25 14q8 0 14.5 -4.5t10 -14t6 -18.5t3 -22.5t1 -21.5t0 -20.5t-0.5 -14.5q0 -45 -13.5 -70.5t-55.5 -25.5h-27q-34 0 -221.5 3.5t-222.5 3.5zM382 860q6 18 23 36.5t32 18.5q29 0 45 -20
t16 -48q0 -25 -12 -47t-35 -22q-27 0 -44 26t-25 56zM123 853q0 55 61 55q55 0 55 -55q0 -31 -16 -49.5t-46 -18.5q-19 0 -36.5 23.5t-17.5 44.5z" />
    <glyph glyph-name="uni0402" unicode="&#x402;" horiz-adv-x="819" 
d="M157 14q0 18 24 28.5t57.5 16t41.5 9.5q5 31 7 80t2 87t-1 89t-1 65v225q-10 33 -26.5 40.5t-62.5 7.5q-40 0 -61.5 -17t-27.5 -41t-9 -48t-13 -41t-32 -17q-18 0 -26.5 51.5t-8.5 85.5q0 95 55 95h539q28 0 28 -88q0 -3 0.5 -13.5t0 -16.5t-1 -16.5t-3 -16.5t-6 -13
t-10 -10t-14.5 -3q-15 0 -24 12t-16 29t-17 34t-34 29t-60 12q-16 0 -28 -2.5t-20.5 -8.5t-15 -11.5t-10 -17t-5.5 -19.5t-3 -23.5t-1 -24.5t0.5 -28t0.5 -29q0 -61 21 -61q28 0 70.5 24t65.5 24h110q38 0 67.5 -38t42.5 -82t13 -78q0 -39 -17.5 -109t-17.5 -103
q0 -21 11 -32t23.5 -13.5t23.5 -9.5t11 -20q0 -10 -8.5 -18.5t-19.5 -8.5h-150q-11 0 -22.5 8.5t-11.5 18.5t15.5 20.5t18.5 20.5q60 132 68 252q5 49 -40.5 86t-95.5 37q-18 0 -45.5 -4.5t-58.5 -13t-52.5 -25.5t-21.5 -39v-6l7 -21l-7 -20v-55q0 -21 3.5 -58t3.5 -58
q0 -8 -3.5 -13t-3.5 -8q0 -18 18 -34.5t39.5 -26t38 -19t14.5 -15.5l-14 -14q-14 -2 -37 -7.5t-42 -9t-37 -3.5q-2 0 -24.5 -1t-39.5 -1q-134 0 -134 43z" />
    <glyph glyph-name="uni0403" unicode="&#x403;" horiz-adv-x="674" 
d="M48 -14q-28 14 -28 34q0 23 22.5 31t49.5 7t49.5 12.5t22.5 45.5q0 82 -7 252.5t-7 252.5l-7 21q-21 0 -58 12.5t-37 34.5q0 10 11.5 19t22.5 9q7 0 44.5 3.5t44.5 3.5q27 0 177 3t178 3q3 0 26.5 3.5t27.5 3.5h7q68 0 68 -68q0 -69 -13 -171q-7 -6 -34 -6
q-23 0 -33 17.5t-9 40t-3 46t-17 32.5q-40 28 -142 28q-11 0 -30 -0.5t-26 -0.5h-61q-2 -1 -6 -2t-5 -1.5t-4 -1t-4 -1.5t-3.5 -2t-3 -2t-2 -3t-2.5 -4t-2 -4.5t-2 -5.5q-7 -75 -7 -191q0 -41 3.5 -123t3.5 -123q0 -13 -3.5 -40.5t-3.5 -41.5q0 -25 18 -38.5t40 -16.5
t40 -12.5t18 -27.5q0 -38 -91 -38q-20 0 -48.5 2t-31.5 2q-82 0 -143 6zM184 826q0 11 81 67t97 56q15 0 28 -13t13 -28q0 -34 -75.5 -85.5t-109.5 -51.5q-10 0 -22 20t-12 35z" />
    <glyph glyph-name="uni0404" unicode="&#x404;" horiz-adv-x="584" 
d="M20 348q0 52 12.5 105.5t38.5 103t61.5 88t84.5 62t104 23.5q232 0 232 -47l7 -151q0 -13 -14 -20t-27 -7q-11 0 -19 16t-17 39.5t-23 46.5t-44.5 39t-74.5 16q-103 0 -153.5 -65t-50.5 -174v-27l6 -7h192q12 0 18.5 -8.5t7.5 -16.5t1 -23t-36 -22t-80 -8t-80 -13.5
t-36 -38.5q0 -41 16.5 -88t52.5 -85t81 -38h109q33 0 55 27.5t31.5 61t22 61t28.5 27.5q10 0 22 -12t12 -22v-116q0 -31 -99 -66.5t-133 -35.5q-72 0 -131.5 32.5t-97.5 86t-58.5 120t-20.5 136.5z" />
    <glyph glyph-name="uni0405" unicode="&#x405;" horiz-adv-x="558" 
d="M20 89v9v14v16t1.5 17.5t3 17.5t5 16.5t7.5 13t10 9.5t14 3q9 0 17.5 -17l20 -41t30 -48t56 -41t88.5 -17q75 0 123 33.5t48 109.5q0 46 -23 77t-60 47t-81 28l-88.5 25t-81.5 31t-60 53.5t-23 86.5q0 107 81 166.5t192 59.5q6 0 32 1t43 1q137 0 137 -64
q0 -10 -3.5 -23.5t-3.5 -23.5q0 -11 3.5 -28t3.5 -27q0 -21 -14 -42.5t-34 -25.5q-25 20 -37 45.5t-15.5 44.5t-14 36.5t-42 27t-89.5 9.5q-143 0 -143 -122q0 -48 23 -80.5t59.5 -49t81 -28.5t89 -26.5t81 -35.5t59.5 -62t23 -101q0 -77 -59.5 -132.5t-138.5 -71.5h-82h-82
q-3 0 -23 3t-24 3t-21 -3t-20 -3h-14q-19 0 -31.5 10t-17 30t-5.5 33.5t-1 35.5z" />
    <glyph glyph-name="uni0406" unicode="&#x406;" horiz-adv-x="540" 
d="M61 34q0 11 10 19t25 8h81q7 0 28 21q0 30 6.5 204.5t6.5 205.5q0 3 3.5 37t3.5 38v13v7q0 3 -6.5 24t-6.5 24q-11 8 -60 13.5t-90.5 14.5t-41.5 26q0 10 12 19t23 9q102 13 307 13h30q86 0 86 -34q0 -27 -39.5 -36t-80.5 -10t-44 -8l-7 -14q-7 -109 -7 -157
q0 -250 7 -375q4 -24 28 -32t65 -8h42q37 0 57 -7t20 -29q0 -9 -7.5 -14.5t-13.5 -5.5q-7 0 -32.5 -3.5t-28.5 -3.5h-348q-14 0 -21 13.5t-7 27.5z" />
    <glyph glyph-name="uni0407" unicode="&#x407;" horiz-adv-x="540" 
d="M61 34q0 11 10 19t25 8h81q7 0 28 21q0 30 6.5 204.5t6.5 205.5q0 3 3.5 37t3.5 38v13v7q0 3 -6.5 24t-6.5 24q-11 8 -60 13.5t-90.5 14.5t-41.5 26q0 10 12 19t23 9q102 13 307 13h30q86 0 86 -34q0 -27 -39.5 -36t-80.5 -10t-44 -8l-7 -14q-7 -109 -7 -157
q0 -250 7 -375q4 -24 28 -32t65 -8h42q37 0 57 -7t20 -29q0 -9 -7.5 -14.5t-13.5 -5.5q-7 0 -32.5 -3.5t-28.5 -3.5h-348q-14 0 -21 13.5t-7 27.5zM335 867q0 11 22 33t32 22q29 0 45.5 -20.5t16.5 -48.5q0 -24 -12.5 -46t-35.5 -22q-28 0 -45 25.5t-23 56.5zM75 860
q0 55 62 55q22 0 38 -12t16 -36q0 -33 -16 -54t-45 -21q-20 0 -37.5 23t-17.5 45z" />
    <glyph glyph-name="uni0408" unicode="&#x408;" horiz-adv-x="618" 
d="M287 -27q-5 1 -35.5 4.5t-40.5 5t-38.5 6.5t-40 10t-34 13.5t-33 19t-23 24.5t-17.5 33t-5 41t10.5 42t30.5 20q4 0 7 -1q14 -2 25 -17.5t22.5 -36t30 -41t58 -34.5t96.5 -14q42 0 71.5 27.5t24.5 67.5v198q0 9 1.5 83.5t-0.5 122.5t-8 88q-9 17 -54.5 25.5t-75.5 8.5
q-13 7 -13 20q0 5 0.5 9t1.5 6t3.5 4t3.5 3t5 3l6 3q10 0 68 3.5t69 3.5h20h21q10 0 64.5 -3.5t64.5 -3.5q6 0 13.5 -4.5t7.5 -9.5q0 -23 -16.5 -32t-36.5 -8t-39 -7t-24 -28v-96q0 -44 3.5 -129t3.5 -130v-14q0 -10 -3.5 -71t-3.5 -72q-8 -31 -20.5 -52.5t-31 -34
t-35.5 -20.5t-44 -19.5t-47 -23.5z" />
    <glyph glyph-name="uni0409" unicode="&#x409;" horiz-adv-x="980" 
d="M485 48q0 62 3.5 184.5t3.5 183.5q0 130 -7 212q-3 13 -14 19t-20 7t-28 1h-20l-7 -6v-540q0 -63 -58.5 -103t-125.5 -40q-80 0 -136 44.5t-56 119.5v27l14 14h48q8 0 21 -20.5t26 -44.5t35 -44.5t48 -20.5q19 0 35.5 7t26 15.5t26.5 25.5q6 37 8 84.5t0.5 119.5t-1.5 76
q0 6 1.5 78.5t-0.5 120t-8 87.5q-10 8 -47 15t-66.5 16t-29.5 24q0 27 20 27q82 7 246 7h137q14 -10 17 -20.5t3 -34.5q0 -28 -3.5 -81t-3.5 -76v-54q14 -14 28 -14q25 0 67 7t62 7q110 0 174.5 -78t64.5 -195q0 -90 -68 -168t-157 -78h-246l-13 14v75zM676 403
q-50 0 -76.5 -13t-26.5 -55v-260q0 -48 130 -48q83 0 130.5 62.5t47.5 149.5q0 43 -25 83t-64 67q-23 15 -70 15q-9 0 -24 -0.5t-22 -0.5z" />
    <glyph glyph-name="uni040A" unicode="&#x40a;" horiz-adv-x="871" 
d="M41 0q0 3 18.5 21t37.5 57t19 93v450q0 14 -15 21t-33 9t-33 8t-15 17q0 34 77 34h26h30q106 0 106 -34q0 -13 -22 -25t-25 -30q-14 -96 -14 -157q0 -1 -0.5 -9.5t-0.5 -14t1.5 -15t4.5 -15t8.5 -10t13.5 -4.5h232q8 0 14 4t9 9t4 14t1.5 14.5t0 15t-0.5 11.5
q0 78 -6 116t-17.5 46t-24 6.5t-30.5 6.5t-32 37q6 16 23 24t30 9t36 1q56 0 150 -14q6 0 9.5 -2.5t4 -4.5t0.5 -6q0 -8 -9.5 -19.5t-21 -24t-21 -44.5t-9.5 -76q0 -45 16 -75t41 -44t55.5 -24t61 -22t55.5 -30.5t41 -57t16 -95.5q0 -147 -204 -198h-76l-17 -1
q-18 -1 -33 -1q-93 0 -93 36q0 10 19 20.5t22 20.5q12 31 15.5 66t1 95.5t-2.5 70.5q0 46 -126 46q-29 0 -69.5 -2.5t-43.5 -2.5q-20 0 -31.5 -10t-15 -30t-4 -36t1 -41t1.5 -33q0 -53 8.5 -85t20.5 -42t24 -13t20.5 -7.5t8.5 -16.5q0 -34 -82 -34h-27q-4 0 -17.5 3.5
t-16.5 3.5l-35 -7q-10 0 -35.5 10.5t-25.5 16.5zM573 55q6 -6 39.5 -20.5t42.5 -14.5q53 0 91.5 57.5t38.5 113.5q0 54 -44.5 92t-98.5 38q-5 0 -14 0.5t-13 0.5q-32 0 -42 -22q-6 -54 -6 -129q0 -69 6 -116z" />
    <glyph glyph-name="uni040B" unicode="&#x40b;" horiz-adv-x="859" 
d="M157 14q0 18 24 28.5t57.5 16t41.5 9.5q5 31 7 80t2 87t-1 89t-1 65v225q-10 33 -26.5 40.5t-62.5 7.5q-40 0 -61.5 -17t-27.5 -41t-9 -48t-13 -41t-32 -17q-18 0 -26.5 51.5t-8.5 85.5q0 95 55 95h539q28 0 28 -88q0 -3 0.5 -13.5t0 -16.5t-1 -16.5t-3 -16.5t-6 -13
t-10 -10t-14.5 -3q-15 0 -24 12t-16 29t-17 34t-34 29t-60 12q-16 0 -28 -2.5t-20.5 -8.5t-15 -11.5t-10 -17t-5.5 -19.5t-3 -23.5t-1 -24.5t0.5 -28t0.5 -29q0 -61 21 -61q28 0 70.5 24t65.5 24h110q46 0 81 -61t35 -110v-205q0 -28 13 -47.5t28 -27.5t28 -17t13 -17
q0 -10 -8.5 -18.5t-19.5 -8.5h-150q-11 0 -22.5 8.5t-11.5 18.5q0 11 12.5 16t14.5 11q8 14 13 34t6.5 47t2 45t0 49t-0.5 37v68q-5 55 -37.5 82t-85.5 27q-20 0 -46 -3.5t-57.5 -11.5t-53 -25.5t-21.5 -41.5v-6l7 -21l-7 -20v-55q0 -21 3.5 -58t3.5 -58q0 -8 -3.5 -13
t-3.5 -8q0 -18 18 -34.5t39.5 -26t38 -19t14.5 -15.5l-14 -14q-14 -2 -37 -7.5t-42 -9t-37 -3.5q-2 0 -24.5 -1t-39.5 -1q-134 0 -134 43z" />
    <glyph glyph-name="uni040C" unicode="&#x40c;" horiz-adv-x="718" 
d="M239 321q-27 0 -27 -62l-4 -57q-3 -56 -3 -72v-14q0 -25 16 -39t35 -17.5t35 -14.5t16 -31q0 -9 -19 -15t-29 -6h-184q-11 0 -21.5 12.5t-5.5 21.5q4 16 30 28t31 20q7 130 7 376v143l-7 61q-4 1 -30 5t-42.5 12.5t-16.5 23.5q0 34 76 34q7 0 41 2.5t55 2.5q81 0 81 -32
q0 -11 -11.5 -20.5t-26 -18.5t-26 -32.5t-11.5 -58.5q0 -19 5.5 -63.5t1.5 -79.5q1 -2 4 -8.5l4.5 -10t4.5 -7.5t6.5 -6t7.5 -2q14 0 21 7q15 10 60 55t56 61q68 68 68 109q0 15 -12 26t-24 19t-12 16q0 7 2.5 12.5t5 9t8 7.5t8 5t9.5 4t8 3q24 -2 30 -2q19 0 46 4.5t47 4.5
q24 0 49.5 -9.5t25.5 -31.5q0 -6 -32.5 -35l-71.5 -61.5t-46 -39.5q-15 -15 -62.5 -71t-74.5 -79v-21q0 -16 10 -33t11 -21q34 -32 105 -129t120 -131q9 -7 40 -11.5t53.5 -15t22.5 -34.5q0 -14 -13.5 -21t-27.5 -7q-7 0 -23.5 -0.5t-24.5 -0.5q-51 0 -75 15q-26 18 -67 73
t-76 108.5t-78.5 96.5t-78.5 43zM300 812q0 21 14 35l123 61q34 34 41 34q14 0 27.5 -15t13.5 -26q0 -24 -80.5 -80t-103.5 -56q-4 0 -8 3.5t-8.5 9.5t-7 11.5t-6.5 13t-5 9.5z" />
    <glyph glyph-name="uni040E" unicode="&#x40e;" horiz-adv-x="702" 
d="M109 41q0 20 17 34t38 14q10 0 30.5 -3.5t30.5 -3.5q52 0 81 52t29 112q0 36 -27.5 86t-66 105t-50.5 82q-6 16 -32 69t-36 67q-7 7 -48 21t-41 34q0 13 31.5 23.5t43.5 10.5q9 -9 41 -9q11 0 36.5 1.5t37.5 1.5q56 0 56 -28q0 -14 -12 -22.5t-24 -20.5t-12 -32
q0 -28 54 -147t89 -119q42 0 82.5 108t40.5 172v20q-6 6 -21 9t-28 3.5t-23 7.5t-10 21q0 34 151 34q6 0 21 -3.5t26 -3.5q3 0 11.5 3.5t16.5 3.5q15 0 24.5 -12.5t9.5 -28.5q0 -11 -19 -23l-43.5 -27t-33.5 -32l-42.5 -97.5l-45 -102t-43.5 -90t-53 -99.5
q-13 -22 -28 -60.5t-27.5 -65.5t-32 -55t-50.5 -43t-74 -15q-19 0 -47 15t-28 33zM266 874q0 15 2 17.5t12 2.5q17 0 34 -30.5t34 -30.5q24 0 37 15.5t22 30.5t23 15q10 0 14.5 -2.5t5.5 -6t1 -11.5q0 -22 -22.5 -56.5t-46.5 -39.5q-2 0 -5.5 -0.5t-5.5 -0.5q-39 0 -72 29.5
t-33 67.5z" />
    <glyph glyph-name="uni040F" unicode="&#x40f;" horiz-adv-x="765" 
d="M348 -20q-4 0 -27.5 3t-26.5 3q-18 0 -117 7t-116 7q-34 0 -34 27q0 15 14 21t34.5 8t40.5 7t34 23.5t14 50.5q0 12 0.5 59.5t0.5 84.5t-0.5 91.5t-2.5 96t-5 82t-8 66t-12 32.5q-8 7 -32 7h-16q-15 0 -24 2t-16.5 9.5t-7.5 21.5q0 13 27 28q7 0 51.5 3.5t51.5 3.5h13h14
q7 0 51.5 -3.5t50.5 -3.5q21 0 21 -21q-11 -18 -40 -29.5t-35 -24.5q-14 -246 -14 -369q0 -62 14 -198q79 -21 209 -21q48 0 64 21q0 24 6.5 167.5t6.5 167.5v27v20q0 14 -6.5 89.5t-6.5 88.5q-6 6 -30 20l-45 26t-21 15v7q3 6 17 9.5t26 3.5l12 1q2 0 46 3.5t56 3.5h7
q1 0 16 1t27 1q87 0 87 -37q0 -17 -18 -24.5t-40 -10t-40 -22.5t-18 -59v-6q0 -7 3.5 -55t3.5 -55q0 -27 3 -173.5t3 -174.5q2 -25 23 -34.5t44.5 -8.5t43 -7.5t19.5 -31.5q0 -11 -5.5 -19t-14.5 -8l-239 -14l-34 -6q3 -15 -9 -57t-12 -53q0 -6 3.5 -16.5t3.5 -17.5
q0 -27 -41 -27q-13 0 -21.5 82t-26.5 89z" />
    <glyph glyph-name="uni0410" unicode="&#x410;" horiz-adv-x="740" 
d="M20 20q0 11 38 47.5t44 48.5q17 34 76 197.5t112.5 297t71.5 133.5q23 0 79 -143l116.5 -312.5t84.5 -206.5q5 -11 43.5 -27t38.5 -35q0 -31 -69 -31q-18 0 -44.5 2t-30.5 2q-2 0 -16.5 -0.5t-25.5 -0.5q-87 0 -87 22q0 16 15 24t32.5 10.5t32.5 12.5t15 28
q0 40 -17.5 77.5t-50.5 51.5q-136 14 -191 14q-58 0 -77 -31t-19 -99v-27q7 -9 22.5 -13t30 -5t25.5 -6t11 -17q0 -41 -156 -41h-42q-62 0 -62 27zM259 294q7 0 41.5 -3.5t40.5 -3.5h14h14q6 0 40.5 3.5t41.5 3.5q13 6 13 27v14q-6 17 -19 59l-20.5 64.5t-21.5 55.5t-28 59
h-13q-27 0 -65 -105t-38 -140v-34z" />
    <glyph glyph-name="uni0411" unicode="&#x411;" horiz-adv-x="606" 
d="M191 -14q-10 0 -23.5 -10t-24.5 -10q-24 0 -73.5 15t-49.5 33q0 16 15 23.5t32.5 8.5t30.5 6t11 16q6 40 8 92.5t0.5 131.5t-1.5 83v212q-2 30 -11.5 50.5t-19 28.5t-17 17t-7.5 20q0 21 28 21q10 0 61 6.5t62 6.5h13q21 0 34 -7h185q20 0 20 -34q0 -15 -12.5 -28
t-28.5 -13q-14 0 -88.5 -6.5t-88.5 -6.5q-41 0 -41 -21v-129q0 -14 41 -14q13 0 40.5 3.5t41.5 3.5q95 0 177 -72.5t82 -166.5q0 -121 -61.5 -204t-177.5 -83q-27 0 -78 13.5t-79 13.5zM205 75q17 -34 41 -34h129q31 0 70.5 39t39.5 70v144q0 56 -52.5 89t-111.5 33
q-38 0 -63.5 -10t-38.5 -23t-19.5 -43.5t-7.5 -52.5t-1 -69v-13q0 -11 7 -65t7 -65z" />
    <glyph glyph-name="uni0412" unicode="&#x412;" horiz-adv-x="594" 
d="M27 14q0 20 35.5 37.5t39.5 23.5q21 165 21 225q0 27 -3.5 80t-3.5 84q0 24 3.5 72t3.5 72q0 23 -15 35t-33 14.5t-33 11.5t-15 27q0 14 14 21q10 0 71.5 3.5t71.5 3.5h21q35 0 54.5 -0.5t56.5 -3.5t59.5 -9t51.5 -18t45.5 -29t28 -43.5t11.5 -60.5q0 -76 -89 -150v-7
q0 -13 23.5 -33.5t51.5 -41.5t51.5 -58t23.5 -79q0 -69 -50.5 -125.5t-119.5 -72.5q-14 0 -89 -3.5t-89 -3.5h-27q-2 0 -27 -1t-42 -1q-102 0 -102 30zM205 68q20 -20 41 -20h123q46 0 77.5 54t31.5 103q0 75 -68 116t-151 41l-47 -7l-7 -7q-7 -54 -7 -143t7 -137zM205 430
q10 -15 35 -15q74 0 128.5 34t54.5 104q0 67 -37 91.5t-106 24.5h-48q-6 0 -11 -3.5t-9.5 -9t-6.5 -7.5q-7 -41 -7 -117q0 -61 7 -102z" />
    <glyph glyph-name="uni0413" unicode="&#x413;" horiz-adv-x="674" 
d="M27 20q0 23 21.5 30t47 5t47 10t21.5 44v41q0 38 -7 246t-7 246q-3 1 -33 5.5t-49.5 14t-19.5 27.5q0 10 14.5 19t26.5 9q34 0 235.5 6.5t235.5 6.5h34q32 0 46.5 -14.5t14.5 -46.5q0 -13 -6.5 -82t-6.5 -82q-13 -13 -28 -13q-23 0 -34 17.5t-12 40t-4 46.5t-11 32
q-29 29 -123 29q-18 0 -46 -1t-36 -1h-75q-27 -6 -27 -75v-300q0 -4 3.5 -24t3.5 -24v-7q0 -13 -3.5 -41.5t-3.5 -46.5v-55q8 -11 62 -30t54 -38q0 -10 -14.5 -19t-26.5 -9h-266q-10 0 -19 12t-9 22z" />
    <glyph glyph-name="uni0414" unicode="&#x414;" horiz-adv-x="663" 
d="M464 -7q-13 0 -20 -7h-75l-14 7h-61q-110 0 -164 -7q-15 -15 -19.5 -47t-3 -59.5t-10.5 -49t-42 -21.5q-14 0 -24.5 72.5t-10.5 111.5q0 62 22 129t53 125.5l62 117t53 124t22 125.5v35q-9 0 -35 13.5t-26 26.5q0 21 27 21q3 0 32 3.5t36 3.5h157h157q27 0 41 -28
l-54 -54v-642q-7 -13 -7 -27v-14l7 -34l75 -82v-7q0 -27 -28 -27q-37 0 -67 30t-44 65.5t-24.5 65.5t-14.5 30zM150 130q0 -28 42 -48.5t74 -20.5h191q7 28 7 41q7 123 7 342v129l-7 62q0 15 -38 15q-6 0 -16 -0.5t-14 -0.5q-36 0 -57.5 -20.5t-28.5 -45t-15 -63t-15 -56.5
q-7 -20 -41.5 -94t-61.5 -142t-27 -98z" />
    <glyph glyph-name="uni0415" unicode="&#x415;" horiz-adv-x="618" 
d="M55 0q-14 14 -14 20l7 14q4 4 27.5 14t26.5 13q3 0 6.5 3.5t5.5 7.5l2 3v498l-7 76q0 9 -13 13t-28 5t-28 8t-13 21q0 21 7 21q116 7 266 7q144 0 260 -7q9 -5 18 -26.5t9 -28.5q0 -33 -14 -78t-41 -45q-10 0 -15.5 16.5t-10.5 36.5t-31 39.5t-72 23.5q-41 7 -89 7
q-55 0 -96 -7q-2 -17 -7.5 -55t-9 -70t-3.5 -59q0 -16 4.5 -27t10 -16.5t18.5 -8t21.5 -3t27.5 -0.5q30 0 49.5 8t27.5 19t13 22t12.5 19t20.5 8q20 0 20 -28q0 -27 -6.5 -91.5t-6.5 -92.5l-7 -14h-7q-12 8 -29.5 41t-18.5 34q-27 14 -75 14h-48q-14 -12 -21 -35t-8 -39.5
t0.5 -47t1.5 -35.5q0 -1 -1.5 -26t-1.5 -43.5t5.5 -39.5t17.5 -28q48 -6 110 -6h39q134 0 145 34l34 102q0 7 21 7q34 0 34 -109q0 -8 -3.5 -37t-3.5 -32q-27 -23 -34 -27h-198q-19 0 -70.5 -1t-80.5 -1q-99 0 -156 9z" />
    <glyph glyph-name="uni0416" unicode="&#x416;" horiz-adv-x="888" 
d="M20 7q0 21 14 30t38 15t37 16q22 16 110 151.5t88 155.5q0 36 -58 111.5t-116 139t-58 70.5q0 14 23.5 24t38.5 10h32q97 0 97 -34q0 -18 -20.5 -40t-20.5 -35q0 -45 64.5 -130.5t106.5 -101.5l7 7q6 19 7.5 40t0.5 57t-1 39v89q7 21 -2.5 30.5t-24.5 10t-28.5 8.5
t-13.5 26q0 11 14 17.5t14 16.5q0 -6 20 -6q7 0 17.5 3t16.5 3q3 0 18 0.5t25 0.5q87 0 87 -48q0 -16 -13.5 -22.5t-28.5 -7t-24 -9.5t-2 -30v-82q0 -6 -1.5 -38t0.5 -52t8 -39l6 -7q35 0 99.5 95.5t64.5 143.5q0 22 -5 31t-29 23v14q0 34 130 34q18 0 39.5 -14.5
t21.5 -33.5l-25 -25.5l-56 -60t-70.5 -80.5t-55.5 -76t-25 -58t91 -161t107 -153q11 -6 36.5 -11.5t39 -15.5t13.5 -34q0 -10 -12 -19t-22 -9q-61 0 -105 34.5t-69 84t-46 98.5t-49.5 83.5t-65.5 34.5l-13 -7q-7 -48 -7 -137q0 -47 7.5 -75t18.5 -37t22.5 -13t19 -12
t7.5 -26q0 -5 -17.5 -16.5t-23.5 -11.5h-157q-16 0 -21.5 6t-5.5 22q0 17 17 29l36 25.5t22 33.5v69q0 82 -7 129q-14 14 -21 14q-29 0 -56 -34.5t-50.5 -83.5t-52 -98t-73.5 -83.5t-102 -34.5q-16 0 -22 5.5t-6 21.5z" />
    <glyph glyph-name="uni0417" unicode="&#x417;" horiz-adv-x="528" 
d="M20 41v7q3 6 13.5 11t18.5 7l9 2q58 -41 164 -41q88 0 136.5 47t48.5 138q0 58 -31 94t-68 46.5t-68 21t-31 22.5q0 13 25.5 23.5t56 20.5t56 43t25.5 84q0 59 -35 101t-94 42q-25 0 -45 -17t-31 -37.5t-27 -37.5t-34 -17q-20 0 -27 6t-7 21q0 63 55.5 103t122.5 40
q86 0 145 -60.5t59 -143.5q0 -33 -27 -84t-27 -73q0 -15 16 -39t35 -46.5t35 -57t16 -69.5q0 -75 -42 -129t-104 -78.5t-134 -24.5q-28 0 -72 6.5t-88.5 25t-44.5 43.5z" />
    <glyph glyph-name="uni0418" unicode="&#x418;" horiz-adv-x="662" 
d="M20 696q0 7 14 21q48 7 109 7q69 0 116 -7q14 -14 14 -21q0 -12 -16 -20t-36.5 -15.5t-39.5 -40t-24 -88.5q-7 -81 -7 -143q0 -109 14 -157h7q25 0 70 72t86 159.5t85 166t66 87.5q34 13 123 13q22 0 31.5 -7t9.5 -27q0 -41 -69 -41q-6 -116 -6 -273q0 -38 -3.5 -88.5
t-3.5 -75.5t5.5 -58.5t24 -62.5t52.5 -63q0 -41 -108 -41h-29h-30q-106 0 -106 34q0 13 13.5 20.5t32.5 15t37.5 22t32 48.5t13.5 85v314q0 5 -7.5 13t-12.5 8q-23 0 -75.5 -88.5t-104.5 -195t-103.5 -195t-71.5 -88.5q-13 0 -27 6t-14 15v587q0 24 -15.5 42t-31 32
t-15.5 28z" />
    <glyph glyph-name="uni0419" unicode="&#x419;" horiz-adv-x="662" 
d="M82 7q-7 48 -7 130q0 43 3.5 133.5t3.5 139.5v41q0 3 -3.5 37t-3.5 38q0 3 3.5 23.5t3.5 23.5v7q0 23 -9.5 41t-21.5 27.5t-21.5 22t-9.5 25.5t5.5 19.5t12 7.5t23.5 1h185q15 0 21 -6t6 -22q0 -24 -89 -54q-16 -24 -23.5 -63.5t-7.5 -70t2 -80t2 -66.5v-82l7 -41h7
q18 0 49.5 50t65 109.5t49.5 72.5q16 29 35 71l29.5 65.5t30 52t41 43t56 24.5t81.5 10q34 0 34 -41q0 -16 -11 -23.5t-23.5 -7.5t-23.5 -3.5t-11 -12.5v-492q0 -42 28.5 -75.5t33.5 -54.5q6 -36 -81 -36l-35 2q-1 0 -20 -1t-33 -1q-97 0 -97 36q0 26 37 40.5t58 14.5
q14 8 22 37.5t10.5 75t3 81t-0.5 80t-1 47.5q0 75 -6 143l-7 7q-28 0 -78 -80.5t-96.5 -179.5t-97 -193t-76.5 -114q-44 0 -55 21zM273 867q0 3 -0.5 8t-0.5 7.5t1 5.5t4.5 4.5t9.5 1.5q9 0 16.5 -9.5t12.5 -21t15 -21t24 -9.5q16 0 28 9.5t18 21t15.5 21t20.5 9.5
q14 0 14 -27q0 -24 -17.5 -48t-44.5 -41q-116 0 -116 89z" />
    <glyph glyph-name="uni041A" unicode="&#x41a;" horiz-adv-x="718" 
d="M239 321q-27 0 -27 -62l-4 -57q-3 -56 -3 -72v-14q0 -25 16 -39t35 -17.5t35 -14.5t16 -31q0 -9 -19 -15t-29 -6h-184q-11 0 -21.5 12.5t-5.5 21.5q4 16 30 28t31 20q7 130 7 376v143l-7 61q-4 1 -30 5t-42.5 12.5t-16.5 23.5q0 34 89 34q6 0 37 2.5t50 2.5q77 0 77 -32
q0 -11 -11.5 -20.5t-26 -18.5t-26 -32.5t-11.5 -58.5q0 -19 5.5 -63.5t1.5 -79.5q1 -2 4 -8.5l4.5 -10t4.5 -7.5t6.5 -6t7.5 -2q14 0 21 7q15 10 60 55t56 61q68 68 68 109q0 15 -12 26t-24 19t-12 16q0 49 111 49q13 0 31 -0.5t22 -0.5q24 0 49.5 -9.5t25.5 -31.5
q0 -6 -32.5 -35l-71.5 -61.5t-46 -39.5q-15 -15 -62.5 -71t-74.5 -79v-21q0 -16 10 -33t11 -21q34 -32 105 -129t120 -131q9 -7 40 -11.5t53.5 -15t22.5 -34.5q0 -14 -13.5 -21t-27.5 -7q-7 0 -23.5 -0.5t-24.5 -0.5q-51 0 -75 15q-26 18 -67 73t-76 108.5t-78.5 96.5
t-78.5 43z" />
    <glyph glyph-name="uni041B" unicode="&#x41b;" horiz-adv-x="785" 
d="M20 137q0 27 9 37t39 10q20 0 35 -19t22.5 -42.5t26 -42.5t46.5 -19q7 0 14.5 4t11.5 8l12 12.5l10 10.5q7 88 7 273q0 17 0.5 60.5t1 71.5t-1.5 66.5t-7 67.5q-12 7 -50 13t-66 14.5t-28 26.5q0 4 0.5 7.5t1.5 6t2 4t3 3t3.5 2.5t5 2.5t5.5 2.5q75 7 198 7q225 0 389 -7
q27 -13 27 -28q0 -16 -20 -27l-75 -20q-10 -2 -15.5 -20.5t-6.5 -49.5t-1 -58t1 -60.5t1 -43.5q0 -18 -0.5 -81t-0.5 -93.5t4 -80t11 -87.5q8 -6 32 -9.5t46.5 -5t40 -11t17.5 -28.5q0 -5 -10.5 -13t-16.5 -8q-68 -7 -164 -7q-82 0 -129 7l-7 7q0 3 -3.5 8t-6.5 8l-4 4
q0 16 13 25t29.5 10.5t32.5 6t21 13.5q2 42 7.5 146.5t9 191.5t3.5 160q0 24 -7.5 40t-17 24.5t-29 12.5t-32 4.5t-37.5 0.5h-61q-6 -1 -11 -5.5t-7.5 -10t-4.5 -13.5t-3 -15t-1.5 -15t0 -13.5t0.5 -10.5v-5q0 -45 3 -132.5t3 -127.5v-184q-17 -65 -49.5 -101t-93.5 -36
q-80 0 -129 38.5t-49 112.5z" />
    <glyph glyph-name="uni041C" unicode="&#x41c;" horiz-adv-x="776" 
d="M485 34q0 23 38 33t44 22q13 221 13 314q0 2 1.5 32.5t1.5 52.5t-5.5 47t-17.5 32q-27 -47 -74 -139t-63 -121q-6 -3 -16 -22t-18 -19q-14 0 -27.5 12t-20 24.5t-16 34t-11.5 25.5l-89 177h-13q-10 0 -17 -9t-11 -24t-6 -32.5t-2.5 -37t0 -33.5l1 -27t0.5 -14
q0 -17 -2.5 -61t-3 -73t6 -65.5t20.5 -60.5q6 -11 23 -18.5t32.5 -11t28 -15t12.5 -30.5q0 -3 -5 -6.5t-11 -4.5l-5 -2q-26 -9 -59 -9q-9 0 -30 1t-34 1h-82q-20 11 -20 27q0 20 25.5 38.5t28.5 23.5q21 183 21 382v7q0 14 -3.5 88.5t-3.5 88.5q-6 11 -51 25t-45 37
q0 21 61 21q9 0 21 -0.5t14 -0.5q51 0 88.5 -37.5t58.5 -90.5t38 -106t38.5 -90.5t49.5 -37.5q21 0 42.5 34t40.5 85t20 52l20 60.5t20 62.5q3 3 10.5 16.5l14.5 25.5t10 12h170q9 0 15 -7t6 -13q0 -16 -15 -25t-33.5 -11.5t-35.5 -10t-19 -21.5v-110q0 -3 -3 -23t-3 -24
l6 -34v-7q0 -14 -3 -41.5t-3 -40.5q0 -17 3 -48t3 -48q0 -14 -3 -39.5t-3 -35.5q0 -49 11 -77t27.5 -36t32.5 -11.5t27 -11.5t11 -28q0 -28 -70 -28q-203 0 -203 35zM758 696q5 0 5 -6.5t-5 -6.5t-5 6.5t5 6.5z" />
    <glyph glyph-name="uni041D" unicode="&#x41d;" horiz-adv-x="674" 
d="M41 7q27 38 50 47q10 3 13 16t12 87l7 34v7q0 4 -3.5 24t-3.5 24v307q0 3 3.5 17t3.5 17v7q0 23 -15 35.5t-33 15.5t-33 10.5t-15 20.5q0 36 55 36q8 0 22.5 -1t18.5 -1q2 0 14.5 0.5t22.5 0.5q99 0 99 -28q0 -16 -18.5 -29t-22.5 -19q-8 -14 -12.5 -30t-6 -36.5
t-2 -33.5t0 -38t0.5 -33v-7l7 -47l20 -14h232q8 0 14 4.5t9 10t4 15t1.5 15t0 14t-0.5 9.5q0 66 -4.5 103.5t-11.5 50t-18.5 16.5t-22.5 2t-26 7.5t-27 32.5q27 34 110 34q10 0 64.5 -7t64.5 -7q2 1 5 1q9 0 9 -21v-14q-5 0 -23.5 -10.5t-24.5 -16.5l-7 -14v-566
q0 -8 22 -13.5t42.5 -14.5t17.5 -27q-5 -28 -82 -28h-57q-86 0 -86 28q0 18 22.5 35t25.5 33q0 14 3.5 92.5t3.5 92.5v27v20l-7 7q-15 15 -139 15h-111q-17 0 -23 -22q-7 -54 -7 -129q0 -62 7 -116q8 -11 29 -16.5t37 -13t16 -25.5q0 -27 -82 -27h-28q-3 0 -20 3.5t-20 3.5
l-35 -7h-6q-21 0 -55 34z" />
    <glyph glyph-name="uni041E" unicode="&#x41e;" horiz-adv-x="628" 
d="M20 369q0 69 15.5 132t47.5 118t87.5 92t129.5 47q20 2 29 2q53 0 100 -27t79 -70t55 -96t34 -106t11 -99q0 -102 -33.5 -184t-106 -133.5t-174.5 -51.5q-57 0 -104 23t-78 60t-52.5 86.5t-30.5 101.5t-9 105zM116 369q0 -308 191 -308q61 0 103.5 29t63.5 78.5t29.5 99
t8.5 107.5q0 73 -18 130t-57 130q-12 4 -58.5 26t-78.5 22q-184 0 -184 -314z" />
    <glyph glyph-name="uni041F" unicode="&#x41f;" horiz-adv-x="860" 
d="M75 0q-14 14 -14 27q0 33 43 33q6 0 20 -0.5t21 -0.5q37 0 39 23q0 30 7 204.5t7 205.5q0 3 3.5 37t3.5 38q0 65 -21 75q-34 0 -99 12.5t-65 34.5q0 5 8 13t13 8q93 15 248 15q25 0 74.5 -0.5t73.5 -0.5q212 0 348 -7q10 -3 14.5 -7.5t5.5 -8t1 -12.5q0 -36 -85 -36
q-9 0 -18 0.5t-15 0.5l-5 1q-8 0 -21 -13q-20 -263 -20 -512q0 -34 20.5 -51t49.5 -19t58 -2t49.5 -6t20.5 -25q0 -4 -0.5 -7.5t-1.5 -5.5t-2 -3.5t-3 -3t-3.5 -2.5t-5 -2.5t-5.5 -2.5q-75 -7 -177 -7q-1 0 -23.5 -1t-39.5 -1q-94 0 -94 29l23.5 14.5t32 21.5t19.5 19
q0 13 6.5 92t6.5 92v21v27q0 24 -6.5 167.5t-6.5 167.5q-13 13 -28 13h-75q-6 0 -38 2t-52 2q-63 0 -80 -17q-14 -138 -14 -212q0 -123 14 -355q4 -11 21 -16t35 -6t32 -9t14 -24q0 -28 -137 -28q-14 0 -32.5 0.5t-21.5 0.5q-75 0 -123 7z" />
    <glyph glyph-name="uni0420" unicode="&#x420;" horiz-adv-x="628" 
d="M48 7q0 18 15 27.5t32.5 11.5t32.5 8.5t15 20.5v574q0 14 -8.5 21.5t-19 9t-27.5 1.5h-16q-45 0 -45 22q0 34 14 34l55 7h122q13 0 41 0.5t42 0.5q54 0 91 -3t81.5 -15t71 -33t45 -60.5t18.5 -94.5q0 -76 -35.5 -123.5t-87.5 -64.5t-104 -24t-93.5 -14.5t-48.5 -25.5
q-5 -10 -7 -26.5t-2 -30.5t1 -31.5t1 -21.5v-75q0 -27 22.5 -38.5t49 -11t49 -7.5t22.5 -31q0 -34 -75 -34h-27q-3 0 -17 3t-17 3q-4 0 -21 -3t-20 -3h-61h-62q-27 12 -27 27zM246 389l7 -7q41 -7 61 -7q28 0 56.5 4t61 14t53 32t20.5 53v109q0 26 -20.5 45.5t-51 30
t-59.5 15.5t-53 5l-68 -7l-7 -7v-280z" />
    <glyph glyph-name="uni0421" unicode="&#x421;" horiz-adv-x="584" 
d="M20 348q0 52 12.5 105.5t38.5 103t61.5 88t84.5 62t104 23.5q232 0 232 -47l7 -151q0 -13 -14 -20t-27 -7q-11 0 -19 16t-17 39.5t-23 46.5t-44.5 39t-74.5 16q-66 0 -111 -27t-67.5 -76t-31 -100.5t-8.5 -117.5q0 -32 3 -65t13 -75.5t26.5 -75t46 -55t68.5 -22.5h109
q33 0 55 27.5t31.5 61t22 61t28.5 27.5q10 0 22 -12t12 -22v-116q0 -31 -99 -66.5t-133 -35.5q-72 0 -131.5 32.5t-97.5 86t-58.5 120t-20.5 136.5z" />
    <glyph glyph-name="uni0422" unicode="&#x422;" horiz-adv-x="662" 
d="M157 14q0 20 32.5 26.5t65 12t32.5 22.5v574q0 14 -46 14q-9 0 -22 -0.5t-14 -0.5q-40 0 -63 -17t-30.5 -41t-11 -48t-12 -41t-27.5 -17q-41 0 -41 137q0 95 55 95h539q9 0 18.5 -22.5t9.5 -31.5v-144q0 -10 -9 -18.5t-19 -8.5q-22 0 -31 17t-11 41t-8.5 48t-33 41
t-73.5 17q-82 0 -82 -41v-539q0 -23 24 -33.5t54 -10.5t58 -9t35 -29q0 -3 -5 -10t-10 -12l-5 -5q-4 0 -28 -7t-27 -7q-17 0 -112.5 7t-112.5 7q-89 0 -89 34z" />
    <glyph glyph-name="uni0423" unicode="&#x423;" horiz-adv-x="702" 
d="M109 41q0 20 17 34t38 14q10 0 30.5 -3.5t30.5 -3.5q52 0 81 52t29 112q0 36 -27.5 86t-66 105t-50.5 82q-6 16 -32 69t-36 67q-7 7 -48 21t-41 34q0 13 31.5 23.5t43.5 10.5q9 -9 41 -9q11 0 36.5 1.5t37.5 1.5q56 0 56 -28q0 -14 -12 -22.5t-24 -20.5t-12 -32
q0 -28 54 -147t89 -119q42 0 82.5 108t40.5 172v20q-6 6 -21 9t-28 3.5t-23 7.5t-10 21q0 34 151 34q6 0 21 -3.5t26 -3.5q3 0 11.5 3.5t16.5 3.5q15 0 24.5 -12.5t9.5 -28.5q0 -11 -19 -23l-43.5 -27t-33.5 -32l-42.5 -97.5l-45 -102t-43.5 -90t-53 -99.5
q-13 -22 -28 -60.5t-27.5 -65.5t-32 -55t-50.5 -43t-74 -15q-19 0 -47 15t-28 33z" />
    <glyph glyph-name="uni0424" unicode="&#x424;" horiz-adv-x="798" 
d="M191 34q0 11 9.5 19t24.5 8h82q7 0 21 14q-1 3 -34 11.5t-77.5 26.5t-89.5 46.5t-76 79.5t-31 116q0 149 137 253q5 5 24.5 11.5t35 15t15.5 20.5q-21 0 -51.5 8.5t-30.5 25.5q0 10 12 19t22 9q103 13 308 13h30q86 0 86 -34q0 -4 -1 -8t-3 -7.5t-4 -6t-5.5 -4.5l-6 -3.5
t-7.5 -3.5t-7 -3t-7.5 -3t-6.5 -2q225 -89 225 -300q0 -106 -67.5 -172t-178.5 -94q-3 0 -34 -7t-34 -7l-14 -7q10 -4 62 -3.5t91 -10t39 -40.5q0 -5 -7.5 -9.5t-13.5 -4.5q-8 0 -33.5 -3.5t-27.5 -3.5h-349q-13 0 -20 13.5t-7 27.5zM102 362q0 -77 64 -127.5t141 -50.5
q18 0 28 84.5t14 184t6 107.5l-7 7q-102 0 -174 -55.5t-72 -149.5zM430 423q0 -57 1.5 -87t11 -73.5t28.5 -78.5h27q78 0 148.5 53.5t70.5 131.5q0 64 -42 111t-99 67t-119 20q-12 0 -18.5 -11.5t-8.5 -31.5t-2 -37.5t1 -38.5t1 -25z" />
    </font>
</defs>
</svg>
